<svg version="1" xmlns="http://www.w3.org/2000/svg" width="1066.667" height="1066.667" viewBox="0 0 800.000000 800.000000"><path d="M351.3 87.5c-3.2 1.6-6.1 4.1-7.9 6.7l-2.9 4.1-.3 73.1-.2 73.1 3 5.2c5.9 10.3 19 13.3 29.6 6.7 3.1-1.9 5.6-4.4 7.1-7.3l2.3-4.4v-71.6c0-67.6-.1-71.8-1.9-75.6-5.2-11.2-17.7-15.5-28.8-10zM533.8 120.9c-4.7 1.5-9.6 5.1-11.7 8.4-1 1.8-14.2 31.1-29.2 65.2-30.4 69.3-30.1 68.1-25.2 77.5 5.8 11.4 18.7 15 30 8.5 2.3-1.4 5-3.9 6.1-5.7 1.1-1.8 14.3-31.2 29.3-65.3 20.8-47.4 27.3-63.2 27.6-67 .6-7.1-3.5-14.9-9.8-18.8-4.9-3-12.6-4.2-17.1-2.8zM171 125c-10.4 1.9-17 10-17 20.9 0 4.4 3.6 13.4 27.9 69.1 15.3 35.3 28.9 65.3 30.2 66.7 4.5 4.7 9.5 6.5 16.9 6.1 9.1-.5 14.2-3.8 17.7-11.5 4.4-9.6 4.7-8.8-26.1-79.2-15.2-34.9-28.6-64.6-29.8-65.9-4.7-4.9-12.8-7.5-19.8-6.2zM681.8 226.4c-2.1.7-4.8 2.1-6 2.9-1.3.9-24.6 22-51.8 46.9-53 48.5-54 49.6-54 58.8 0 6.5 4.1 14.4 9.3 17.8 5.5 3.7 15.6 4.3 21.3 1.4 5.8-3.1 103.4-92.5 106.4-97.5 5.5-9.3 2-22.7-7.4-28.2-5.4-3.1-12.8-4-17.8-2.1zM14.2 237.3C2.4 241.8-3.3 255.5 2 266.6c1.5 3.1 15.2 16.3 52.4 51 27.7 25.7 51.9 47.6 53.7 48.6 4.1 2.2 13.5 2.4 18.2.4 3.8-1.6 8.2-5.9 10.5-10.1 2.4-4.4 2.2-15.1-.3-19.4-2.4-4-101.4-96.5-105.7-98.7-4-2.1-12.5-2.7-16.6-1.1zM345.5 316.7c-47.5 5.9-88.5 25.5-120.8 57.8-57 57-74.9 141-46.1 216.2 22.5 58.7 72.5 104.3 133.8 121.8l8.8 2.5H412.5l9.5-2.5c18-4.9 38.3-14.1 55.5-25.3 31.1-20.2 55.3-47.9 72-82.4 13.8-28.5 19.5-54.2 19.5-87.8-.1-32.2-6.1-59-20-87.6C519.8 369 462 327 394.8 317.5c-9.4-1.3-41-1.9-49.3-.8zm51.2 38.3c91.9 16.6 152 106.5 132.2 197.9-6.4 29.5-21 56.8-41.8 78.4-25.3 26.2-52.2 41.2-87.4 48.9-8.8 1.9-13.2 2.2-32.2 2.2-19.1 0-23.4-.3-32.5-2.2-22.8-5-45.7-14.9-63.7-27.5-11.3-8-31-27.7-39-39-13-18.5-23.8-44.1-27.9-66.2-2.9-15.2-2.6-48.2.4-62.2 7.6-35.1 22.7-62.1 48.9-87.4 25.9-25 59.7-40.7 96.8-44.9 11.5-1.3 33.2-.4 46.2 2z"/><path d="M403.2 432.4c-16.1 5.2-22.2 24.3-11.9 37.8 10.7 14 33.3 11.4 40.8-4.7 2.4-5.3 2.5-14.7 0-20-4.9-10.7-17.9-16.6-28.9-13.1zM306.5 456.5c-9.7 3.6-15.7 12.1-15.7 22.3-.1 14 9.9 24.2 23.7 24.2 24.7 0 33.3-32.1 12-44.6-5.6-3.2-14.2-4-20-1.9zM464.1 505.1c-4.9.9-11.1 4.6-13.6 8.1-.9 1.3-3.9 6.3-6.8 11.2-15.3 26.3-43.1 42.1-73.7 41.9-12 0-19.9-1.7-33.2-6.9-8.1-3.1-10.1-3.6-15.1-3.1-8.1.7-14.2 4.6-18.4 11.7-2.8 4.7-3.3 6.3-3.3 12 .1 14.8 8.1 22.2 32 29.3 15.1 4.5 19.8 5.2 38 5.2 19.4 0 25.8-.9 42-6.1 32.9-10.5 61.5-34.6 76.5-64.5 3.9-7.9 4.5-9.9 4.5-15.3 0-7.6-2.3-12.9-7.7-17.7-5.8-5.2-13.3-7.3-21.2-5.8zM712.5 407.4c-35.2 11.7-65.3 22-67 22.8-14.4 7.6-14 29.9.7 37.2 2.9 1.5 6.9 2.6 9.1 2.6 4.6 0 130.1-41.1 136.4-44.6 7.1-4.1 8.3-6.7 8.3-18.3 0-9.9 0-10.1-3.2-13.7-4.1-4.6-10-7.4-15.8-7.3-3.2 0-23.4 6.3-68.5 21.3z"/></svg>