<svg version="1" xmlns="http://www.w3.org/2000/svg" width="676" height="676" viewBox="0 0 507.000000 507.000000"><path d="M236.4 3.4L233 6.8v81.4l3.4 3.4c3.9 3.9 8.6 4.5 13.6 1.9 5.9-3.1 6-3.7 6-45.5 0-42-.2-43.5-6.1-46.5-4.9-2.6-9.7-1.9-13.5 1.9zM335 21.2c-2.9 2-5.2 6.6-18.7 37.2-16.8 38.5-17.3 40.3-12.5 45.7 2.1 2.4 3.8 3.2 7.2 3.6 8.7.8 8.8.7 26.3-39.1C345.9 49 353 32 353 30.9c0-3.8-3.1-8.7-6.5-10.3-4.5-2.2-7.6-2-11.5.6zM139.3 22.1c-4.5 1.3-7.3 5.3-7.3 10.3 0 5.5 28.7 71.9 32.6 75.3 1.9 1.7 3.7 2.3 7.5 2.3 4.2 0 5.5-.5 8-2.9 5.3-5.3 4.7-7.7-11.6-45.1-8-18.3-15.2-34.4-16.1-35.7-.8-1.4-3.1-3.1-4.9-3.9-3.8-1.6-3.8-1.6-8.2-.3zM416.5 77.8c-4.5 2.9-54.7 48.9-56.7 52-1 1.5-1.8 4.1-1.8 5.9 0 7.1 4.4 11.3 11.8 11.3 4.8 0 4.3.4 37.6-30 25.6-23.3 27.5-25.7 26.1-31.9-1.5-7-11-11.1-17-7.3zM53.8 83.6c-5 2.7-7.1 9.4-4.6 14.8 1 2.4 49.5 48.4 56.2 53.3 9.9 7.5 23.3-5.5 16.2-15.8-1.8-2.6-52.9-50-56.1-52-3.6-2.3-8-2.4-11.7-.3zM233.5 126.1c-46.8 5.9-85.9 43.2-94 89.8-6.4 36.4 5.7 72.9 32.6 98.7 13.4 12.8 30.3 22.2 48.6 27.1 8.6 2.3 11.8 2.6 26.3 2.7 13.8 0 17.9-.3 25.3-2.2 41-10.2 71-39.6 81.9-80 2.9-11 3.6-35.4 1.4-47.5-4.1-21.7-14.6-41.4-30.3-57-10-9.9-18.2-15.7-30.8-21.8-19.1-9.1-39.6-12.4-61-9.8zM269 148c16.7 4 35.4 15.4 46.2 28.1 14.7 17.4 21.8 36.5 21.8 58.9 0 23.3-7.9 43.8-23.3 60.5-11.7 12.7-27.1 22-44.2 26.6-11.4 3.1-32.6 3.1-44 .1-17.3-4.7-35.6-16.1-46.3-29-34.5-41.6-25.9-102.5 18.8-132.9 9.8-6.6 24.6-12.3 37.5-14.3 8.4-1.3 23.5-.4 33.5 2z"/><path d="M264.3 190c-11.4 6.9-6.6 24 6.7 24 7.7 0 13-5.2 13-12.7 0-10.2-11-16.6-19.7-11.3zM212.3 203c-4.1 2.4-6.3 6.7-6.3 12.1 0 3.5.6 4.8 3.9 8 3.5 3.5 4.4 3.9 9.1 3.9 4.7 0 5.6-.4 9.1-3.9 3.3-3.3 3.9-4.5 3.9-8.2 0-10.8-10.8-17.4-19.7-11.9zM295.2 230.5c-1.7 1.4-4.4 4.9-6 7.8-4 7.1-12.9 15.2-20.4 18.7-11.3 5.3-26 5.7-36.5 1-2.5-1.1-6.6-2-9-2-3.9 0-5.1.5-8.4 3.9-3.5 3.5-3.9 4.4-3.9 9.1 0 4.7.4 5.6 3.8 9 2.8 2.8 5.9 4.5 12.2 6.6 7.7 2.5 9.8 2.8 22.5 2.8 12.5 0 14.9-.3 22-2.7 11.5-3.8 19.9-9.1 29-18.2 10.2-10.2 15.5-19.1 15.5-25.8 0-4.4-.4-5.4-3.9-8.8-3.5-3.5-4.4-3.9-8.9-3.9-3.9 0-5.7.6-8 2.5zM434 175.4c-18.5 6.2-34.6 11.8-35.8 12.5-2.9 1.6-5.2 6.2-5.2 10.7 0 5.2 5.3 10.4 10.6 10.4 2.3 0 18.4-4.8 38.8-11.6 40.1-13.4 41.1-13.9 41.1-22.4 0-4.6-.4-5.5-3.3-8.1-5.3-4.8-8.4-4.2-46.2 8.5zM14.2 188c-4.5 2.8-6.8 8.2-5.3 13 .6 2 2 4.5 3.1 5.5 2.5 2.2 71.5 20.5 77.6 20.5 5.2 0 9-2.8 10.5-7.9 1.4-4.6-.6-10.1-4.5-12.6C93.3 204.9 22.4 186 19 186c-.8 0-3 .9-4.8 2zM452.5 249.9c-20.8 1.1-33.8 2.2-35.2 2.9-3.6 2-5.3 5.3-5.3 10.3 0 5.6 2.6 9.4 7.3 10.7 1.9.5 18.8.1 41.1-1 30-1.4 38.4-2.1 40.3-3.3 2.1-1.4 2.3-2.3 2.3-10 0-13 3.7-12.3-50.5-9.6zM45.7 281.4c-33.7 5.7-37.1 6.5-39.3 8.8-5.5 5.4-3.7 15.2 3.2 18.6 3.5 1.6 4.4 1.5 41-4.6 20.7-3.4 38.9-6.9 40.5-7.8 9.3-4.8 5.8-19.9-4.8-20.9-2.1-.2-20.4 2.4-40.6 5.9zM404.4 328.4c-2.8 2.8-3.4 4.1-3.4 7.7 0 8.2.6 8.5 39.9 23.4 23.9 9.2 36.6 13.5 39.3 13.5 5.5 0 10.8-5.1 10.8-10.4 0-4.3-2.2-9.1-4.8-10.5-1-.5-17.3-6.8-36.2-14-22.9-8.8-35.6-13.1-38.3-13.1-3.1 0-4.6.7-7.3 3.4zM107.4 340c-4.5 1.8-64.2 41.8-65.7 44.1-5.3 7.5 1.9 19 11.1 17.6 3.4-.6 64.1-39.7 67.7-43.7 2.4-2.7 3-9.1 1.2-12.7-2.5-4.8-9.3-7.4-14.3-5.3zM155.7 388.8c-1.8 1-10.7 13.9-23.8 34.1-22.3 34.6-22.8 35.6-19.3 42.2.8 1.7 3 3.7 4.9 4.5 9.3 3.8 10.3 2.9 34.5-34.6 16.4-25.4 21-33.2 21-35.8 0-9.4-9.6-15.2-17.3-10.4zM367.3 388.6c-3.3 1.6-6.3 6.6-6.3 10.4 0 1.1.6 3.3 1.4 4.8.8 1.5 13.8 14.7 28.8 29.3 29.4 28.5 30.5 29.3 37.2 26.5 4.7-2 7.6-6.1 7.6-11 .1-4.1-.2-4.3-27.2-31-15-14.8-28.6-27.7-30.3-28.7-3.6-2.3-7-2.4-11.2-.3zM296.4 413.4c-2.4 2.4-3.4 4.3-3.4 6.5 0 3.9 17.6 74.5 19.2 77 1.7 2.8 6.2 5.1 9.8 5.1 4.6 0 8.7-2.8 10.5-7.2 1.4-3.7 1.3-4.6-7.9-41.5-8.9-35.6-9.6-37.9-12.5-40.5-2.5-2.2-4.1-2.8-7.7-2.8-3.9 0-5.1.5-8 3.4zM222.9 416.8l-3.1 2.8-6.4 38.4c-6.9 41.8-6.9 42.9-1.7 47 4.9 3.8 14.5 2.2 17.3-2.9 1.1-2.2 13-72.5 13-77.1 0-6.8-4.3-10.9-11.2-11-3.8 0-5.4.6-7.9 2.8z"/></svg>