<?xml version="1.0" encoding="utf-8"?>
<!-- Generator: Adobe Illustrator 16.0.0, SVG Export Plug-In . SVG Version: 6.00 Build 0)  -->
<!DOCTYPE svg PUBLIC "-//W3C//DTD SVG 1.1//EN" "http://www.w3.org/Graphics/SVG/1.1/DTD/svg11.dtd">
<svg version="1.1" id="Layer_1" xmlns="http://www.w3.org/2000/svg" xmlns:xlink="http://www.w3.org/1999/xlink" x="0px" y="0px"
	 width="200.028px" height="86.281px" viewBox="0 0 200.028 86.281" enable-background="new 0 0 200.028 86.281"
	 xml:space="preserve">
<path fill="#2F5EA9" d="M144.334,0c0,0-11.315,3.514-32.856,3.511C89.937,3.509,18.858-0.211,0,7.452l9.912,20.679
	c0,0-4.954,17.774-1.692,22.555c0,0,3.385-1.968,13.981-3.221c6.904-0.818,23.015,1.895,30.87,2.179
	c7.854,0.284,28.162,2.195,74.687,0c8.004-0.378,16.576-4.593,16.576-4.593l-7.15-20.732L144.334,0z"/>
<polygon fill="#FFFFFF" points="137.537,86.021 155.884,85.676 161.028,73.962 149.999,71.598 "/>
<polygon fill="#FFFFFF" points="182.31,70.021 164.503,71.378 164.377,62.605 176.603,62.774 "/>
<g>
	<path fill="#2F5EA9" stroke="#2F5EA9" stroke-width="0.2" stroke-miterlimit="10" d="M8.039,82.961
		c-0.292-0.325-0.683-0.585-0.91-0.976c-0.194-0.292-0.455-0.617-0.618-0.941c-0.162-0.26-0.324-0.553-0.324-0.877
		c0-0.163,0.031-0.292,0.13-0.423c0.032-0.131,2.21-1.82,2.6-2.178c0.228-0.228,0.455-0.52,0.812-0.52
		c0.325,0,1.495,1.333,1.788,1.592c0.292,0.26,0.357,0.748,0.65,1.04c0.423,0.098,0.748,0.228,1.203,0.228
		c0.845,0,1.69-0.486,1.917-1.333v0.033c0.033-0.26,0.064-0.52,0.064-0.779c0-0.261-0.616-0.455-0.812-0.554h0.033
		c-0.229-0.064-0.422-0.162-0.618-0.26c-0.65-0.356-1.462-0.585-2.146-0.91c-1.202-0.552-2.178-1.495-3.152-2.373
		c-1.69-1.526-2.827-2.859-2.827-5.297c0-4.16,3.998-6.24,7.734-6.24c1.041,0,2.504,0.391,3.349,1.008
		c0.812,0.585,4.42,3.867,4.42,5.135c0,0.292-0.325,0.52-0.553,0.683c-0.325,0.229-2.632,1.854-2.828,1.854
		c-0.552,0-1.82-1.594-2.146-2.016c-0.097-0.13-1.203-0.455-1.396-0.455c-0.585,0-2.08,0.391-2.08,1.139
		c0,0.324,1.3,0.812,1.593,0.941c2.925,1.203,3.705,1.854,5.851,3.998c1.462,1.462,2.242,2.373,2.242,4.583
		c0,0.391-0.064,0.878-0.13,1.269l-0.13,0.649l-0.064,0.229v0.097c-0.91,3.348-3.511,4.875-6.825,4.875
		C11.777,86.179,9.99,85.235,8.039,82.961z M10.834,79.288c-0.585-0.553-0.845-1.072-1.17-1.788c0-0.032,0-0.032-0.033-0.032
		c-0.097,0-0.455,0.487-0.585,0.585L6.673,80.1c1.105,2.828,3.9,4.16,6.825,4.16c2.828,0,5.331-1.365,6.175-4.322
		c0.163-0.618,0.391-1.397,0.391-2.048c0-6.923-9.621-6.468-9.621-9.75c0-1.202,1.463-1.657,2.438-1.657
		c1.269,0,3.055,1.203,3.542,2.373c0.229,0.032,2.21-1.43,2.502-1.593c0.163-0.097,0.325-0.26,0.325-0.487
		c0-0.163-0.098-0.356-0.195-0.52c-0.194-0.39-0.486-0.715-0.746-1.105l0.031,0.032c-1.072-1.495-2.99-2.438-4.81-2.438
		c-1.82,0-4.062,0.487-5.429,1.788c-0.487,0.486-0.845,1.104-1.202,1.689c-0.358,0.585-0.521,1.3-0.521,1.983
		c0,0.877,0.195,1.462,0.391,2.308V70.48c0.194,0.585,0.552,1.203,1.007,1.625c0.975,0.91,2.145,1.886,3.413,2.373
		c1.43,0.553,4.68,1.593,4.68,3.479c0,1.56-1.072,2.47-2.6,2.47C12.265,80.426,11.582,79.971,10.834,79.288z M15.19,85.724
		c0.162,0,0.324-0.033,0.486-0.064c2.405-0.358,3.674-0.943,4.908-3.089v0.033c0.552-1.138,0.91-2.34,0.91-3.607
		c0-1.235-0.358-2.309-1.17-3.25c0.163,0.422,0.228,0.941,0.228,1.396c0,3.998-2.308,7.638-6.76,7.638
		c-1.365,0-2.632-0.13-3.899-0.682C11.322,85.333,13.337,85.724,15.19,85.724z M10.802,74.868c1.235,0.748,2.502,1.202,3.771,1.853
		C13.402,75.811,12.07,75.551,10.802,74.868z M12.785,66.97c-0.715,0-1.854,0.455-1.854,1.333v0.13
		c0.099,0.39,0.553,0.78,0.878,1.007c0.26-1.234,1.787-1.56,2.827-1.56c0.13,0,0.292,0.064,0.391,0.098
		C14.442,67.425,13.63,66.97,12.785,66.97z M18.472,68.237c-0.356,0.229-1.43,0.878-1.656,1.105c0.194,0.13,0.91,0.877,0.941,0.975
		h0.099c0.292,0,2.566-1.657,2.6-1.689c0.032,0,0.065-0.065,0.065-0.099c0-0.13-0.748-0.812-1.009-0.941
		C19.415,67.588,18.538,68.173,18.472,68.237z M20.747,68.14c-0.195-0.455-0.553-0.845-0.812-1.235l-0.098,0.325
		C20.097,67.555,20.455,67.848,20.747,68.14z"/>
	<path fill="#2F5EA9" stroke="#2F5EA9" stroke-width="0.2" stroke-miterlimit="10" d="M36.705,79.775
		c0.033,0.357-1.657,4.908-1.723,5.104c-0.13,0.422-0.261,1.073-0.779,1.17c-0.195,0.033-0.391,0.033-0.585,0.033h-2.405
		c-0.649,0-1.008-0.261-1.43-0.748c-0.195-0.229-0.423-0.487-0.65-0.684c-0.163-0.13-0.356-0.292-0.423-0.486
		c-0.845-3.315-1.755-6.599-2.632-9.913c-0.553-2.146-1.04-4.323-1.723-6.436c-0.163-0.52-1.17-4.388-1.17-4.484
		c0-1.04,2.111-0.618,2.827-0.618c0.423,0,0.846-0.032,1.269-0.032c0.162,0,0.325,0,0.455,0.065c2.08,2.015,1.723,1.625,2.405,4.518
		c0.228,1.008,0.486,2.048,0.812,3.023c0.162,0.52,0.292,1.04,0.39,1.592c0.065,0.325,0.162,0.649,0.261,0.975l0.194,0.715
		l0.162,0.684c0.033-0.26,0.195-0.585,0.293-0.845l0.292-0.846c0.163-0.487,0.357-1.073,0.488-1.593
		c0.162-0.748,0.585-1.43,0.715-2.145c-0.293-1.138-1.495-4.844-1.495-5.559c0-0.553,0.455-0.585,0.877-0.585h3.512
		c0.616,0,1.43,1.072,1.853,1.462c0.455,0.423,1.332,5.428,1.787,7.184l0.228,0.941c0-0.064,0.033,0.13,0.033,0.163l0.064,0.357
		c0.031,0.163,0.031,0.292,0.098,0.455l0.032-0.033c0-0.325,0.91-3.575,1.073-4.16c0.161-1.17,1.43-5.72,1.755-6.175
		c0.13-0.163,0.292-0.195,0.486-0.195h2.958c1.04,0,1.431,0.487,2.112,1.235c0.195,0.228,0.521,0.423,0.521,0.779
		c0,0.357-0.553,2.016-0.649,2.373l-0.098,0.422l-0.391,1.431c-0.325,1.3-0.748,2.566-1.073,3.868
		c-1.104,4.191-2.241,8.385-3.38,12.577c-0.13,0.455-0.098,0.748-0.683,0.748c-1.008,0-2.016,0.032-3.022,0.032
		c-0.228,0-0.454-0.032-0.683-0.098c-0.325-0.097-1.365-1.43-1.69-1.722C37.356,82.831,37.161,81.336,36.705,79.775z M31.083,77.013
		c-1.17-4.485-2.275-9.035-3.51-13.521c-0.033-0.065-0.13-0.229-0.195-0.292h-3.51c-0.13,0-0.13,0.032-0.13,0.13
		c0,0.39,1.234,4.614,1.43,5.232c0.13,0.391,0.195,0.78,0.26,1.203c0.13,0.65,0.617,2.242,0.748,2.795
		c0.585,2.178,1.268,4.323,1.754,6.533c0.195,0.91,0.521,1.788,0.748,2.665c0.162,0.715,0.292,1.528,0.554,2.21
		c0.063,0.195,0.324,0.228,0.486,0.228c0.487,0,2.764,0,3.022-0.064c0.293-0.942,0.878-2.665,1.268-3.607
		c0.357-0.877,0.585-1.788,0.942-2.665c0.163-0.423,0.356-0.812,0.486-1.234c0.065-0.26,0.195-0.812,0.488-0.91
		c0.357,0,0.422,0.91,0.487,1.137c0.098,0.391,0.26,0.812,0.39,1.203c0.26,0.877,0.423,1.755,0.684,2.633
		c0.194,0.65,0.423,1.333,0.553,1.982c0.064,0.356,0.292,1.495,0.585,1.495c0.617,0,1.202-0.033,1.82-0.033
		c0.553,0,1.071,0.098,1.625-0.032c0.063-0.13,0.812-3.055,0.909-3.38c0.487-2.145,1.202-4.258,1.756-6.403
		c0.553-2.21,1.17-4.42,1.755-6.63c0.26-0.975,1.138-3.835,1.138-4.291c0-0.064,0-0.13-0.064-0.194h-1.689
		c-0.423,0-1.95-0.033-2.016,0.228c-0.131,0.487-0.162,0.975-0.325,1.43c-0.261,0.78-0.391,1.593-0.649,2.373
		c-0.423,1.235-0.748,2.502-1.072,3.771c-0.357,1.3-0.617,2.6-1.008,3.868c-0.064,0.26-0.293,1.755-0.779,1.755
		c-0.325,0-1.17-4.811-1.397-5.493c-0.52-1.982-0.942-3.998-1.397-6.013c-0.098-0.391-0.356-1.917-0.553-1.917
		c-1.268,0-2.535,0.032-3.803,0.032c-0.032,0-0.064,0.032-0.064,0.065c0,1.072,1.463,4.354,1.463,5.493
		c0,0.292-1.301,4.127-1.332,4.191c-0.163,0.554-1.139,4.226-1.594,4.226C31.343,77.208,31.148,77.241,31.083,77.013z
		 M31.278,73.697l-0.455-1.723c-0.617-2.34-1.332-4.647-1.787-7.021c-0.098-0.391-0.585-0.812-0.878-1.138
		c0.391,0.942,2.796,10.693,3.186,12.123l0.325-0.812C31.668,74.77,31.375,74.088,31.278,73.697z M31.278,85.527
		c0.812,0,1.625,0.065,2.404,0.065c-0.39-0.097-0.715-0.617-0.975-0.91c-0.098-0.064-0.228-0.064-0.357-0.064
		c-0.098,0-0.194,0.031-0.293,0.031c-0.779,0.163-1.625,0.099-2.371-0.064c0.228,0.356,0.746,0.715,1.039,0.975
		C30.92,85.593,31.083,85.527,31.278,85.527z M35.926,76.721c-0.194,1.235-0.812,2.47-1.301,3.672
		c-0.422,1.105-0.747,2.243-1.17,3.349c-0.098,0.26-0.064,0.553-0.325,0.715c0.423,0.324,0.716,0.748,1.073,1.071
		c0.26-0.715,2.242-6.271,2.242-6.5C36.445,78.8,36.024,76.979,35.926,76.721z M40.086,75.616c0.099-0.391,0.292-0.942,0.292-1.365
		c0-0.422-0.52-1.982-0.617-2.567c-0.228-1.234-0.423-2.535-0.779-3.738v0.033c-0.195-0.423-0.554-2.34-0.617-2.859
		c-0.033-0.163-0.13-0.325-0.163-0.487c-0.229-0.229-0.422-0.488-0.683-0.683c0.812,3.899,1.819,7.734,2.534,11.668L40.086,75.616
		L40.086,75.616z M41.548,84.619c-0.877,0-1.787,0.194-2.665,0.031c0.455,0.292,0.684,0.618,0.977,0.91c0.812,0,1.657,0,2.47-0.033
		c0.162,0,0.325,0.065,0.487,0.065h0.098C42.622,85.269,42.037,84.619,41.548,84.619z M44.376,82.181
		c0.032-0.356,0.194-0.715,0.292-1.04c0.455-1.43,0.748-2.958,1.138-4.42c0.748-2.763,1.657-5.525,2.243-8.32
		c0.194-0.909,0.976-2.958,0.976-3.705c0-0.26-0.554-0.649-0.942-1.072c-0.325,1.104-0.618,2.373-0.91,3.51
		c-0.683,2.763-1.463,5.493-2.21,8.223c-0.26,1.008-0.487,2.08-0.845,3.056c-0.065,0.228-0.229,0.877-0.325,1.202
		c-0.13,0.455-1.268,4.519-1.268,4.844c0.031,0.097,0.877,0.91,1.007,1.04c0.032-0.292,0.098-0.585,0.163-0.877v0.031
		C43.824,83.838,44.312,82.994,44.376,82.181z"/>
	<path fill="#2F5EA9" stroke="#2F5EA9" stroke-width="0.2" stroke-miterlimit="10" d="M52.308,84.423
		c-0.194-0.195-0.194-0.552-0.194-0.812V63.168c0-0.585,0.553-0.617,1.008-0.617c1.04,0,2.047,0.032,3.087,0.032
		c0.423,0,0.78,0.487,1.073,0.748c0.356,0.292,0.812,0.553,1.007,1.008v-0.033c0.064,0.098,0.098,0.229,0.098,0.357v15.275
		c0,1.886-0.031,3.771-0.063,5.655c0,0.423-0.977,0.39-1.235,0.39c-0.553,0-1.138-0.064-1.689-0.064
		c-0.521,0-1.008,0.033-1.527,0.033C53.673,85.853,52.406,84.521,52.308,84.423z M53.055,63.069c-0.356,0-0.422,0.098-0.422,0.455
		c0,0.91,0.064,1.854,0.064,2.763c0,4.291-0.032,8.612-0.032,12.902c0,1.625-0.13,3.218,0,4.844c0.064,0,0.13,0.031,0.194,0.031
		c0.194,0,0.455-0.031,0.649-0.064c0.617,0.13,1.203,0,1.82,0c1.138,0,1.072,0.26,1.072-0.91V66.611
		c0-0.683,0.031-1.364,0.031-2.079c0-0.455-0.063-0.942-0.063-1.431C55.265,63.103,54.161,63.069,53.055,63.069z M53.121,84.487
		c0.357,0.261,0.617,0.684,0.975,0.943h3.349c-0.423-0.423-0.684-0.91-1.332-0.91l-0.293,0.032h0.031
		C55.526,84.619,53.38,84.553,53.121,84.487z M56.955,84.001c0.13,0.356,0.617,0.748,0.878,1.007c-0.064-0.195,0-2.015,0-2.405
		c0-4.777,0.032-9.556,0.032-14.333c0-0.618-0.065-1.234-0.065-1.853c0-0.78,0.262-1.658-0.325-2.275
		c-0.13-0.13-0.454-0.552-0.616-0.617c0,0.78,0.064,1.527,0.064,2.308v11.439C56.923,78.053,56.793,83.579,56.955,84.001z"/>
	<path fill="#2F5EA9" stroke="#2F5EA9" stroke-width="0.2" stroke-miterlimit="10" d="M61.96,68.595c-0.193,0-1.56-1.495-1.625-1.56
		c-0.422-0.195-0.228-1.854-0.228-2.112c0-0.455,0.032-0.943,0.032-1.43c0-0.455-0.064-0.91,0.586-0.91c0.941,0,2.308,0,3.217,0.064
		c0.553,0.033,8.711-0.064,10.304-0.064c0.617,0,1.397,1.138,1.885,1.723c0.099,0.422,0.064,0.976,0.064,1.43
		c0,0.487,0.131,2.633-0.292,2.795c-0.13,0.065-0.293,0.065-0.455,0.065c-0.747,0-3.25,0.195-4.227-0.065
		c0.033,0.131,0.065,0.293,0.065,0.455c0,0.229-0.065,0.455-0.065,0.684c0,5.069,0.065,10.173,0.065,15.243
		c0,0.26,0,0.715-0.162,0.941c-0.098,0.163-3.705,0.13-4.062,0.13c-0.487,0-1.787-1.333-2.048-1.853
		c-0.032-0.455,0.032-0.942,0.032-1.397c0-1.203-0.064-2.438-0.064-3.64c0-2.178,0.098-4.355,0.064-6.533l-0.032-3.998
		c-0.715,0.229-1.755,0-2.534,0C62.318,68.562,62.123,68.595,61.96,68.595z M73.791,63.103c-0.391,0-0.78,0.065-1.17,0.065
		c-1.788,0-3.575-0.065-5.363-0.065c-2.048,0-4.095,0.065-6.143,0.065c-0.13,0-0.293,0-0.423-0.032
		c-0.032,0.098-0.064,0.195-0.064,0.292c0,1.007,0,2.047,0.032,3.055c0,0.13,0.032,0.163,0.162,0.163
		c0.455,0.032,0.942,0.032,1.397,0.032h2.729c0.748,0,0.618,0.39,0.618,1.008c0,0.585-0.033,1.105,0,1.69
		c0,0.26-0.099,0.552-0.065,0.812c0.162,1.69,0,3.349,0,5.038v8.516c0,0.13,0.032,0.26,0.13,0.357c1.235,0,2.438-0.033,3.673-0.033
		c0-0.39,0.032-0.779,0.032-1.17c0-0.649-0.13-6.793-0.032-7.118v0.032c0.064-1.137,0.032-2.243,0.032-3.38v-5.46
		c0-0.292,0.585-0.357,0.78-0.357c1.17,0,2.34,0.099,3.478,0.099c0.131,0,0.617,0,0.684-0.13c0.031-0.715-0.065-1.462-0.065-2.178
		c0-0.423,0.065-0.845,0.065-1.268C74.116,63.103,73.954,63.103,73.791,63.103z M65.081,67.359c0-0.064,0-0.13-0.032-0.194h-0.521
		c-1.007,0-1.982-0.033-2.989-0.033c-0.163,0-0.293,0-0.455,0.033c0.229,0.097,0.812,0.747,1.007,0.941
		c0.553-0.228,2.178,0.065,2.894-0.032L65.081,67.359z M65.991,84.553c0.391,0.228,0.585,0.65,0.941,0.878
		c0.262,0,0.521,0.032,0.78,0.032h2.697c-0.032-0.13-0.194-0.163-0.292-0.26c-0.195-0.163-0.423-0.521-0.65-0.65H65.991
		L65.991,84.553z M70.769,85.074c-0.098-0.163,0-13.554,0-15.243c0-0.455,0.064-1.139-0.131-1.528l-0.747-0.683l-0.031-0.065
		c0,1.04-0.065,2.08-0.065,3.12c0,4.258,0.065,8.516,0.065,12.772c0,0.131-0.065,0.325-0.065,0.455c0,0.099,0,0.195,0.032,0.261
		C69.989,84.326,70.671,85.008,70.769,85.074z M74.376,67.166c-0.098,0-0.195-0.033-0.325-0.033c-1.268,0-2.566,0.064-3.868,0.064
		c0.033,0.033,0.879,0.878,1.04,0.878c1.398,0,2.764-0.065,4.16,0.064L74.376,67.166z M75.123,67.133
		c0.26,0.228,0.391,0.292,0.553,0.585c0-1.04-0.032-2.047-0.032-3.087c0-0.163-0.812-1.008-0.878-1.073v3.186
		C74.734,66.774,75.06,67.1,75.123,67.133z"/>
	<path fill="#2F5EA9" stroke="#2F5EA9" stroke-width="0.2" stroke-miterlimit="10" d="M78.666,79.158
		c2.146-3.381,3.835-6.988,6.37-10.66c-0.097,0-0.162-0.033-0.26-0.033h-3.282c-1.918,0-1.431,0.292-3.022-1.17
		c-0.391-0.357-0.455-0.585-0.455-1.105c0-0.812,0.032-1.593,0.032-2.404c0-1.105-0.032-1.235,1.072-1.235
		c0.293,0,0.585-0.065,0.878-0.065c0.585,0,1.202,0.065,1.787,0.065c2.048,0,4.062-0.098,6.11-0.098
		c0.616,0,1.268,0.098,1.885,0.098c0.553,0,1.138-0.13,1.689,0c0.942,1.104,1.755,1.202,1.755,2.828c0,0.455,0,2.697-0.098,2.958
		c-0.162,0.486-1.688,2.893-1.981,3.38c-1.462,2.405-3.219,5.948-4.907,8.223c0.585-0.163,1.787,0,2.502,0
		c1.301,0,2.568-0.455,3.479,0.683c0.391,0.487,1.008,0.91,1.008,1.625v2.729c0,0.357-0.064,0.78-0.423,0.91
		c-3.381,0-6.761,0.032-10.141,0.032c-2.243,0-2.438,0.39-3.965-1.235c-0.293-0.13-0.586-0.683-0.586-1.008v-2.86
		C78.114,80.003,78.245,79.808,78.666,79.158z M91.115,66.84c0.098-0.195,0.13-0.39,0.13-0.618c0-0.455,0-2.893-0.064-3.185
		c-0.683,0-1.333-0.032-2.016-0.032H78.7c-0.099,0-0.163,0.13-0.163,0.228c0,0.261,0.064,0.553,0.064,0.812
		c0,0.585-0.064,1.17-0.064,1.722c0,0.26,0.064,0.521,0.064,0.812c0.194-0.065,2.796,0.032,3.282,0.032
		c1.43,0,2.86-0.032,4.29-0.032c0.163,0,0.325,0,0.325,0.228c0,0.325-1.755,3.315-2.015,3.608l0.031-0.033
		c-1.853,3.12-3.705,6.24-5.558,9.393c-0.065,0.195-0.357,0.617-0.357,0.846v2.925c0,0.325-0.064,0.488,0.292,0.488
		c0.65,0,1.269-0.099,1.918-0.099h8.873c0.487,0,0.942,0.032,1.431,0.032c0.194,0,0.098-0.682,0.098-0.812
		c0-0.683,0.032-1.333,0.032-2.015c0-0.13,0.032-0.292,0.032-0.422c0-0.228,0-0.357-0.261-0.357c-1.43,0-2.893,0.099-4.354,0.099
		h-2.146c-0.26,0-1.203,0.097-1.203-0.325C83.314,79.874,90.271,68.237,91.115,66.84z M80.552,67.1
		c-0.487,0-0.942-0.064-1.397-0.064c-0.064,0-0.13,0.032-0.194,0.032c0.292,0.261,0.585,0.521,0.877,0.812
		c0.392,0.163,4.648,0.163,5.33,0.163c0.325,0,0.455-0.585,0.586-0.812C83.997,67.003,82.307,67.1,80.552,67.1z M87.995,84.456
		h-6.013c-0.91,0-1.788,0.097-2.73,0l-0.063,0.064c0.39,0.357,0.648,0.846,1.201,0.846c1.788,0,3.543,0.031,5.33,0.031h2.243
		c1.462,0,2.925-0.031,4.388-0.031c-0.13-0.065-0.683-0.65-0.846-0.846C91.44,84.487,88.58,84.456,87.995,84.456z M84.549,79.905
		h1.105c0.032,0,0.063-0.031,0.098-0.031c1.007-1.983,6.825-11.44,6.825-11.733c0-0.097-0.943-0.877-1.073-1.007l-0.292,0.553
		c-0.748,1.462-1.689,2.925-2.535,4.355c-1.396,2.438-2.795,5.038-4.354,7.345l0.032-0.033l-0.194,0.358
		C84.16,79.938,84.419,79.905,84.549,79.905z M91.667,63.46c0.13,0.585,0.098,1.365,0.098,1.95c0,0.324-0.098,0.649-0.098,0.975
		s0.78,1.138,1.007,1.203v-3.153L91.667,63.46z M91.732,84.034c0.194,0.39,0.716,0.746,1.008,1.04v-0.716
		c0-0.845-0.032-1.689-0.032-2.534c0-0.065-0.78-0.812-0.91-0.942c-0.031,0.52-0.064,1.073-0.064,1.592v0.943L91.732,84.034
		L91.732,84.034z"/>
	<path fill="#2F5EA9" stroke="#2F5EA9" stroke-width="0.2" stroke-miterlimit="10" d="M110.096,67.652
		c0,0.391-0.031,0.877-0.553,0.877c-0.585,0-1.17,0.033-1.755,0.033c-1.657,0-3.315-0.064-4.973-0.064
		c-0.195,0.649-0.065,1.788-0.065,2.373c0,0.13,0.065,0.194,0.195,0.194c1.008,0,2.048-0.064,3.088-0.064
		c0.26,0,0.585,0.032,0.812,0.163c0.131,0.064,0.229,0.26,0.325,0.356c0.487,0.422,1.364,1.007,1.364,1.755
		c0,0.846-0.032,1.724-0.032,2.568c0,0.195,0.032,0.39,0.032,0.585c-0.032,0.942-1.462,0.683-2.146,0.683
		c-0.909,0-3.38-0.13-3.641,0.032v0.195l-0.032,2.34c0,0.065,0,0.26,0.065,0.325l0.292-0.033c0.976,0,5.136-0.163,5.525,0.229
		c0.324,0.324,0.616,0.649,0.941,0.941s0.553,0.488,0.553,0.943c-0.031,1.007,0.032,2.047,0.032,3.055
		c0,0.78-0.39,0.812-1.072,0.812h-6.208c-1.43,0-2.826-0.033-4.258-0.033c-0.228,0-0.422-0.065-0.585-0.229l-0.617-0.617
		c-0.455-0.454-0.845-0.715-0.845-1.397c0-1.235,0.032-2.47,0.032-3.705c0-0.325-0.065-0.65-0.065-0.975
		c0-0.617,0.065-1.235,0.065-1.854V64.693c0-0.617-0.391-2.145,0.617-2.145h8.482c0.779,0,1.561,0.032,2.34,0.032
		c0.65,0,2.08,1.56,2.08,2.21v2.861H110.096z M108.178,63.362c0.033-0.162,0-0.26-0.063-0.26c-3.607,0-7.216-0.032-10.823-0.032
		c-0.13,0-0.26,0.065-0.26,0.229c-0.065,1.592,0.032,6.11-0.032,11.439c-0.033,1.171,0,7.216,0,7.216l0.032,1.787
		c0,0.26,0.228,0.26,0.423,0.26c0.845-0.033,1.722,0.033,2.566,0.033h7.379c0.26,0,0.552,0.031,0.778,0
		c0.033-0.131,0.033-0.261,0.033-0.391c0-0.715-0.098-1.43-0.098-2.113c0-0.324,0.063-0.616,0.063-0.845
		c-0.031-0.194-0.552-0.228-0.747-0.228h-5.266c-0.39,0-0.747,0.064-1.138,0c-0.261-0.325-0.194-3.38-0.194-3.673
		c0-0.357-0.195-1.69,0.455-1.69c1.688,0,3.38,0.097,5.037,0.097c0.098,0,0.163-0.031,0.228-0.064
		c0.033-0.065,0.033-0.13,0.033-0.195v-3.218c0-0.13-0.228-0.162-0.325-0.162c-1.723,0-3.478,0.065-5.2,0.065
		c-0.13-0.065-0.228-0.195-0.228-0.358V68.82c0-0.649-0.033-1.43,0.064-2.079c0.064-0.195,0.812-0.131,1.04-0.131h4.421
		c0.356,0,1.656,0.163,1.818-0.163C108.178,66.45,108.146,65.053,108.178,63.362z M106.651,84.553c-2.242,0-4.485-0.032-6.729-0.032
		c-0.812,0-1.657,0.032-2.47-0.033c0.097,0.065,0.162,0.099,0.26,0.163c0.325,0.229,0.553,0.78,1.007,0.78
		c2.99-0.064,5.98,0,8.972,0c0.325,0,0.683,0,1.008-0.033h-0.032c0.13-0.031,0.292-0.031,0.422-0.031
		c-0.26-0.261-0.553-0.618-0.845-0.846C107.789,84.456,107.106,84.553,106.651,84.553z M101.386,80.067
		c0.324-0.13,0.585-0.064,0.909-0.13V79.71c0-0.78-0.032-1.593-0.032-2.405c0-0.422-0.648-1.104-0.909-1.365
		c-0.064,0.455,0,2.99,0,4.063L101.386,80.067z M101.873,71.033c0.13,0,0.292,0.064,0.422,0.064c-0.13-1.689,0-2.146-0.032-2.568
		c-0.13-0.26-0.324-0.52-0.877-1.039c0,1.202-0.033,2.404-0.033,3.607C101.516,71.098,101.71,71.033,101.873,71.033z
		 M102.101,75.647c-0.293-0.031-0.553,0-0.553,0l0.032,0.033c0.391,0.229,0.618,0.942,1.203,0.942c1.56,0,3.217-0.163,4.776-0.032
		c-0.13-0.13-0.779-0.943-0.878-0.943C105.513,75.647,103.011,75.875,102.101,75.647z M106.326,67.166
		c-1.527,0-3.25,0.13-4.745-0.065c0.26,0.229,0.487,0.391,0.715,0.618c0.195,0.195,0.261,0.195,0.392,0.292h0.747h5.753
		c-0.261-0.292-0.521-0.65-0.846-0.877C107.821,67.133,106.781,67.166,106.326,67.166z M107.529,75.647
		c0.193,0.261,0.422,0.455,0.617,0.684l-0.099-0.163c0-1.072-0.032-2.112-0.032-3.186l-0.715-0.649l-0.228-0.357v3.283
		C107.138,75.354,107.529,75.583,107.529,75.647z M108.699,65.93c0,0.748-0.26,0.455,0.325,1.073
		c0.193,0.195,0.356,0.39,0.552,0.552v-2.893c0-0.292-0.683-0.877-0.942-1.203C108.699,64.272,108.699,65.085,108.699,65.93z
		 M109.576,85.074v-3.023c0-0.26-0.683-0.91-0.942-1.203c0.099,1.105,0.033,2.21,0.033,3.315
		C108.894,84.456,109.284,84.812,109.576,85.074z"/>
	<path fill="#2F5EA9" stroke="#2F5EA9" stroke-width="0.2" stroke-miterlimit="10" d="M127.224,77.306
		c-0.26,0.553-0.941,1.528-1.494,1.788c-0.163,0.065-0.293,0.13-0.424,0.26c0.229,0.325,2.698,5.98,2.698,6.078
		c0,0.455-0.455,0.552-0.812,0.552c-0.847,0-1.69-0.064-2.535-0.064c-1.69,0-1.203,0.163-2.438-1.072
		c-0.261-0.26-0.487-0.455-0.683-0.748c-0.521-0.878-1.073-2.08-1.396-3.055c-0.033-0.13-0.195-0.812-0.325-0.812h-0.554
		c-0.031,0.065-0.031,0.13-0.031,0.195c0,0.228,0.063,0.488,0.063,0.748v1.56l-0.032,1.397c0,0.52,0.261,1.82-0.616,1.82
		c-0.293,0-3.575,0.163-3.998-0.261l-0.554-0.552c-1.3-1.268-1.039-1.3-1.039-3.022V65.282c0-0.357,0.031-0.684,0.031-1.04
		c0-0.618-0.26-1.69,0.65-1.69c1.3,0,2.567-0.033,3.868-0.033h1.917c1.723,0,2.828,0.033,4.388,0.846
		c0.65,0.324,1.072,1.007,1.593,1.494c1.854,1.723,2.34,2.828,2.34,5.396C127.841,72.234,128.037,75.583,127.224,77.306z
		 M124.787,76.493c1.104-1.365,0.877-2.634,1.138-4.193c-0.131-0.422-0.033-0.942-0.033-1.397c0-2.177,0.293-3.705-0.812-5.524
		h0.033c-1.95-2.763-4.682-2.34-7.735-2.34h-2.665c-0.228,0-1.104-0.032-1.138,0.194c-0.13,1.561,0.032,4.453,0.032,6.144
		c0,4.745-0.032,9.522-0.032,14.268c0,0.098,0,0.229,0.032,0.325v-0.032c0.064,0.099,0.194,0.13,0.293,0.13
		c0.941,0,1.885-0.064,2.827-0.064c0.161,0,0.292,0,0.455-0.033l0.13,0.033h0.031v-5.104c0-0.423,0.065-0.617,0.554-0.617h1.333
		c0.356,0,0.39,0.292,0.486,0.553c0.099,0.292,0.261,0.52,0.357,0.812v-0.033c0.617,1.397,1.235,2.796,1.885,4.193
		c0.065,0.162,0.229,0.195,0.392,0.195h3.25c0.098,0,0.228,0,0.324-0.033l0.098-0.065c0-0.162-0.877-1.853-0.909-1.949l-0.033-0.099
		l-0.194-0.455l-0.098-0.194c-0.229-0.325-0.357-0.813-0.521-1.17l0.033,0.032c-0.098-0.13-0.163-0.228-0.194-0.39v0.033
		c-0.13-0.391-0.78-1.561-0.78-1.854C123.324,77.598,124.429,76.947,124.787,76.493z M117.051,84.487
		c-0.521,0-1.04,0.065-1.561,0.065c-0.39,0-0.779-0.097-1.17-0.097c-0.064,0-0.162,0-0.229,0.031c0.325,0.325,0.846,0.943,1.3,0.943
		c1.04,0,2.08-0.033,3.089-0.033C117.961,84.976,117.734,84.487,117.051,84.487z M122.187,71.846c0,2.762-1.854,2.665-3.966,2.665
		c-0.26,0-0.941,0-1.104-0.228v-6.924c0-0.683,1.203-0.553,1.723-0.553C122.641,66.808,122.187,68.692,122.187,71.846z
		 M117.668,74.088c0.065-0.065,0.845-0.032,0.91-0.032c0.162,0,0.195-0.064,0.195-0.228l0.031-2.016c0-0.975-0.031-1.981-0.031-2.99
		c0-0.228-0.977-0.941-1.17-1.137c0.161,0.455,0.13,5.525,0,6.337L117.668,74.088z M117.831,83.772
		c-0.033,0.357,0.715,0.91,0.942,1.203v-4.81c0-0.099-0.033-0.195-0.065-0.261c-0.13-0.064-0.423-0.228-0.455-0.356
		c-0.13-0.163-0.292-0.422-0.455-0.521l0.033,0.032c0,1.431,0.064,2.894,0.064,4.323C117.896,83.513,117.864,83.644,117.831,83.772z
		 M117.961,67.263l-0.033,0.065c0.065-0.065,0.293,0.098,0.357,0.13h-0.032c0.391,0.292,0.618,0.845,1.105,0.845h2.08
		C120.854,67.166,119.001,67.393,117.961,67.263z M118.286,78.735h-0.194c0,0.099,1.04,1.008,1.234,1.008h0.228
		C119.001,78.931,119.489,78.735,118.286,78.735z M121.633,72.234v-3.021c0-0.13-0.032-0.26-0.032-0.391
		c-0.13-0.064-1.625-0.064-1.949-0.064h-0.325c-0.064,0.098-0.097,0.228-0.097,0.325c0,1.203,0.063,2.404,0.063,3.606
		c0,0.292-0.032,0.521,0,0.812c-0.032,0.098-0.063,0.423-0.032,0.52C120.463,74.056,121.633,73.666,121.633,72.234z M126.248,84.521
		c-1.202,0-2.47,0.065-3.672-0.033c0.292,0.229,0.648,0.812,0.975,0.91c0.13,0.033,1.982,0.033,2.405,0.033h1.268
		C126.964,85.171,126.476,84.812,126.248,84.521z M127.354,70.545c0-1.625-0.229-3.25-1.365-4.519
		c0.293,0.812,0.423,1.69,0.423,2.567c0,1.365,0.032,2.763,0.032,4.128c0,2.015-0.684,4.062-2.471,5.2
		c0.064,0.064,0.131,0.163,0.229,0.195c0.26,0.194,0.487,0.487,0.747,0.715l0.032,0.13
		C127.777,77.598,127.354,73.112,127.354,70.545z M124.689,79.418c-0.099-0.13-0.195-0.292-0.325-0.391v-0.032
		c-0.032,0-0.032-0.032-0.064-0.065l0.064,0.098l0.098,0.163v-0.032c0.845,1.268,1.527,4.192,2.535,5.232
		c-0.065-0.585-1.854-4.128-2.275-4.973H124.689L124.689,79.418z"/>
	<path fill="#2F5EA9" stroke="#2F5EA9" stroke-width="0.2" stroke-miterlimit="10" d="M135.057,62.745
		c0.554,0.064,1.495,1.17,1.886,1.56c0.194,0.195,0.163,0.455,0.163,0.683c0,3.479,0.063,6.924,0.063,10.4
		c0,1.527-0.063,3.022-0.063,4.55c0,0.065,0.031,0.13,0.097,0.13c0.553,0,5.2-0.163,5.623,0.163
		c0.293,0.229,0.553,0.521,0.812,0.812c0.748,0.779,0.812,0.715,0.812,1.788c0,0.616-0.032,1.234-0.032,1.853
		c0,1.69-0.13,1.43-1.593,1.43h-6.987c-0.878,0-1.788-0.098-2.665-0.032c-0.846,0.064-1.234-0.748-1.756-1.269
		c-0.194-0.194-0.356-0.292-0.52-0.52V65.02c0-1.365-0.455-2.308,1.234-2.308h2.146C134.537,62.712,134.797,62.712,135.057,62.745z
		 M142.499,81.206v-0.554c-0.845-0.064-1.657-0.098-2.438-0.098h-3.022c-1.17,0-1.95,0.521-1.95-0.877
		c0-3.998,0.099-7.963,0.099-11.96v-4.323c-0.065-0.13-0.229-0.162-0.357-0.162c-1.072,0-2.21-0.064-3.282,0
		c-0.131,0-0.131,0.228-0.131,0.325c0,0.65,0.033,1.269,0.033,1.917c0,5.233-0.065,10.465-0.065,15.698
		c0,0.941-0.063,2.08,0.099,2.99c0.649,0.163,1.56,0.031,2.242,0.031c1.756,0,3.478-0.031,5.199-0.031
		c1.203,0,2.373,0.064,3.543-0.033C142.467,83.155,142.499,82.181,142.499,81.206z M134.764,85.593h8.873
		c-0.063-0.032-0.812-0.78-0.941-0.91c-2.697,0-5.362,0.097-8.062,0c-0.877-0.033-1.853,0.163-2.729,0
		c0.486,0.39,0.683,0.942,1.363,0.942c0.132,0,0.294-0.033,0.455-0.033C134.081,85.527,134.407,85.593,134.764,85.593z
		 M136.584,64.76c0-0.13-0.845-0.942-0.942-1.008c-0.098,1.04,0.065,2.698,0.065,3.575c0,4.226-0.033,8.482-0.033,12.708
		c0.163,0.064,0.325,0.064,0.455,0.064s0.357,0,0.455-0.064c-0.032-0.585,0.065-1.235,0.065-1.82c0-3.575-0.131-7.021-0.099-10.596
		L136.584,64.76z M143.93,84.456c0-0.78,0-1.528-0.032-2.309c0-0.325-0.649-0.91-0.942-1.138c0.195,0.943,0.033,2.243,0.033,3.185
		l0.032,0.033c0,0.032,0.779,0.877,0.877,0.91C143.897,84.911,143.93,84.65,143.93,84.456z"/>
	<path fill="#2F5EA9" stroke="#2F5EA9" stroke-width="0.2" stroke-miterlimit="10" d="M144.873,83.871
		c0-0.13,1.397-5.038,1.56-5.688c0.879-3.478,1.82-6.923,2.764-10.368c0.423-1.527,0.748-3.088,1.203-4.614
		c0.228-0.748,0.616-0.716,1.332-0.716c1.104,0,2.21,0.032,3.314,0.032c0.357,0,1.854,1.561,1.95,1.885l0.195,0.65
		c0.52,1.853,0.941,3.77,1.462,5.655c0.846,3.087,1.625,6.175,2.471,9.263c0.455,1.593,0.909,3.153,1.3,4.745v-0.032
		c0.064,0.163,0.13,0.487,0.13,0.65c0,0.585-0.521,0.585-0.941,0.585c-1.008,0-2.048,0.033-3.057,0.033
		c-0.486,0-0.648-0.261-0.975-0.585c-1.268-1.333-1.333-1.398-1.723-3.12c-0.099-0.358-0.229-0.748-0.261-1.105l-0.098-0.032
		c-0.032,0.032-2.894,0.065-3.187,0c-0.356,1.17-1.039,3.219-1.17,4.42c-0.161,0.358-0.715,0.391-1.039,0.391h-3.219
		C146.466,85.918,144.873,84.293,144.873,83.871z M160.409,84.034c0.064,0,0.163,0,0.228-0.033c-0.812-2.73-1.462-5.525-2.21-8.255
		v0.032c-0.356-1.397-0.778-2.795-1.071-4.192v0.033c-0.617-2.698-1.527-5.525-2.21-8.256c-0.032-0.13-0.099-0.26-0.229-0.324
		c-1.268,0-2.535-0.032-3.771-0.032c-0.228,0-0.26,0.455-0.291,0.617c-0.262,1.917-1.009,4.388-1.658,6.239
		c-0.391,1.139-0.585,2.309-0.942,3.445c-0.78,2.535-1.268,5.135-2.048,7.67c-0.292,0.942-0.422,2.08-0.779,2.958
		c0.032,0,0.064,0.032,0.099,0.032c1.04,0,2.047,0.033,3.087,0.033c0.423,0,0.585,0,0.683-0.422
		c0.229-1.139,0.553-2.243,0.846-3.349c0.064-0.292,0.13-0.683,0.228-0.942c0.033-0.13,0.195-0.13,0.293-0.13
		c1.463,0,3.088,0.162,4.55,0.032c0.553-0.064,0.488,0.229,0.585,0.617l0.488,1.788c0.162,0.553,0.26,1.105,0.455,1.658
		c0.097,0.228,0.031,0.715,0.356,0.715c0.649,0,1.269,0.033,1.917,0.033C159.466,84.001,159.954,84.034,160.409,84.034z
		 M148.644,84.423c-0.942,0-1.819,0.033-2.796,0l0.392,0.356c0.098,0.195,0.648,0.65,0.845,0.65c0.976,0,1.95-0.065,2.925-0.065
		C149.293,85.008,149.489,84.423,148.644,84.423z M150.789,79.938c-0.032,0.391-1.008,4.062-1.104,4.257v0.131
		c0.293,0.292,0.617,0.682,0.942,0.941c0.194-0.488,1.138-4.29,1.138-4.354C151.537,80.783,150.854,80.101,150.789,79.938z
		 M155.079,79.646c-0.942,0-1.917,0.098-2.859,0.098c-0.324,0-0.716-0.098-1.04-0.032c0.292,0.228,0.812,0.975,1.234,0.975
		c0.163,0,0.325-0.098,0.521-0.098c0.684,0,1.527,0.195,2.471,0.064c0-0.032,0.031-0.064,0.031-0.098
		c0-0.292-0.161-0.552-0.161-0.812v-0.032C155.208,79.678,155.144,79.646,155.079,79.646z M151.407,75.616
		c0-0.163,0.162-0.78,0.227-0.91v-0.099c0.065-0.26,1.105-4.484,1.333-4.776l0.357,0.91v-0.032c0.098,0.26,1.04,3.314,1.04,3.672
		c0.13,0.325,0.26,0.78,0.26,1.138c0,0.099,0,0.292-0.13,0.292c-0.162,0-0.325-0.097-0.487-0.097c-0.585,0-1.138-0.033-1.723-0.033
		c-0.229,0-0.455,0.098-0.684,0.098C151.439,75.681,151.407,75.647,151.407,75.616z M152.056,75.258c0.163,0,0.879,0.032,1.04,0.032
		c0.325,0,0.261-0.391,0.357-0.715c0.033-0.131,0.228-0.618,0.228-0.748c0-0.391-0.553-1.82-0.683-2.243
		c-0.032,0.13-0.975,3.575-0.975,3.64L152.056,75.258z M153.941,75.291l0.163-0.099l-0.163-0.324
		c-0.064,0.098-0.098,0.26-0.13,0.356L153.941,75.291z M161.904,84.812c-0.13-0.845-0.521-1.593-0.649-2.404v0.032
		c-0.618-2.566-4.647-17.843-4.777-17.973V64.5c-0.194-0.292-0.487-0.521-0.747-0.748c0.228,0.423,0.228,0.845,0.356,1.268
		l0.617,2.113c0.098,0.39,0.13,0.78,0.261,1.17c0.13,0.423,0.292,0.683,0.324,1.138c0.098,1.04,0.78,2.795,1.04,3.835
		c0.943,3.608,1.918,7.184,2.893,10.791C161.449,84.326,161.644,84.553,161.904,84.812z M160.474,84.423
		c-0.941,0-1.918,0.064-2.893,0.064l-0.229-0.097c0.162,0.422,0.879,1.007,1.397,1.007c0.325,0,0.65-0.098,0.976-0.064
		c0.683,0.064,1.397,0.098,2.08,0.098h0.064C161.254,85.074,161.221,84.423,160.474,84.423z M161.904,84.846
		c0.033,0,0.033,0.032,0.064,0.032C161.938,84.846,161.938,84.846,161.904,84.846z"/>
	<path fill="#2F5EA9" stroke="#2F5EA9" stroke-width="0.2" stroke-miterlimit="10" d="M179.259,64.143
		c0.163,0.195,0.195,0.455,0.195,0.715v20.021c0,0.228-0.032,0.715-0.195,0.91c-0.162,0.163-0.553,0.163-0.747,0.163
		c-1.04,0-2.048-0.033-3.056-0.033c-0.617,0-2.015-1.3-2.145-1.69c-0.294-0.748-2.309-5.103-2.373-5.362l-0.099-0.229
		c-0.162-0.292-0.292-0.52-0.39-0.845c0,1.007,0.063,1.981,0.063,2.99c0,0.845-0.063,1.657-0.063,2.503
		c0,0.585,0.063,1.17,0.063,1.755c0,0.779-0.323,0.941-1.071,0.941c-0.487,0-1.009-0.064-1.527-0.064
		c-0.229,0-1.657,0.098-1.787,0.033c-0.391-0.131-1.689-1.561-1.788-1.756c-0.064-0.161-0.098-5.037-0.098-5.623
		c0-0.324,0.032-0.617,0.032-0.941V64.89c0-0.617-0.324-2.34,0.617-2.34h3.412c0.195,0,0.392,0,0.585,0.065l1.463,1.462
		c0.391,0.356,1.724,3.737,2.146,4.713c0.194,0.486,0.39,1.104,0.715,1.526c0-2.242-0.032-4.484-0.064-6.728
		c0-0.585,0.13-1.04,0.812-1.04c0.229,0,0.683,0.032,0.878,0c0.812-0.163,1.495,0,2.308,0
		C177.894,62.55,178.772,63.558,179.259,64.143z M173.702,71.391c0,0.357,0.032,2.275-0.162,2.405c-0.13,0-0.228-0.13-0.293-0.195
		c-0.26-0.292-2.795-6.208-2.99-6.728l-0.975-2.373l-0.553-1.268c-0.065-0.13-0.293-0.163-0.391-0.163h-2.926
		c-0.194,0-0.422,0.032-0.617,0.032c-0.162,1.269,0,3.641,0,5.005c0,2.243-0.032,4.485-0.032,6.729v8.774
		c0,0.131,0.032,0.325,0.099,0.424c0.779,0.13,2.925-0.195,3.606,0.031c0.064-0.098,0.099-0.228,0.099-0.324
		c0-1.82-0.033-3.607-0.033-5.429c0-1.234,0.13-2.502,0.033-3.736c-0.033-0.261-0.163-1.397,0.26-1.397
		c0.292,0,0.455,0.682,0.553,0.877c0.292,0.552,1.072,2.405,1.332,2.894l-0.032-0.033c0.424,0.715,0.617,1.56,0.976,2.308
		c0.716,1.528,1.301,2.698,1.95,4.258l0.163,0.391c0.063,0.163,0.193,0.163,0.39,0.163h3.186c0.292-0.033,0.162-1.04,0.162-1.464
		V63.362c0-0.098-0.13-0.292-0.26-0.292h-1.788c-0.422,0-1.755-0.032-1.755,0.163L173.702,71.391L173.702,71.391z M165.317,84.521
		c0.747,0.748,0.617,0.877,1.526,0.91l2.405,0.065l0.357-0.033c-0.033-0.097-0.521-0.455-0.585-0.552
		c-0.065-0.065-0.229-0.391-0.358-0.391H165.317z M169.997,85.041V81.53c0-1.462-0.065-2.957-0.065-4.42
		c0-0.098,0.033-0.487,0-0.553c-0.228-0.455-0.453-0.91-0.648-1.396c-0.032-0.131-0.13-0.292-0.229-0.455
		c0,0.585,0.032,1.203,0.032,1.917c0,2.373-0.098,4.713-0.098,7.085C168.989,84.423,169.574,84.553,169.997,85.041z M170.289,65.604
		c0.975,1.95,1.787,3.965,2.632,5.948c0.13,0.325,0.163,0.715,0.325,1.04v-0.229c0-0.194,0.032-0.454-0.032-0.683
		c-0.098-0.356-0.423-0.943-0.585-1.3c-0.846-1.917-1.463-3.803-2.471-5.655l-0.097-0.228l-0.358-0.292L170.289,65.604z
		 M177.472,84.521c-0.487,0-3.088,0.099-3.282-0.098l0.032,0.064l0.779,0.684l0.163,0.163c0.13,0.098,0.325,0.13,0.487,0.13
		c0.941,0,1.918-0.032,2.859-0.032C178.285,85.235,177.83,84.521,177.472,84.521z M178.935,64.533c0-0.099-0.846-0.976-1.008-1.008
		c0.064,0.098,0.098,0.292,0.098,0.422v19.696c0,0.13-0.032,0.26-0.032,0.422c0.356,0.487,0.878,1.139,0.976,0.976
		c0-0.391-0.064-0.65-0.064-0.91c0-1.007-0.032-2.015-0.032-3.022V70.773C178.87,68.692,178.935,66.612,178.935,64.533z"/>
	<path fill="#2F5EA9" stroke="#2F5EA9" stroke-width="0.2" stroke-miterlimit="10" d="M183.908,84.878l-0.487-0.521
		c-0.423-0.422-0.293-2.015-0.293-2.665c0-3.185,0.098-6.402,0.098-9.588c0-0.39-0.064-0.779-0.064-1.17v-7.41
		c0-0.878,0.229-0.975,1.073-0.975h5.85c3.738,0,4.843-0.098,7.443,2.502c0.356,0.357,0.845,0.715,1.17,1.138
		c0.39,0.521,0.683,1.105,0.877,1.723c0.553,1.625,0.293,5.069,0.293,6.891c0,1.495,0.032,2.99,0.032,4.453
		c0,4.42-2.535,6.663-6.857,6.663c-2.34,0-4.681,0.033-7.021,0.033C184.622,85.951,184.915,85.951,183.908,84.878z M197.851,69.213
		c0-4.908-2.763-6.175-7.149-6.175c-2.341,0-4.647,0.064-6.988,0.064c0,0.391-0.032,0.812-0.032,1.203v2.308
		c0,0.487,0.065,0.976,0.065,1.495c0,1.917-0.065,3.868-0.065,5.785v10.01c0,0.065,0,0.099,0.065,0.131
		c0.13,0,0.26-0.033,0.39-0.065c0.325,0.098,0.846,0.065,1.202,0.065c0.585,0,1.17-0.065,1.755-0.065c1.918,0,4.03,0.26,5.916-0.065
		h-0.033c0.262-0.064,0.521-0.097,0.78-0.13c1.072-0.194,2.146-0.941,2.86-1.723c1.138-1.235,1.332-3.283,1.332-4.908
		C197.948,74.511,197.851,71.846,197.851,69.213z M198.826,82.147c0.325-0.91,0.649-2.112,0.649-3.055
		c0-0.292-0.13-0.553-0.13-0.812c0-2.502,0.292-6.824-0.131-9.359c-0.13-0.715-0.356-1.203-0.585-1.885v0.032
		c-0.162-0.324-0.356-0.649-0.617-0.909c0.487,1.593,0.455,6.532,0.455,8.287v3.705c0,3.673-2.535,6.37-6.271,6.37h-7.378
		c-0.229,0-0.455-0.033-0.684-0.033c0.585,0.586,0.846,0.976,1.724,0.976c1.625,0,3.281-0.065,4.906-0.097
		c0.164,0,0.325,0.064,0.487,0.064C194.146,85.431,197.656,85.463,198.826,82.147z M194.308,71.779c0,0.358-0.064,0.748-0.064,1.105
		v3.38c0,0.325,0.033,0.65,0.033,0.976c-0.033,1.657-1.82,3.282-3.445,3.218c-0.585-0.033-1.138,0.032-1.723,0.032
		c-0.617,0-1.527,0.228-1.594-0.553c-0.13-1.463-0.031-3.478-0.031-5.069v-6.565c0-1.592-0.357-1.723,1.268-1.723h1.917
		C194.081,66.58,194.308,69.083,194.308,71.779z M188.88,72.234c0-1.3,0.065-2.566,0-3.867c0-0.065-0.812-0.942-0.91-1.072
		c0.163,0.941,0.032,1.981,0.032,2.925v9.718c0.261,0,0.488,0.032,0.716,0.032h0.194v-0.163c0-0.617-0.064-1.268-0.064-1.917
		c0-0.942,0.099-1.885,0.099-2.828C188.946,74.121,188.88,73.178,188.88,72.234z M193.106,68.107
		c-0.748-0.845-1.756-1.008-2.86-1.008h-1.755c-0.033,0-0.065,0-0.065,0.033l0.845,0.877h0.554
		C190.928,68.01,192.033,67.88,193.106,68.107z M190.343,79.905c1.332,0,2.697-0.324,3.152-1.723
		c0.064-0.195,0.229-0.649,0.229-0.845c0-2.146,0.031-4.258,0.031-6.403c0-0.618,0-1.333-0.162-1.917
		c-0.194-0.618-2.926-0.52-3.543-0.52H189.4c-0.032,0.422-0.032,0.941-0.032,1.364c0,2.21,0.098,4.421,0.098,6.599v2.859
		c0,0.229-0.064,0.423-0.098,0.65c0.032,0,0.098,0.033,0.13,0.033C189.79,80.003,190.05,79.905,190.343,79.905z"/>
</g>
<g>
	<path fill="#FFFFFF" d="M40.922,21.228c1.897-1.17,3.062-3.118,3.03-5.17c-0.041-1.291-0.84-2.724-1.624-3.581
		c-0.954-0.992-2.288-1.584-3.463-2.062c-1.166-0.475-2.483-0.703-4.029-0.703c-1.112,0-2.243,0.118-3.295,0.245
		c-2.539,0.286-4.951,1.562-6.794,3.599c-0.858,0.971-1.423,1.951-1.824,3.156c-0.494,1.254-0.494,2.103-0.494,3.508
		c0,1.993,1.22,4.244,3.54,4.691c0.599,0.126,1.222-0.125,1.484-0.601c0.209-0.376,0.179-0.837-0.088-1.267
		c-0.311-0.496-0.827-0.668-1.283-0.819c-0.228-0.076-0.444-0.146-0.58-0.238c-1.188-0.856-0.855-3.527-0.258-5.062
		c1.344-3.408,5.281-4.96,8.638-5.001c-1.061,1.567-1.54,3.575-2.005,5.526c-0.214,0.897-0.417,1.746-0.674,2.559
		c-0.231,0.768-0.443,1.538-0.655,2.307c-0.554,2.011-1.079,3.917-1.923,5.754c-1.993-1.499-4.306-2.014-6.248-1.365
		c-2.404,0.771-3.716,2.957-3.121,5.188c0.48,1.885,2.535,2.771,4.354,2.812l0.174,0.003c1.884,0,3.824-1.04,5.279-2.81
		c0.649,0.612,1.454,1.262,2.354,1.604c1.19,0.475,2.391,0.815,3.487,0.986c2.405,0.3,4.832-0.433,6.618-1.996
		c1.756-1.558,2.686-3.877,2.429-6.049C43.709,24.166,42.667,22.38,40.922,21.228z M36.168,32.243c-1.321,0-2.526-0.285-3.498-0.831
		c-1.028-0.533-1.748-1.062-2.237-1.644c0.507-0.99,0.941-1.924,1.304-2.8c0.388-1.094,0.789-2.225,1.047-3.439
		c0.243-1.351,0.594-2.642,0.966-4.009c0.213-0.781,0.427-1.568,0.62-2.366c0.188-0.711,0.446-1.344,0.719-2.015
		c0.121-0.297,0.244-0.599,0.355-0.896l0.083-0.197c0.27-0.644,0.548-1.306,1.14-1.527c0.562-0.226,1.502,0.169,2.194,0.491
		l0.214,0.099c0.812,0.389,1.483,0.954,1.887,1.587c0.415,0.679,0.522,1.574,0.294,2.462c-0.241,0.938-0.83,1.754-1.578,2.182
		c-0.686,0.399-1.55,0.493-2.386,0.582l-0.377,0.037c-0.462,0.033-1.16,0.083-1.521,0.653c-0.161,0.275-0.201,0.574-0.115,0.862
		c0.103,0.346,0.379,0.646,0.777,0.844c0.451,0.227,0.854,0.188,1.216,0.169c0.194-0.008,0.355-0.026,0.609,0.021
		c0.472,0.055,0.931,0.247,1.427,0.601c0.938,0.599,1.587,1.218,1.928,1.846c0.974,1.757,0.283,3.438-0.215,4.283
		C39.963,31.036,38.013,32.243,36.168,32.243z M27.432,30.126c-0.823,1.771-2.826,2.156-3.976,2.223
		c-1.275,0.072-1.935-0.464-1.934-1.676c0-1.545,1.891-1.712,2.703-1.712C25.188,28.961,26.843,29.44,27.432,30.126z"/>
	<path fill="#FFFFFF" d="M93.081,19.693c0.633,0,1.396-0.383,1.64-1.459c0.146-0.657-0.067-1.103-0.273-1.357
		c-0.318-0.396-0.856-0.635-1.44-0.635c-0.767,0-1.38,0.395-1.563,1.008c-0.188,0.651-0.094,1.272,0.266,1.752
		C92.035,19.435,92.548,19.693,93.081,19.693z"/>
	<path fill="#FFFFFF" d="M104.167,21.654c0.151-0.188,0.308-0.523,0.193-1.043c-0.173-0.797-1.178-0.797-1.604-0.797
		c-0.235,0-0.492,0.013-0.752,0.023c-0.428,0.02-0.889,0.034-1.208,0.006c0.062-0.22,0.127-0.437,0.188-0.637
		c0.073-0.245,0.141-0.468,0.174-0.606c0.211-0.637,0.412-1.237,0.694-1.773c0.407-0.65,1.189-1.411,2.057-1.411
		c0.25,0,0.498,0.065,0.726,0.191c0.083,0.048,0.183,0.138,0.287,0.231c0.263,0.233,0.587,0.528,1.05,0.528
		c0.15,0,0.302-0.033,0.451-0.1c0.497-0.221,0.624-0.588,0.655-0.786c0.076-0.482-0.223-0.948-0.521-1.215
		c-0.779-0.738-1.652-1.112-2.595-1.112c-2.244,0-4.16,2.118-4.823,4.105c-0.246,0.709-0.578,1.78-0.808,2.562
		c-0.149,0.012-0.315,0.004-0.619-0.024c-0.179-0.023-0.356-0.047-0.521-0.047c-0.83,0-1.077,0.586-1.148,0.925
		c-0.104,0.451-0.047,0.818,0.17,1.091c0.343,0.433,0.954,0.433,1.155,0.433c0.175,0,0.354-0.015,0.524-0.028
		c-0.086,0.377-0.213,0.812-0.301,1.113l-0.087,0.3c-0.164,0.534-0.271,1.074-0.373,1.597c-0.081,0.41-0.161,0.818-0.266,1.208
		c-0.135,0.454-0.254,0.909-0.372,1.359c-0.129,0.496-0.258,0.987-0.408,1.479c-0.122,0.417-0.225,0.842-0.32,1.27
		c-0.041,0.066-0.071,0.132-0.119,0.2c-0.336,0.533-0.859,0.988-1.547,1.353c-0.295,0.15-0.573,0.227-0.828,0.227
		c-0.936,0-1.308-1.01-1.424-1.442c-0.294-1.108-0.031-2.129,0.245-3.21c0.12-0.473,0.246-0.96,0.331-1.474
		c0.155-0.89,0.379-1.789,0.597-2.658c0.179-0.719,0.356-1.434,0.502-2.153c0.072-0.393,0.003-0.962-0.318-1.35
		c-0.344-0.413-0.903-0.475-1.393-0.132c-0.524,0.362-0.69,1.047-0.823,1.6c-0.026,0.104-0.051,0.207-0.085,0.329
		c-0.207,0.972-0.631,2.718-0.955,4.049c-0.308,1.263-0.416,1.716-0.428,1.806c-0.102,0.518-0.162,0.998-0.203,1.463
		c-0.004,0.013-0.011,0.023-0.016,0.035l-0.075,0.185c-0.367,0.901-0.685,1.682-1.447,2.282c-0.417,0.331-1.132,0.663-1.792,0.663
		c-0.394,0-0.699-0.119-0.907-0.354c-0.652-0.74-0.377-2.728-0.273-3.479c0.101-0.775,0.315-1.514,0.544-2.294
		c0.157-0.541,0.32-1.101,0.443-1.688c0.097-0.548,0.336-1.643,0.554-2.254c0.261,0.013,0.55,0.043,0.846,0.073
		c0.425,0.044,0.866,0.089,1.266,0.089c0.483,0,1.163-0.059,1.484-0.565c0.322-0.502,0.385-0.938,0.188-1.298
		c-0.219-0.4-0.716-0.604-1.478-0.604c-0.329,0-0.636,0.038-0.714,0.056c-0.185,0-0.457-0.021-0.781-0.045
		c-0.127-0.009-0.262-0.019-0.403-0.027c0.003-0.021,0.006-0.041,0.009-0.062c0.027-0.181,0.045-0.3,0.116-0.479
		c0.039-0.128,0.112-0.267,0.187-0.411c0.205-0.404,0.46-0.907,0.307-1.444c-0.149-0.445-0.632-0.909-1.183-0.909L85.968,16.6
		c-0.763,0.211-0.981,1.105-1.142,1.757c-0.038,0.15-0.069,0.286-0.114,0.414c-0.064,0.212-0.117,0.529-0.171,0.855
		c-0.016,0.099-0.032,0.196-0.049,0.294c-0.018,0-0.033,0.001-0.05,0.001c-0.235,0.008-0.391,0.021-0.684-0.008
		c-0.064,0-0.14-0.007-0.22-0.012c-0.115-0.008-0.238-0.016-0.361-0.016c-0.23,0-0.568,0.023-0.866,0.247
		c-0.349,0.295-0.466,0.751-0.305,1.189c0.175,0.479,0.623,0.801,1.114,0.801c0.151,0,0.319-0.017,0.491-0.032
		c0.105-0.011,0.215-0.021,0.322-0.026c-0.095,0.404-0.183,0.817-0.271,1.231c-0.206,0.965-0.418,1.962-0.72,2.865
		c-0.296,0.889-0.56,2.084-0.653,3.225c-0.358,1.339-0.661,1.814-1.445,2.522c-0.303,0.273-0.676,0.42-1.079,0.42
		c-0.721,0-1.401-0.453-1.732-1.15c-0.276-0.594-0.151-1.159,0.056-2.096c0.074-0.336,0.156-0.706,0.23-1.131
		c0.138-0.863,0.593-2.822,0.874-3.665c0.102-0.354,0.165-0.719,0.228-1.082c0.071-0.409,0.138-0.795,0.271-1.188
		c0.183-0.486,0.432-1.152,0.123-1.684c-0.113-0.195-0.352-0.443-0.864-0.525L78.807,19.8c-1.005,0-1.294,1.007-1.438,1.512
		c-0.136,0.569-0.247,1.146-0.356,1.717c-0.18,0.938-0.349,1.822-0.627,2.683c-0.191,0.62-0.354,1.244-0.515,1.869
		c-0.231,0.895-0.449,1.738-0.757,2.582c-0.521,1.52-1.15,2.239-2.104,2.406c-0.579,0.097-0.992-0.176-1.204-0.404
		c-0.353-0.382-0.544-0.979-0.499-1.556c0.072-0.823,0.215-1.641,0.411-2.364c0.088-0.34,0.19-0.658,0.29-0.977
		c0.139-0.438,0.282-0.893,0.382-1.354l0.782-2.812c0.035-0.137,0.075-0.274,0.114-0.414c0.175-0.609,0.375-1.302,0.161-2.013
		c-0.185-0.577-0.61-0.938-1.111-0.938c-0.434,0-0.852,0.274-1.128,0.753c-0.344,0.655-0.448,1.431-0.539,2.113l-0.039,0.292
		c-0.166,0.901-0.448,1.805-0.747,2.762c-0.247,0.789-0.494,1.591-0.677,2.398c-0.133,0.324-0.185,0.667-0.209,0.844
		c-0.111,0.743-0.441,1.186-0.941,1.854l-0.174,0.233c-0.546,0.74-0.964,1.227-1.751,1.227l-0.146-0.005
		c-0.498-0.018-0.88-0.213-1.169-0.601c-0.608-0.815-0.659-2.323-0.399-3.317c0.146-0.513,0.302-1.043,0.457-1.573
		c0.146-0.497,0.291-0.993,0.429-1.476c0.196-0.695,0.307-1.332,0.424-2.006l0.133-0.702c0.259-0.904,0.465-1.906,0.027-2.484
		c-0.187-0.249-0.445-0.385-0.839-0.386c-0.339,0-0.631,0.221-0.854,0.509c-0.167-0.168-0.3-0.279-0.408-0.312
		c-0.763-0.4-1.695-0.555-2.478-0.441c-1.986,0.225-3.505,1.535-4.163,3.593c-0.737,2.289-1.235,4.33-1.532,6.233
		c-0.147,0.422-0.37,0.942-0.811,1.571c-0.75,1.054-2.095,1.707-3.512,1.707c-0.654,0-1.287-0.142-1.829-0.406
		c-1.063-0.532-1.846-1.493-1.991-2.447c-0.108-0.718,0.137-1.372,0.735-1.948c0.498-0.497,1.127-0.727,1.738-0.676
		c0.584,0.055,1.403-0.11,1.688-0.729c0.1-0.214,0.198-0.648-0.247-1.168c-0.398-0.467-0.924-0.521-1.308-0.562
		c-0.443-0.047-0.646-0.069-0.804-0.495c-0.157-0.418-0.146-0.849,0.034-1.21c0.183-0.368,0.524-0.646,0.977-0.782
		c0.264-0.088,0.555-0.135,0.842-0.135c0.324,0,1.111,0.069,1.434,0.689c0.041,0.091,0.062,0.267,0.083,0.436
		c0.042,0.349,0.096,0.783,0.405,1.125c0.456,0.457,1.367,0.405,1.862-0.154c0.706-0.923-0.28-2.825-0.689-3.303
		c-0.666-0.781-1.826-1.248-3.103-1.248c-0.329,0-0.648,0.032-0.948,0.096c-1.508,0.326-2.533,1.191-3.04,2.559
		c-0.39,0.94-0.472,2.244,0.109,3.266c-1.365,0.924-2.165,2.311-2.165,3.794c0,2.905,2.164,5.124,5.514,5.653
		c0.285,0.044,0.575,0.065,0.865,0.065c1.637,0,3.256-0.75,4.479-1.912c0.408,0.85,1.073,1.465,1.983,1.777
		c0.358,0.151,0.737,0.229,1.125,0.229c1.464,0,2.766-1.083,3.525-1.879c0.958,1.215,2.867,1.587,4.128,1.326
		c1.037-0.184,2.006-0.749,2.779-1.546c0.62,1.251,1.824,2.02,3.238,2.02l0.202-0.006c1.582-0.105,2.522-1.022,3.293-1.979
		c0.841,1.157,1.971,1.662,3.656,1.662c1.31,0,2.35-0.667,3.083-1.508c0.721,1.188,1.865,1.493,2.847,1.492
		c0.157,0,0.321-0.007,0.502-0.023c1.543-0.171,2.594-0.637,3.514-1.557c0.05-0.048,0.084-0.106,0.131-0.157
		c0.144,0.246,0.302,0.479,0.491,0.685c0.667,0.685,1.556,1.046,2.569,1.046c0.617,0,1.265-0.146,1.901-0.393
		c-0.096,0.299-0.2,0.593-0.321,0.881l-0.181,0.457c-0.519,1.32-1.105,2.817-2.445,3.112c-0.384,0.08-0.555-0.019-0.951-0.309
		c-0.154-0.111-0.319-0.232-0.516-0.347c-0.804-0.459-1.704-0.062-1.857,0.862c-0.054,0.479,0.068,0.907,0.354,1.238
		c0.679,0.783,2.092,0.827,2.936,0.854l0.256,0.007c1.687,0,3.218-1.575,3.929-3.037c0.523-1.069,0.802-2.249,1.07-3.389
		c0.11-0.465,0.219-0.926,0.341-1.365c0.203-0.693,0.376-1.24,0.546-1.776c0.05-0.155,0.1-0.312,0.149-0.472
		c0.141-0.352,0.253-0.718,0.334-1.099c0.1-0.339,0.203-0.699,0.319-1.124c0.249-0.893,0.417-1.881,0.58-2.838
		c0.221-1.298,0.447-2.638,0.881-3.795c0.115-0.004,0.235-0.011,0.358-0.016c0.36-0.017,0.798-0.028,0.984-0.018l0.134,0.019
		c0.244,0.033,0.613,0.084,0.986,0.084C103.446,22.149,103.899,21.987,104.167,21.654z M58.216,28.498
		c0.114-0.416,0.214-0.939,0.323-1.515c0.339-1.782,0.802-4.226,2.162-4.917c0.289-0.148,0.604-0.229,0.916-0.229
		c0.477,0,0.895,0.188,1.178,0.532c0.632,0.769,0.339,2.021,0.017,3.133c-0.182,0.607-0.324,1.224-0.469,1.84
		c-0.163,0.701-0.332,1.425-0.559,2.126c-0.361,1.19-0.709,2.152-1.612,2.784c-0.307,0.204-0.63,0.312-0.934,0.312
		c-0.447,0-0.815-0.233-1.067-0.678C57.635,30.936,57.9,29.688,58.216,28.498z M92.171,40.482L92.171,40.482v0.006V40.482z"/>
	<path fill="#FFFFFF" d="M125.146,28.216c-0.147-0.441-0.476-0.705-0.876-0.705c-0.53,0-1.083,0.491-1.255,1.108
		c-0.233,0.781-0.462,1.185-0.775,1.738c-0.089,0.156-0.184,0.322-0.287,0.516c-0.369,0.706-1.097,1.217-1.869,1.303
		c-0.768,0.104-1.421-0.324-1.709-1.101c-0.266-0.74-0.195-1.354-0.047-2.279c0.171-1.123,0.477-2.256,0.797-3.396
		c0.182-0.564,0.297-1.147,0.408-1.712c0.09-0.455,0.179-0.91,0.302-1.34c0.3-0.963,0.483-1.961,0.661-2.926
		c0.234-1.271,0.456-2.47,0.93-3.621l0.032-0.095c0.175-0.515,0.44-1.29,0.07-1.849c-0.128-0.192-0.387-0.432-0.952-0.469
		c-1.008,0-1.387,1.261-1.499,1.788c-0.213,0.862-0.402,1.729-0.592,2.596c-0.28,1.28-0.569,2.604-0.929,3.873
		c-0.213,0.757-0.363,1.543-0.511,2.305c-0.078,0.401-0.155,0.805-0.241,1.198c-0.07,0.331-0.176,0.646-0.278,0.955l-0.125,0.391
		c-0.228,0.591-0.484,1.604-0.547,2.732c-0.379,1.465-0.673,1.943-1.488,2.681c-0.845,0.766-2.296,0.356-2.812-0.73
		c-0.274-0.593-0.149-1.159,0.058-2.096c0.075-0.336,0.155-0.706,0.229-1.131c0.138-0.856,0.591-2.815,0.873-3.664
		c0.104-0.356,0.167-0.722,0.23-1.086c0.07-0.408,0.138-0.793,0.27-1.186c0.184-0.486,0.433-1.152,0.123-1.684
		c-0.113-0.195-0.351-0.443-0.863-0.525l-0.146-0.007c-1.005,0-1.294,1.007-1.438,1.512c-0.135,0.569-0.245,1.145-0.354,1.715
		c-0.179,0.938-0.349,1.823-0.628,2.685c-0.192,0.62-0.354,1.244-0.516,1.869c-0.23,0.895-0.448,1.738-0.757,2.582
		c-0.521,1.52-1.149,2.239-2.103,2.406c-0.574,0.099-0.991-0.176-1.205-0.404c-0.354-0.383-0.544-0.979-0.499-1.556
		c0.072-0.823,0.214-1.641,0.411-2.364c0.088-0.337,0.188-0.656,0.289-0.973c0.139-0.439,0.283-0.895,0.382-1.357l0.784-2.812
		c0.033-0.137,0.073-0.274,0.113-0.414c0.176-0.609,0.374-1.302,0.161-2.013c-0.185-0.577-0.609-0.938-1.11-0.938
		c-0.435,0-0.853,0.274-1.127,0.751c-0.347,0.657-0.449,1.433-0.54,2.116l-0.04,0.291c-0.166,0.901-0.447,1.805-0.746,2.761
		c-0.701,2.242-1.426,4.562-0.577,6.925c0.554,1.464,1.856,2.374,3.402,2.374l0.201-0.006c1.58-0.105,2.521-1.021,3.292-1.979
		c0.842,1.158,1.971,1.662,3.655,1.662c1.427,0,2.542-0.787,3.279-1.734c0.494,0.776,1.188,1.335,2.091,1.638
		c0.352,0.12,0.717,0.183,1.087,0.183c1.94,0,3.69-1.63,4.564-3.243C124.711,30.914,125.458,29.1,125.146,28.216z"/>
</g>
</svg>
