<svg version="1.1" id="Calque_1" xmlns="http://www.w3.org/2000/svg" xmlns:xlink="http://www.w3.org/1999/xlink" x="0px" y="0px"
	 viewBox="0 0 134.2 193.465" enable-background="new 0 0 134.2 193.465" xml:space="preserve">
<g>
	<defs>
		<rect id="SVGID_1_" width="134.2" height="193.465"/>
	</defs>
	<clipPath id="SVGID_2_">
		<use xlink:href="#SVGID_1_"  overflow="visible"/>
	</clipPath>
	<path clip-path="url(#SVGID_2_)" fill="#009988" d="M54.083,129.663c6.757-0.117,14.33,0.117,21.087,0
		c2.213,0,5.008-0.35,7.223,0.117c3.961,0.814,2.097,9.551,2.097,12.697c0.116,4.193,0.466,8.389,0.582,12.582
		c0.117,2.098,0,4.193-0.233,6.291c-0.349,3.846-2.912,4.66-6.174,6.408c-2.68,1.514-4.777,3.262-7.107,4.893
		c-1.397,1.049-1.979,1.281-3.611,0.816c-3.727-1.049-9.203-5.01-11.65-8.156c-2.912-3.611-2.33-10.484-2.679-14.912
		c-0.233-5.709-0.233-11.533,0.233-17.125C53.849,131.993,53.965,130.827,54.083,129.663"/>
	<path clip-path="url(#SVGID_2_)" fill="#009988" d="M41.421,2.159c-3.324,4.494-5.459,10.044-7.069,15.352
		c-1.606,5.293-3.035,11.711-1.197,17.128c1.869,5.506,7.397,6.27,12.442,5.111c2.896-0.664,5.671-2.177,7.125-4.854
		c1.317-2.424,1.125-5.348,0.602-7.959c-0.937-4.68-3.276-9.092-5.42-13.311c-1.633-3.214-4.466-7.213-4.554-10.944
		c-0.032-1.332-2.102-1.336-2.07,0c0.055,2.34,1.192,4.602,2.169,6.674c1.455,3.084,3.097,6.076,4.569,9.152
		c2.278,4.759,6.313,13.008,1.279,17.348c-2.351,2.027-6.561,2.765-9.558,2.236c-2.359-0.417-3.927-2.059-4.677-4.27
		c-1.877-5.527,0.129-12.342,1.881-17.639c1.491-4.507,3.425-9.139,6.266-12.979C44.004,2.13,42.206,1.099,41.421,2.159"/>
	<path clip-path="url(#SVGID_2_)" fill="#009988" d="M94.421,0.503c-3.271,4.663-6.306,9.458-8.517,14.724
		c-1.857,4.429-3.361,10.095-1.895,14.843c2.246,7.269,11.694,11.974,18.711,9.011c6.896-2.912,5.566-11.677,3.807-17.367
		c-2.211-7.152-5.996-13.775-9.741-20.215c-0.193-0.331-0.386-0.663-0.577-0.995c-0.668-1.155-2.457-0.112-1.788,1.045
		c3.112,5.386,6.226,10.778,8.595,16.543c2.004,4.874,5.188,13.102,0.928,17.657c-5.584,5.977-16.104-0.298-18.076-6.675
		c-1.396-4.522,0.683-10.234,2.49-14.354c2.054-4.686,4.922-8.995,7.852-13.172C96.977,0.452,95.181-0.581,94.421,0.503"/>
	<path clip-path="url(#SVGID_2_)" fill="#009988" d="M94.279,30.562v14.906c0,1.335,2.07,1.335,2.07,0V30.562
		C96.35,29.227,94.279,29.227,94.279,30.562"/>
	<path clip-path="url(#SVGID_2_)" fill="#009988" d="M40.729,30.01c0.735,5.815-0.491,11.576-0.552,17.39
		c-0.014,1.336,2.056,1.335,2.07,0c0.061-5.813,1.288-11.574,0.552-17.39C42.633,28.704,40.562,28.688,40.729,30.01"/>
	<path clip-path="url(#SVGID_2_)" fill="#009988" d="M49.12,67.179c5.152-4.197,7.745-13.253,2.441-18.376
		c-3.094-2.988-7.967-2.806-11.777-1.571c-4.687,1.518-8.572,5.011-12.158,8.248c-6.682,6.027-11.818,13.376-13.447,22.386
		c-0.738,4.081-0.543,8.312,0.799,12.245c1.475,4.319,4.414,7.113,7.623,10.166c1.988,1.891,4.002,3.996,6.741,4.711
		c1.293,0.336,1.842-1.66,0.551-1.998c-2.184-0.568-3.823-2.252-5.405-3.77c-1.479-1.418-3.07-2.694-4.414-4.249
		c-2.663-3.082-3.977-7.106-4.225-11.121c-0.502-8.104,3.35-16.256,8.518-22.288c2.821-3.292,6.322-6.279,9.779-8.878
		c3.712-2.789,8.592-5.225,13.337-3.874c7.979,2.27,4.864,13.084,0.173,16.905C46.621,66.559,48.095,68.014,49.12,67.179"/>
	<path clip-path="url(#SVGID_2_)" fill="#009988" d="M38.48,78.526c-2.926,1.76-4.161,5.378-3.333,8.633
		c0.93,3.654,4.509,4.039,7.478,2.658c3-1.396,4.423-5.067,3.766-8.179c-0.775-3.675-4.612-4.305-7.664-3.217
		c-1.248,0.445-0.71,2.446,0.551,1.996c2.122-0.757,4.429-0.746,5.117,1.771c0.591,2.165-0.676,4.536-2.491,5.666
		c-5.387,3.355-6.318-5.172-2.379-7.54C40.667,79.627,39.627,77.836,38.48,78.526"/>
	<path clip-path="url(#SVGID_2_)" fill="#009988" d="M48.388,67.481c8.294,0.941,13.54,7.894,14.146,15.912
		c0.56,7.393-3.088,15.175-10.669,17.15c-1.291,0.336-0.743,2.334,0.55,1.996c8.675-2.26,12.799-11.088,12.161-19.526
		c-0.688-9.102-6.965-16.556-16.188-17.602C47.063,65.261,47.078,67.333,48.388,67.481"/>
	<path clip-path="url(#SVGID_2_)" fill="#009988" d="M87.033,104.411c-13.614-4.867-17.989-20.755-15.582-33.81
		c1.205-6.527,4.185-12.824,9.115-17.347c4.983-4.571,12.23-6.599,18.844-5.105c10.841,2.447,16.131,14.181,17.695,24.145
		c0.861,5.48,0.637,11.212-0.75,16.586c-1.425,5.521-4.494,9.75-8.385,13.825c-0.922,0.967,0.54,2.432,1.464,1.465
		c4.769-4.994,8.077-10.213,9.446-17.053c1.338-6.679,0.934-13.72-0.812-20.282c-1.647-6.2-4.797-12.271-9.766-16.444
		c-5.016-4.213-11.432-5.489-17.795-4.341c-13.484,2.433-20.676,16.14-21.674,28.725c-1.03,12.99,4.699,27.003,17.648,31.634
		C87.742,106.858,88.281,104.856,87.033,104.411"/>
	<path clip-path="url(#SVGID_2_)" fill="#009988" d="M95.59,70.693c-7.178-2.121-7.957,10.269-3.494,13.466
		c3.354,2.401,7.752-0.743,8.862-4.009C102.307,76.184,99.867,71.272,95.59,70.693c-1.305-0.177-1.868,1.817-0.55,1.997
		c3.354,0.454,4.75,3.866,3.922,6.909c-0.668,2.452-4.13,4.41-6.226,2.426c-2.193-2.077-2.114-10.642,2.304-9.335
		C96.322,73.069,96.867,71.071,95.59,70.693"/>
	<path clip-path="url(#SVGID_2_)" fill="#009988" d="M65.502,106.68c11.037,1.307,22.332,0.111,33.305-1.301
		c4.337-0.557,8.706-1.035,13.084-0.867c4.444,0.172,8.933,1.324,10.788,5.828c1.838,4.461-0.432,9.395,0.875,13.883
		c1.04,3.572,3.395,6.627,4.219,10.293c0.293,1.301-0.006,3.098-1.724,2.857c-1.63-0.229-3.15-1.557-4.372-2.555
		c-2.621-2.143-4.971-4.885-8.012-6.455c-1.229-0.633-2.364-0.637-3.683-0.273c-2.862,0.793-4.894,1.883-7.905,0.803
		c-2.141-0.766-4.022-1.744-6.34-1.912c-2.418-0.176-4.855,0.809-7.111,1.527c-2.738,0.869-5.113,0.975-7.908,0.279
		c-2.602-0.646-5.09-1.709-7.561-2.732c-4.756-1.969-9.468-3.523-14.684-3.041c-2.906,0.27-5.606,1.953-8.563,1.221
		c-2.352-0.582-3.526-3.404-5.512-4.645c-3.168-1.98-6.028-0.963-7.191,2.426c-0.981,2.855-1.489,7.412-4.316,9.152
		c-1.498,0.926-3.51-1.428-4.437-2.309c-1.542-1.467-3.115-3.057-5.191-3.719c-2.234-0.711-4.519,0.592-5.858,2.34
		c-0.988,1.289-1.211,2.975-1.409,4.541c-0.199,1.572-0.015,4.553-2.139,4.713c-2.259,0.17-2.971-6.244-3.126-7.811
		c-0.485-4.885-0.343-9.988,0.597-14.807c0.502-2.574,1.343-4.674,3.695-6.064c1.896-1.123,4.429-0.785,6.529-0.777
		c5.627,0.023,10.831-2.59,16.207-3.947c2.954-0.744,5.961-1.221,9.01-1.271c3.303-0.057,6.379,0.904,9.455,1.998
		c2.959,1.049,5.874,2.156,9.002,2.588c1.305,0.18,1.868-1.816,0.55-1.996c-5.831-0.803-11.009-3.965-16.886-4.576
		c-5.745-0.596-11.744,1.104-17.163,2.82c-2.82,0.893-5.484,1.996-8.46,2.27c-2.139,0.197-4.302-0.158-6.434,0.178
		c-1.858,0.293-3.36,1.09-4.751,2.342c-1.747,1.57-2.273,3.664-2.751,5.887c-1.004,4.676-1.069,9.629-0.751,14.383
		c0.191,2.85,0.73,6.055,2.029,8.611c1.131,2.229,4.622,3.295,6.21,0.83c1.923-2.986,0.295-7.137,3.204-9.627
		c3.444-2.949,7.54,3.744,10.237,5.154c5.813,3.047,7.907-7.334,9.073-10.732c0.862-2.51,3.503-1.438,5.027-0.033
		c1.735,1.6,2.713,3.203,5,4.078c2.331,0.893,5.056-0.15,7.303-0.775c2.98-0.83,6.176-0.543,9.144,0.172
		c4.955,1.195,9.439,3.822,14.359,5.156c2.266,0.615,4.397,0.768,6.705,0.338c2.621-0.486,5.037-1.738,7.703-2.041
		c2.49-0.281,4.715,0.916,6.951,1.811c2.275,0.908,4.525,0.756,6.799-0.025c1.785-0.613,3.123-1.395,4.865-0.404
		c1.578,0.898,2.932,2.225,4.278,3.426c2.308,2.059,4.89,4.799,8.03,5.482c2.815,0.615,4.609-1.762,4.425-4.369
		c-0.259-3.639-2.628-6.988-3.992-10.277c-0.774-1.865-0.644-3.719-0.56-5.709c0.109-2.535,0.232-5.029-0.217-7.539
		c-1.664-9.266-12.269-9.416-19.607-8.889c-5.11,0.369-10.176,1.215-15.277,1.682c-8.232,0.756-16.529,1.318-24.769,0.342
		C64.179,104.452,64.193,106.524,65.502,106.68"/>
	<path clip-path="url(#SVGID_2_)" fill="#009988" d="M13.676,137.655c-0.007,5.65-0.15,11.297-0.115,16.947
		c0.028,4.502-0.1,9.037,0.055,13.535c0.117,3.406,0.432,7.699,3.428,9.875c3.341,2.428,7.576,3.371,11.578,4.039
		c10.039,1.68,20.479,1.781,30.622,2.172c10.761,0.416,21.661,0.674,32.425,0.166c8.998-0.424,18.086-1.832,26.279-5.738
		c1.844-0.879,4.348-1.582,4.348-3.844v-5.842v-31.854c0-1.334-2.069-1.334-2.069,0v38.508c0.17-0.299,0.342-0.596,0.513-0.895
		c-9.228,5.76-20.246,7.264-30.922,7.672c-10.953,0.418-22.018,0.113-32.963-0.34c-10.033-0.414-20.518-0.438-30.388-2.51
		c-3.752-0.787-8.771-1.996-10.053-6.078c-1.28-4.074-0.751-8.736-0.675-12.941c0.139-7.605-0.002-15.26,0.007-22.873
		C15.749,136.321,13.679,136.321,13.676,137.655"/>
	<path clip-path="url(#SVGID_2_)" fill="#009988" d="M13.333,168.963c-4.012,0.625-8.364,1.484-11.417,4.365
		c-2.244,2.115-2.559,5.498-0.719,7.934c1.932,2.559,5.232,3.893,8.149,4.947c3.433,1.242,7.071,2.076,10.619,2.904
		c11.843,2.764,24.091,3.643,36.215,4.025c11.4,0.359,22.857,0.391,34.262,0.242c6.837-0.09,13.678-0.49,20.428-1.629
		c6.307-1.064,13.133-2.861,18.523-6.443c3.195-2.123,5.719-5.891,4.49-9.824c-1.435-4.594-7.063-5.955-11.24-6.283
		c-1.332-0.104-1.322,1.967,0,2.07c3.516,0.275,8.952,1.471,9.486,5.775c0.492,3.969-3.631,6.58-6.645,8.082
		c-10.09,5.031-21.941,5.873-33.025,6.145c-11.33,0.277-22.729,0.125-34.058-0.145c-12.464-0.295-24.986-1.166-37.186-3.854
		c-5.551-1.223-11.949-2.438-16.712-5.701c-2.491-1.707-3.323-4.404-1.125-6.783c2.493-2.697,7.068-3.297,10.504-3.832
		C15.199,170.754,14.639,168.758,13.333,168.963"/>
	<path clip-path="url(#SVGID_2_)" fill="#FFFFFF" d="M58.406,135.604c0.131,2.402,0.241,4.854,0.018,7.254
		c-0.184,1.992-0.594,4.17-0.178,6.158c0.841,4.014,6.303,2.818,9.234,2.768c1.333-0.023,1.335-2.094,0-2.07
		c-1.557,0.027-3.105,0.197-4.664,0.168c-0.826-0.018-2.192-0.102-2.496-1.045c-0.242-0.754-0.146-1.664-0.122-2.439
		c0.115-3.635,0.478-7.133,0.278-10.793C60.404,134.276,58.333,134.268,58.406,135.604"/>
	<path clip-path="url(#SVGID_2_)" fill="#FFFFFF" d="M60.972,142.426c1.363,0.248,2.731,0.484,4.12,0.504
		c1.336,0.018,1.334-2.053,0-2.07c-1.208-0.018-2.384-0.215-3.57-0.43C60.217,140.194,59.66,142.188,60.972,142.426"/>
	<path clip-path="url(#SVGID_2_)" fill="#FFFFFF" d="M59.558,136.29c2.359-0.01,4.753-0.193,7.107,0c1.331,0.109,1.321-1.963,0-2.07
		c-2.354-0.193-4.748-0.01-7.107,0C58.223,134.225,58.223,136.293,59.558,136.29"/>
	<path clip-path="url(#SVGID_2_)" fill="#FFFFFF" d="M70.961,148.069c-0.264-2.113-0.396-4.23-0.412-6.361
		c-0.016-2.029-0.139-4.764,0.736-6.629c-0.541,0.068-1.082,0.139-1.625,0.209c3.123,3.832,5.84,7.986,7.073,12.824
		c0.302,1.182,1.957,0.852,2.033-0.275c0.327-4.811,0.247-9.631,0.351-14.447c0.028-1.336-2.043-1.332-2.07,0
		c-0.104,4.816-0.023,9.637-0.35,14.447c0.678-0.092,1.355-0.184,2.032-0.275c-1.323-5.189-4.257-9.629-7.604-13.738
		c-0.402-0.492-1.359-0.359-1.627,0.211c-0.893,1.9-0.91,4.168-0.996,6.238c-0.108,2.602,0.066,5.217,0.39,7.797
		C69.055,149.375,71.127,149.391,70.961,148.069"/>
	<path clip-path="url(#SVGID_2_)" fill="#FFFFFF" d="M69.168,153.233c-2.317-1.207-5.153-1.764-7.724-1.201
		c-2.193,0.48-4.331,3.156-2.597,5.215c0.884,1.047,2.069,1.424,3.328,1.85c1.18,0.4,3,1.729,2.219,3.219
		c-0.363,0.693-1.755,0.393-2.309,0.248c-0.989-0.258-1.853-0.908-1.995-1.953c-0.179-1.318-2.174-0.754-1.997,0.549
		c0.488,3.592,7.055,5.34,8.392,1.492c0.92-2.648-1.616-4.773-3.76-5.551c-0.682-0.248-2.882-0.703-2.365-1.92
		c0.419-0.986,1.845-1.248,2.744-1.303c1.673-0.105,3.54,0.373,5.018,1.143C69.305,155.637,70.352,153.85,69.168,153.233"/>
	<path clip-path="url(#SVGID_2_)" fill="#FFFFFF" d="M69.939,153.079c0.26,3.539,0.776,7.051,0.815,10.602
		c0.015,1.334,2.085,1.336,2.071,0c-0.041-3.551-0.557-7.062-0.816-10.602C71.912,151.756,69.842,151.747,69.939,153.079"/>
	<path clip-path="url(#SVGID_2_)" fill="#FFFFFF" d="M71.367,153.495c1.986-0.268,4.893-0.982,6.797-0.121
		c0.547,0.248,0.571,1.643,0.254,2.053c-0.377,0.486-1.262,0.521-1.808,0.564c-1.215,0.094-2.44-0.082-3.655-0.104
		c-1.336-0.02-1.332,2.049,0,2.072c2.904,0.047,8.754,0.604,7.625-4.195c-0.97-4.113-6.722-2.676-9.764-2.266
		C69.498,151.676,70.062,153.67,71.367,153.495"/>
	<path clip-path="url(#SVGID_2_)" fill="#FFFFFF" d="M75.674,157.678c1.576,2.314,2.715,4.844,3.739,7.441
		c0.484,1.229,2.487,0.693,1.997-0.549c-1.089-2.762-2.271-5.475-3.949-7.938C76.715,155.538,74.92,156.571,75.674,157.678"/>
	<path clip-path="url(#SVGID_2_)" fill="#009988" d="M41.307,20.216c-0.552,1.656-4.693,16.838,1.656,13.802
		c4.417-2.208-0.552-11.042-1.104-14.078"/>
	<path clip-path="url(#SVGID_2_)" fill="#009988" d="M93.754,19.939c-0.276,1.38-3.312,17.39,2.484,14.354
		c3.036-1.933-1.104-11.595-2.484-13.803"/>
	<path clip-path="url(#SVGID_2_)" fill="#009988" d="M17.153,175.348c0,3.037,5.521,3.037,4.141-0.689
		c-0.829-2.207-4.003-0.967-4.417,1.242"/>
	<path clip-path="url(#SVGID_2_)" fill="#009988" d="M21.155,177.833c1.932,1.795,9.247,1.795,5.935-1.793
		c-1.932-2.209-5.797-0.414-5.659,2.484"/>
	<path clip-path="url(#SVGID_2_)" fill="#009988" d="M28.608,177.282c0.138,1.656-0.414,4.141,2.208,4.002
		c1.243-0.139,1.933-1.104,2.071-2.484c0.138-2.207-3.313-4.141-4.555-1.795"/>
	<path clip-path="url(#SVGID_2_)" fill="#009988" d="M33.163,178.524c0,3.449,5.383,4.693,4.693,0.551
		c-0.414-2.896-4.279-4.416-4.003-0.551"/>
	<path clip-path="url(#SVGID_2_)" fill="#009988" d="M41.444,177.143c-3.864,0.828-3.45,6.764,0.828,5.246
		c2.761-1.105,1.518-4.418-0.69-5.383"/>
	<path clip-path="url(#SVGID_2_)" fill="#009988" d="M46.137,177.971c-2.622,0.414-1.38,5.107,1.104,4.969
		c2.761-0.275,2.623-4.969,0-4.83"/>
	<path clip-path="url(#SVGID_2_)" fill="#009988" d="M50.968,178.247c-2.208,2.484,0.828,5.797,3.175,3.865
		c2.622-1.932-0.829-4.555-2.899-4.279"/>
	<path clip-path="url(#SVGID_2_)" fill="#009988" d="M56.626,178.661c-1.656,2.76,1.794,6.211,3.864,3.451
		c2.209-2.898-1.104-3.727-3.174-3.865"/>
	<path clip-path="url(#SVGID_2_)" fill="#009988" d="M62.837,178.385c-3.312,2.07,0.828,7.039,3.174,4.693
		c2.347-2.209-0.552-4.555-2.622-4.693"/>
	<path clip-path="url(#SVGID_2_)" fill="#009988" d="M68.91,178.11c-2.208,0.414-2.346,4.83,0.275,4.83
		c2.209,0,3.176-4.416,0.69-4.83"/>
	<path clip-path="url(#SVGID_2_)" fill="#009988" d="M75.26,178.799c-2.484-0.551-3.728,3.174-1.795,4.279
		c2.208,1.379,4.692-1.934,3.174-3.59"/>
	<path clip-path="url(#SVGID_2_)" fill="#009988" d="M78.02,181.422c0.414,2.76,5.383,1.793,4.555-1.381s-4.417-2.07-4.141,0.967"/>
	<path clip-path="url(#SVGID_2_)" fill="#009988" d="M85.61,178.11c-2.761,1.104-1.104,4.693,1.656,3.865
		c0.966-0.277,2.208-1.52,1.38-2.9c-0.689-0.828-2.07-0.551-3.036-0.828"/>
	<path clip-path="url(#SVGID_2_)" fill="#009988" d="M91.131,178.11c-2.484,0.965-0.689,5.658,1.932,4.141
		c2.899-1.656-0.689-3.59-2.207-4.141"/>
	<path clip-path="url(#SVGID_2_)" fill="#009988" d="M97.895,177.696c-2.07,0.275-4.693,3.174-1.795,4.277
		c2.347,0.83,3.727-2.207,2.623-4.002"/>
	<path clip-path="url(#SVGID_2_)" fill="#009988" d="M102.449,177.143c-2.623,0-2.898,4.969,0.138,4.693
		c2.76-0.277,2.069-4.279-0.276-4.555"/>
	<path clip-path="url(#SVGID_2_)" fill="#009988" d="M108.384,175.901c-1.933-0.137-4.003,3.312-2.07,4.555
		c2.622,1.795,4.002-2.623,2.761-4.279"/>
	<path clip-path="url(#SVGID_2_)" fill="#009988" d="M113.076,174.245c-1.656,0.553-4.277,3.312-2.208,4.555
		c3.174,2.07,3.864-2.898,2.346-4.691"/>
	<path clip-path="url(#SVGID_2_)" fill="#009988" d="M116.803,172.588c-2.07,0.277-4.416,4.279-1.656,5.244
		c2.622,1.105,4.555-3.727,1.794-4.553"/>
	<path clip-path="url(#SVGID_2_)" fill="#009988" d="M22.812,141.258c-0.276,2.348,2.484,2.898,3.174,0.967
		c0.691-1.656-1.242-3.451-2.484-1.934"/>
	<path clip-path="url(#SVGID_2_)" fill="#009988" d="M42.548,160.858c-0.414,1.795,1.656,2.209,2.484,1.104
		c1.519-1.932-1.518-4.555-2.07-1.932"/>
	<path clip-path="url(#SVGID_2_)" fill="#009988" d="M100.24,137.532c-0.689,2.07,2.208,3.863,3.312,2.07
		c1.381-2.07-1.932-3.451-3.312-2.623"/>
	<path clip-path="url(#SVGID_2_)" fill="#009988" d="M106.727,160.995c-0.689,1.932,1.933,2.623,2.898,1.242
		c1.795-2.207-1.794-3.174-3.174-2.07"/>
</g>
</svg>
