<svg xmlns="http://www.w3.org/2000/svg" width="425.26" height="448.509" viewBox="0 0 425.26 448.509"><g fill-rule="evenodd" clip-rule="evenodd" fill="#FFF"><path d="M229.754 308.765c-2.984 1.01-6.017 2.206-9.246 2.794-2.481.451-4.94 1.038-7.432 1.423-1.944.301-3.92.481-5.887.541-2.914.088-5.833.009-8.749.026-2.475.016-4.896-.323-7.293-.925-.473-.118-.993-.081-1.49-.066-2.564.077-5.038-.438-7.552-.88-2.085-.366-4.203-.555-6.271-1.096-1.655-.433-3.388-.603-5.006-1.133-3.915-1.28-7.576-3.122-11.046-5.35-.966-.619-2.011-1.12-3.039-1.638-5.111-2.575-10.229-5.139-15.344-7.706-2.337-.164-4.114-1.928-6.399-2.244-.157-.022-.303-.123-.455-.186-3.095-1.295-6.245-2.477-9.269-3.922-2.293-1.096-4.496-2.423-6.613-3.836-3.442-2.296-6.78-4.803-9.352-8.06-1.478-1.87-3.012-3.786-3.844-6.135-.453-1.277-1.45-2.369-1.858-3.654-.859-2.709-1.803-5.368-2.23-8.25-.468-3.163-.374-6.284-.309-9.408.051-2.429.616-4.855 1.059-7.264.622-3.377 1.703-6.645 2.958-9.818 1.434-3.627 3.191-7.095 5.77-10.136 1.262-1.488 2.447-3.102 3.542-4.724.764-1.131 1.987-1.767 2.582-3.134.527-1.21 1.844-2.115 2.914-3.037 1.052-.907 2.246-1.648 3.349-2.499.785-.604 1.486-1.317 2.289-1.894 3.9-2.798 8.272-4.47 12.932-5.543 1.476-.34 2.919-.456 4.401-.459 2.833-.006 5.667.039 8.499-.013 2.158-.04 4.226.562 6.322.765 2.466.238 4.745 1.228 7.238 1.309 1.853.061 3.75.441 5.521 1.012 4.049 1.303 8.272 1.78 12.381 2.801 2.603.647 5.338.752 8.008 1.141 1.612.234 3.212.55 4.818.822.404.068.811.135 1.218.158 3.047.176 6.093.404 9.143.489 2.997.084 6.001.084 8.999-.001 2.883-.081 5.819-.017 8.63-.553 5.038-.962 10.177-1.312 15.147-2.757 2.64-.767 5.493-.791 8.246-1.18 1.695-.239 3.382-.533 5.072-.807.322-.052.64-.157.963-.174 3.464-.179 6.929-.342 10.393-.513 1.556-.076 3.119.183 4.66-.428.648-.257 1.568-.26 2.215-.002 1.622.646 3.272.345 4.91.43 3.464.179 6.932.3 10.391.538.959.066 1.896.459 2.842.703.315.082.642.275.94.238 2.61-.328 5.01.804 7.52 1.151 3.039.421 6.047 1.376 8.946 2.435 4.671 1.706 9.386 3.4 13.809 5.641 3.469 1.756 6.83 3.81 9.922 6.322 2.194 1.783 4.538 3.408 6.538 5.418 2.298 2.311 4.663 4.607 6.591 7.212 1.02 1.377 2.255 2.716 2.846 4.465.328.971 1.32 1.697 1.787 2.645 2.254 4.568 3.738 9.369 4.679 14.399.715 3.82.687 7.657.315 11.392-.592 5.944-2.276 11.711-5.203 17.002-.95 1.716-1.942 3.405-3.296 4.904-1.51 1.67-2.546 3.744-4.317 5.231a123.582 123.582 0 0 1-7.537 5.854c-2.649 1.896-5.58 3.178-8.444 4.614a30.45 30.45 0 0 1-6.434 2.354c-1.106.271-2.07.878-3.25 1.087-2.07.366-4.039 1.282-6.104 1.711-2.555.53-5.162.815-7.751 1.174-1.542.214-3.159.155-4.617.615-1.081.341-2.105.375-3.166.377-5.386.011-10.753.941-16.14.475-3.714-.322-7.481-.099-11.129-.594-4.026-.546-8.169-.534-12.085-1.844-2.759.297-5.226-1.464-8.034-1.085-1.089.147-2.25-.339-3.387-.428-2.991-.237-5.86.582-8.761 1.11-.881.166-1.757.355-2.966.598zm52.744-56.211l-3.966-2.007c-1.136 0-2.884.041-4.629-.017-.985-.032-1.794.341-2.502.906-.711.569-1.405 1.206-1.945 1.935-2.112 2.851-1.795 6.494.254 9.117 1.406 1.802 3.389 2.622 5.646 2.546 1.705-.058 3.403-.343 4.969-.512.964-1.175 2.158-1.864 2.744-3.189-1.426-1.027-2.747-2-4.674-1.744l-1.329.964c-.958-.127-2.239.441-2.572-1.406h7.986l1.413-1.048c.298 2.297-.181 4.378.325 6.474 2.153-.136 4.209.261 6.199-.243.25-2.527-.16-4.941.293-7.496l4.282-1.076c-.213-1.723.526-3.496-.543-5.082-1.88-.407-3.272.121-4.321 1.768l-.313-1.964c-1.953.428-3.961-.569-5.699.614-.218 3.456-.218 3.456-1.118 4.502l-.502-3.043c.562-.034 1.197-.009.595-1.205l-.593 1.206zm43.64 11.847h6.273c.239-4.366.238-8.545-1.167-12.687-.117-.062-.364-.139-.542-.295-1.657-1.456-3.492-1.636-5.456-.753-.551.248-1.059.581-1.837.718v-6.711h-5.833l-.935 7.672 1.005 2.103c-.185.905-.503 1.931-.575 2.974-.07 1.004.114 2.024.215 3.445-1.869-2.209-4.308-1.686-6.472-2.46-.407.998-.366 2.263-1.988 2.093l-1.242-1.14v-3.503l1.792-1.221 1.665 2.024 4.979-.776c.171-.347.37-.621.438-.925.071-.315.016-.659.016-.888-1.193-1.619-2.55-2.88-4.75-3.507-2.196.104-4.796-.478-7.447.864-.116.13-.373.463-.675.748-2.131 2.015-3.058 4.275-2.169 7.293.68 2.31 1.777 3.973 4.068 4.857 3.235 1.25 6.263 1.059 9.033-1.109.573-.449.946-1.153 1.659-2.053l1.1 3.274h6.155v-8.544l1.754-.942c1.531 3.078.346 6.292.936 9.449zm-100.157.08v-8.664l1.141-.971c1.73 3.196.275 6.533 1.068 9.575h7.57l-1.265-1.37c0-1.165-.042-2.495.013-3.821.056-1.372-.25-2.78.243-4.178l1.266.147v9.225h6.479v-10.397l-1.245-2.419-2.575-1.291c-1.443.139-2.417.231-3.469.333l-1.408 1.284a5420.61 5420.61 0 0 1-3.57-2.133l-4.586 1.942-.43-1.103h-5.102c-1.142 1.462-.484 3.093-.592 4.604-.105 1.491-.023 2.995-.023 4.493v4.742c2.239.002 4.214.002 6.485.002zm34.911-9.333c.293 3.22-.129 6.279.262 9.368 2.185.003 4.228.232 6.294-.146v-10.298c-.437-.814-.856-1.596-1.289-2.4l-1.542-1.072c-2.377-.188-4.714-.343-6.331 1.902-1.439-2.753-3.876-1.774-5.971-1.942l-1.566 1.397-.544-1.431c-1.936.295-3.968-.586-5.607.62v13.303h6.871c-.88-2.694-.318-5.331-.464-7.94-.041-.744.275-1.271 1.108-1.416.187.141.538.275.549.432.188 2.943.336 5.89.497 8.917h6.369v-9.294h1.364zm-94.112-4.562l-1.289 1.492-2.513-1.489h-7.092c-3.398 1.716-3.398 1.716-4.132 6.215l2.315 1.992-2.947 3.588c3.785 3.39 9.451 3.478 13.108 1.041l1.215-1.783v-2.725l-1.126-2.177-1.639-.883.551.519 2.267-2.734.451.102c0 2.982.122 5.968-.077 8.932-.058.854.116 1.316.571 1.874 1.997-.005 3.97.08 6.107-.053v-7.596l4.406-1.15c-.124-1.651.478-3.386-.429-5.055-1.748-.337-3.191-.175-4.103 1.501-.033.061-.216.04-.328.057l-.32-1.667-4.996-.001zm-30.933.037c-.681 2.347-.263 4.662-.332 6.929-.069 2.295.013 4.594.029 6.958 2.288.025 4.327.218 6.457-.133v-8.773l1.696-.608.637 1.795c-.362 2.751-.845 5.245.399 7.782 1.921-.083 3.798.129 5.708-.131v-10.538c-.4-.743-.834-1.63-1.347-2.468-.208-.339-.587-.573-.927-.893-1.16 0-2.346-.149-3.473.044-1.061.182-2.059.726-3.083 1.109l-.331-1.073h-5.433zm76.354.023c-.229 1.742-.801 3.277-.515 4.63.336 1.592.189 3.085.271 4.58l-.96.756a1993.56 1993.56 0 0 0-1.448-1.521c-.18-2.852.158-5.663-.204-8.545-2.055.246-4.067-.575-5.768.596-.3 3.447.247 6.674-.346 9.863 2.003 4.825 4.92 4.739 8.743 3.123 2.099.815 4.218.344 6.529.382-.127-4.76.42-9.36-.757-13.863l-5.545-.001zm-77.734 10.293c-.653-.361-1.259-.757-1.914-1.042-.574-.249-1.202-.373-1.807-.553l.043-.215 3.645-.167v-4.738c-1.205-1.955-2.686-3.043-4.626-3.688-2.177.116-4.519-.374-7.077.929-.339.358-1.053.961-1.567 1.702-.498.718-1.072 1.562-1.119 2.38-.126 2.195-.369 4.452.637 6.334 1.976 2.707 4.656 3.244 7.551 3.169 2.552-.065 4.657-1.096 6.234-2.933v-1.178zm53.688 1.257c2.811 3.041 6.402 3.037 10.012 2.797l3.186-1.657 1.123-2.215v-2.427l-2.244-3.046 2.212-2.562v-1.354c-1.762-.35-3.404-.974-5.189-1.316-2.301-.441-4.169.046-6.06 1.076-2.361 1.288-2.963 3.907-1.402 6.079.372.518.849.962 1.334 1.503-1.084 1.137-2.048 2.151-2.972 3.122zm-10.583-2.649c3.485.012 6.671.012 10.019.002.49-1.825.833-3.417-.186-4.937h-9.326l-.507 4.935zm116.481-.435c-.074 1.947-.121 3.646.003 5.296h6.564c-.492-1.859.553-3.73-.792-5.296h-5.775zM267.679 127.13c-.325-.552-.705-1.014-.892-1.545-1.107-3.137-2.343-6.227-3.449-9.364-1.466-4.16-2.965-8.308-4.471-12.454-.97-2.667-2.025-5.302-2.954-7.982-1.115-3.215-2.442-6.347-3.486-9.596-1.418-4.408-3.202-8.698-4.909-13.253v-4.481c.189-.244.671-.591.753-1.015.427-2.216 2.19-3.066 3.946-3.717 3.976-1.473 7.976-2.905 11.946-4.373 3.059-1.13 6.15-2.232 9.203-3.403 3.249-1.247 6.464-2.588 9.837-3.541 2.877-.812 5.607-2.129 8.424-3.167 1.682-.62 3.412-1.105 5.102-1.705.604-.214 1.149-.588 1.852-.958h3.753c3.299 1.035 5.028 3.366 5.938 6.497.683 2.346 1.293 4.75 2.315 6.95.885 1.902 1.323 3.947 2.276 5.824.764 1.505 1.065 3.239 1.645 4.845.715 1.98 1.503 3.934 2.262 5.898.852 2.208 2.066 4.353 2.462 6.64.427 2.463 2.229 4.377 2.3 6.891 1.529 1.913 1.729 4.382 2.7 6.539 1.234 2.743 2.053 5.67 3.082 8.507 1.81 4.987 3.642 9.966 5.466 14.948 1.151 3.145 2.31 6.288 3.459 9.434 1.652 4.524 3.102 9.121 5.002 13.555.281.656.257 1.442.381 2.21l.855 1.131v4.019c-.893 1.872-1.845 3.678-3.763 4.951-3.981 1.435-8.12 2.943-12.271 4.413-1.763.624-3.667.947-5.301 1.802-1.899.994-3.923 1.576-5.898 2.293-3.43 1.245-6.767 2.721-10.3 3.722-2.953.838-5.754 2.203-8.647 3.266-1.984.729-3.969 1.6-6.03 1.938-2.117.348-4.184-.312-5.805-1.894-.926-.904-1.681-1.852-2.134-3.161-1.114-3.222-2.689-6.294-3.668-9.55-.782-2.601-1.934-5.029-2.83-7.567a909.366 909.366 0 0 0-3.312-9.21c-1.568-4.293-3.166-8.576-4.722-12.874-.147-.405-.077-.887-.117-1.463zm-15.856-51.225c.745 2.108 1.305 4.167 2.193 6.072.931 1.995 1.292 4.158 2.214 6.16 1.499 3.254 2.237 6.807 3.72 10.092.936 2.074 1.586 4.278 2.352 6.428.745 2.091 1.457 4.193 2.213 6.281a688.395 688.395 0 0 0 3.025 8.2c.261.691.794 1.319.896 2.021.366 2.509 2.056 4.6 2.188 7.167 1.214 1.6 1.571 3.55 2.232 5.382 2.024 5.61 4.099 11.202 6.161 16.797.871 2.361 1.761 4.715 2.565 6.868l1.666.757c3.357-1.461 6.914-2.339 10.271-3.8 1.936-.841 4.017-1.342 6.01-2.06 2.153-.775 4.31-1.554 6.413-2.452 5.472-2.337 11.241-3.861 16.711-6.213 2.766-1.189 5.681-2.029 8.522-3.045 1.076-.384 2.134-.817 3.167-1.215l1.708-1.48c-.853-2.285-1.668-4.416-2.441-6.563-.802-2.228-1.561-4.471-2.341-6.707-.375-1.075-.74-2.154-1.14-3.219-1.549-4.133-3.049-8.286-4.687-12.383-1.386-3.468-2.404-7.062-3.865-10.511-1.589-3.749-2.755-7.676-4.123-11.519-.875-2.458-1.903-4.871-2.63-7.371-.457-1.574-1.278-2.965-1.793-4.496-.727-2.163-1.304-4.404-2.291-6.444-1.038-2.146-1.194-4.535-2.25-6.661-.928-1.868-1.62-3.854-2.481-5.946-2.055.758-3.95 1.444-5.837 2.155-3.953 1.491-7.986 2.758-11.914 4.327-3.408 1.361-6.882 2.56-10.334 3.81-1.53.554-3.089 1.032-4.617 1.593-2.303.844-4.584 1.747-6.886 2.593-1.374.505-2.781.92-4.153 1.432-3.364 1.252-6.718 2.538-10.444 3.95zm53.707 79.107c-.265 2.564.786 4.627 2.368 6.496l2.087 1.03h3.432l2.949-1.255 1.535-3.023c.378-2.581.159-4.821-2.179-6.928-4.415-2.862-8.603-.569-10.192 3.68zM46.726 309.68c6.25-1.099 12.318-.505 18.364-.596 6.08-.092 12.162-.021 18.243-.021s12.163-.007 18.244.003c2.944.004 5.245 1.354 7.267 3.631.343 1.342.78 2.825 1.085 4.336.146.722.249 1.569.009 2.229-.709 1.95-.417 3.938-.424 5.906-.035 9.413-.016 18.826-.016 28.384-.267.377-.76.798-.896 1.312-.656 2.482-2.655 3.123-4.769 3.693-2.271.612-4.585.48-6.893.48-13.579.003-27.157.012-40.735-.013-1.385-.003-2.826.338-4.146-.408-1.362.947-2.697-.011-4.037-.085-3.548-.199-5.471-2.854-6.009-6.099-.094-.567-.016-1.164-.016-1.747 0-11.079.095-22.159-.058-33.236-.045-3.34 1.544-6.449 4.787-7.769zm-1.294 13.651c.191.437.579.887.482 1.171-.555 1.627.121 3.202.104 4.804-.076 7.081-.004 14.164-.053 21.245-.012 1.721.485 3.063 1.901 3.972h55.747c1.792-1.201 2.441-2.777 2.423-4.898-.083-9.914-.037-19.829-.037-29.744v-2.551c-.83.353-1.357.485-1.774.776-.54.377-.92 1.032-1.494 1.304-2.534 1.199-4.339 3.359-6.623 4.906-3.531 2.392-6.647 5.389-10.127 7.865-1.382.983-2.714 1.981-3.995 3.088-1.285 1.11-2.685 2.093-4.065 3.087-.713.514-1.495.933-2.191 1.361-5.057-3.92-9.887-7.7-14.758-11.428-4.905-3.754-9.85-7.456-14.778-11.181l-.653.744c.595 1.754.743 3.517-.109 5.479zm8.261-5.34l.044.278c.338.099.74.112 1.004.31.968.725 1.867 1.541 2.835 2.266 1.769 1.323 3.578 2.593 5.353 3.909 1.25.927 2.477 1.887 3.703 2.845 1.812 1.416 3.704 2.748 5.393 4.3 1.239 1.138 2.506 2.105 4.127 2.641 2.812-2.112 5.625-4.198 8.409-6.321 2.35-1.792 4.665-3.628 6.998-5.441 1.667-1.296 3.328-2.598 5.008-3.876 1.498-1.139 3.021-2.244 4.525-3.374.774-.581 1.606-1.12 1.909-2.159-2.324-.475-41.775-.652-53.777-.258l-.646.879 2.904 2.305.012-.019 2.199 1.715zm303.123 62.65c2.55 1.846 3.929 4.739 6.685 6.189 1.483 2.582 4.064 4.155 6.029 6.315-.675.592-1.118.337-1.676.036-1.551-.834-3.156-1.566-4.902-2.418-1.131 1.678-2.104 3.174-3.136 4.627-.382.537-.896.982-1.366 1.453-4.062 4.068-8.119 8.14-12.198 12.188-.589.585-1.289 1.058-1.722 1.408v1.638c.455.487.899.942 1.322 1.418 1.912 2.151 4.6 3.219 6.858 4.893 2.499 1.852 5.195 3.436 7.779 5.176 1.112.748 2.16 1.594 3.28 2.427l-2.53 2.054-5.63-1.875-2.932 2.217-.573-.455 1.34-2.451c-1.069-1.223-2.729-.798-3.979-1.538l-2.387 2.183-1.203-.961 1.521-1.896c-3.438-1.693-7.044-2.85-10.855-4.111-1.227 1.142-2.576 2.374-3.897 3.635-1.577 1.506-2.987 3.23-4.729 4.504-2.162 1.582-4.271 3.353-6.979 4.051-1.323.34-1.899.308-3.339-.455v-3.529c2.156-4.709 5.682-8.488 9.655-11.914.999-.86 1.921-1.811 2.897-2.738-1.289-3.849-2.191-7.635-3.97-11.327l-2.367 1.812-.395-1.161 1.959-2.203c.509-1.651-.406-2.882-1.192-4.259l-2.418 1.183c-.689-1.981 1.151-2.387 1.764-3.771-.269-1.831-1.195-3.739-1.864-5.844.699-.667 1.465-1.396 2.36-2.247.884 1.562 1.977 2.702 2.587 4.274.549 1.412 1.746 2.564 2.598 3.87.802 1.228 1.531 2.504 2.279 3.767.079.134.022.354.11.474 1.167 1.564 2.327 3.135 3.534 4.667.854 1.085 1.779 2.113 2.691 3.189.58-.296 1.155-.407 1.424-.755 1.505-1.953 3.556-3.326 5.255-5.07 1.743-1.789 3.49-3.58 5.312-5.288 2.401-2.252 4.941-4.337 7.799-6.01.489-.286.882-.739 1.305-1.104-.168-2.322-2.199-3.92-2.104-6.268zM94.364 62.841c-3.583-.267-6.694-.66-9.011-3.161L84.3 57.746c-.163-.062-.32-.185-.46-.167-1.132.141-2.288.202-3.384.488-2.361.615-4.754.461-7.143.485-1.083.011-2.166.005-3.248-.005-1.86-.016-3.637-.653-5.099-1.597-1.528-.988-2.799-2.482-3.914-3.958-.65-.86-.772-2.119-1.07-3.013-1.32-.67-2.566-1.142-3.621-1.885-1.008-.711-1.817-1.704-2.629-2.49-.494-2.29-1.237-4.384-.279-6.636.882-2.074 2.306-3.477 4.722-4.45l3.209.387c.949-1.402 1.117-3.163 1.137-4.074 1.263-4.979 2.761-8.906 7.138-11.278.967 0 2.317.155 3.618-.033 2.68-.387 4.583.822 6.275 2.657 1.325 1.437 2.815 2.74 3.557 4.632.111.283.433.483.772.844 2.261-2.38 5.079-3.794 8.259-5.1 1.064 0 2.398.046 3.728-.009 3.34-.14 5.5 1.712 7.037 4.349.899 1.543 1.396 3.317 2.105 4.974.184.43.485.81.705 1.167 2.311-.334 4.482-.869 6.663-.911 2.895-.055 5.831.508 8.128 2.33 1.73 1.372 2.739 3.462 2.977 5.771.059.577.009 1.165.009 1.681-1.146 3.176-3.474 5.073-6.497 6.226.876 4.677 1.295 9.1-3.308 12.288-3.106 1.465-6.042.492-8.727-1.475-1.515.792-2.896 1.493-4.257 2.232-1.615.877-3.276 1.515-5.168 1.4-.465-.029-.944.21-1.171.265zm18.027-16.218c1.408-2.221 3.802-1.841 5.331-3.025l2.197-1.612c.336-2.744-1.232-4.07-2.886-5.383-1.493-.181-3.034-.409-4.583-.547-2.075-.186-4.08.27-6.066.806-1.334.36-2.605.336-3.559-.433-.896-2.566-1.578-5.013-2.615-7.299-.577-1.273-1.412-2.474-3.15-2.868-2.165-.491-4.114-.062-5.955.799-2.603 1.218-5.016 2.767-6.406 5.479-.212.413-.705.681-1.109 1.055l-1.686-.27c-1.397-3.497-3.239-6.63-5.475-9.56l-2.349-1.167H72.1c-2.692.846-3.643 2.813-4.683 4.887-1.547 3.088-1.58 6.482-2.377 9.714-.244.988-.466 1.889-1.081 2.642-1.537.141-1.608.222-2.125-.236-1.24-1.099-2.623-1.245-4.362-.896-.315 1.062-.952 2.162-.892 3.222.119 2.116 1.772 3.599 3.984 4.141.934.229 1.836.583 2.547.814l1.429 5.277c.581.459 1.06.781 1.471 1.174a5.962 5.962 0 0 0 4.013 1.662c3.691.058 7.429.505 11.037-.88 1.276-.49 2.686-.63 4.141-.954.105.058.318.181.535.294.216.113.437.218.607.303 2.171 4.295 2.171 4.295 6.089 5.507 4.979.001 8.384-2.146 11.59-4.646h1.285c1.602 1.026 2.793 1.913 4.095 2.589 1.342.697 2.169.391 3.156-.854.309-.39.615-.782.918-1.167v-6.077c-.397-.916-.724-1.663-1.086-2.491zm23.21 374.963c1.96-2.241 4.079-1.043 6.16-1.001.741-2.983.993-6.025 2.253-8.781.646-1.413 1.26-2.888 2.18-4.116 1.161-1.551 2.916-2.146 4.804-2.745 2.334-.739 4.127.588 6.184.716.476 1.088 1.86.89 2.5 1.806.892 1.277 1.913 2.463 2.835 3.72.384.522.656 1.128.959 1.661l2.847-.429.307-1.571c2.481-1.82 5.226-2.94 8.874-3.072.683.166 1.984.361 3.197.804 2.441.89 4.181 2.437 4.843 5.138.378 1.546 1.222 2.977 1.91 4.585.214.066.569.311.814.229 1.685-.564 3.483-.189 5.127-.584 1.202-.289 2.162-.179 3.313.055 4.35.881 4.363.816 7.475 4.023l1.399 3.432-.572 3.676c-1.747 2.229-3.662 3.76-5.806 4.603l.368 6.796c-.907 3.068-2.741 4.674-5.062 5.993h-3.886c-1.542-.579-2.822-1.847-4.491-2.021-2.291 2.078-4.941 3.023-7.781 3.546-.961.177-1.949.546-2.885.446-1.528-.162-3.034-.6-4.527-1-.542-.146-1.104-.434-1.514-.811-1.15-1.062-2.226-2.205-3.598-3.585-1.285.13-2.986.247-4.67.487-1.771.252-3.573 1.045-5.274.848-3.201-.372-6.54-.287-9.468-2.172-2.174-1.399-3.242-3.377-3.938-5.721-.198-.668-.619-1.27-.879-1.785-3.652-.425-5.264-2.85-6.741-6.004.18-1.115.477-2.559.628-4.016.159-1.517 1.901-1.97 2.115-3.15zm30.895 18.966c.326.245.792.421.952.747.772 1.576 2.135 2.451 3.595 3.244h5.436c2.637-1.24 5.475-2.018 7.063-4.289 1.825-.648 2.586.71 3.684 1.281 1.144.596 2.337 1.094 3.628 1.689l2.322-1.539c.792-2.896.628-5.392.216-7.809l-.903-1.415 1.385-1.835c2.563-.283 4.652-1.275 6.05-3.397v-2.03l-3.076-3.039c-2.721-.752-5.42-.78-8.252-.244-1.785.338-3.649 1.258-5.765.299-.502-1.473-1.02-3.096-1.608-4.694-.612-1.662-1.292-3.3-1.888-4.808l-2.314-1.13c-5.137-.413-9.677 2.437-12.877 6.856h-2.529c-.746-1.883-1.219-3.841-2.243-5.447-1.04-1.63-2.624-2.913-3.852-4.222-.655-.209-1.135-.325-1.585-.514-1.198-.503-2.309-.198-3.275.484-.737.521-1.475 1.168-1.938 1.926-1.726 2.826-2.904 5.913-3.166 9.208-.154 1.945-.871 3.622-1.398 5.347-.922.451-1.685.532-2.396-.153-1.127-1.088-2.491-1.188-4.108-.894l-1.102 2.864 1.244 3.608 4.367 1.335 1.36 1.004v2.221c.767 1.16 1.337 2.383 2.233 3.279.905.904 2.132 1.487 3.218 2.212 5.637.57 10.958-.45 16.119-2.114.347.374.651.644.88.967.217.305.353.666.524 1.002l-1.227.167 1.059 1.06.167-1.227zM33.771 168.432l-6.702 1.853.059.24h-2.201c-1.248-.595-.904-1.661-.88-2.599.903-1.758 2.784-1.865 4.259-2.18 2.248-.48 4.333-1.431 6.572-1.874 1.427-.282 2.847-.605 4.371-.931l.975.984 2.741 14.288-1.209 1.307h-1.858l-1.011-1.367-1.466-6.841c-.531.782-.83 1.192-1.099 1.622-1.656 2.653-2.579 5.639-3.855 8.464-1.61 3.563-2.739 7.272-3.681 11.057-.708 2.845-1.278 5.714-1.794 8.597-1.291 7.212-1.068 14.498-.952 21.767.033 2.099.606 4.188.915 6.284.19 1.292.194 2.593.404 3.902.505 3.155 1.387 6.2 2.132 9.285a103.835 103.835 0 0 0 2.745 9.357c1.562 4.553 3.598 8.904 5.322 13.385.614 1.595 1.551 3.081 2.461 4.542 1.344 2.156 2.189 4.632 3.651 6.644 1.904 2.621 2.939 5.87 5.726 7.897l.121 2.047-2.299 1.546c-.508-.398-1.048-.67-1.37-1.104a106.277 106.277 0 0 1-3.537-5.025c-1.079-1.644-2.133-3.312-3.068-5.041-1.318-2.436-2.519-4.935-3.765-7.409-1.122-2.229-2.216-4.472-3.362-6.688-.75-1.45-1.082-3.109-1.786-4.495-1.127-2.219-1.712-4.573-2.543-6.859-1.7-4.679-2.959-9.471-3.858-14.383-.665-3.629-1.073-7.27-1.567-10.909-.387-2.85.152-5.768-.811-8.56-.256-.743-.256-1.733.013-2.468.686-1.872.308-3.773.438-5.655a87.746 87.746 0 0 1 1.223-9.722c.409-2.238 1.151-4.422 1.295-6.718.056-.886.26-1.784.534-2.633 1.129-3.491 2.177-7.018 3.512-10.431 1.189-3.04 2.716-5.947 4.098-8.911.275-.588.57-1.168 1.107-2.265zm.29 6.205c.159-.286.35-.475.321-.619-.03-.146-.287-.353-.426-.339-.134.013-.341.274-.338.423.003.148.228.291.443.535zm91.725-74.146c.475 1.501-.036 2.28-1.228 3.064-.536-.073-1.334-.151-2.12-.294-1.525-.277-2.99-.776-4.593-.759-1.371.014-2.747-.362-4.118-.583-.641-.103-1.275-.251-1.915-.369-.401-.074-.827-.072-1.204-.209-.376-.136-.706-.403-1.066-.618 0-1.108-.205-2.236.037-3.258.952-4.028 2.044-8.023 3.069-11.97l1.967-.984 1.956 1.862-1.942 8.239c1.767-.867 3.388-1.664 5.01-2.457 2.917-1.427 5.778-2.989 8.771-4.234 2.391-.995 4.945-1.598 7.422-2.387.389-.124.748-.34 1.135-.464 3.495-1.123 7.014-2.137 10.685-2.524 1.053-.111 2.159-.167 3.127-.54 1.459-.563 2.949-.264 4.402-.477 4.452-.651 8.938-.664 13.387-.391 3.047.187 6.161.009 9.123.542 3.028.544 6.13.71 9.13 1.676 1.724.555 3.696.541 5.479 1.194 3.057 1.121 6.316 1.526 9.353 2.782 2.019.834 4.237 1.18 6.217 2.182.785.397 1.568.797 2.221 1.129.68.147 1.314.163 1.831.417 4.614 2.275 9.25 4.511 13.788 6.93 2.363 1.26 4.511 2.92 6.822 4.284.887.523 1.217 1.245 1.596 2.246l-1.975 2.167c-1.458-.863-2.912-1.66-4.301-2.558-5.248-3.391-10.852-6.072-16.5-8.727-4.365-2.052-8.912-3.418-13.428-4.985-2.928-1.016-6.04-1.362-8.867-2.761-1.18-.583-2.733-.383-4.104-.618-2.646-.455-5.284-.966-7.927-1.45a2.76 2.76 0 0 0-.498-.032c-5.302.004-10.619-1.161-15.872-.4-3.646.528-7.452-.305-10.951 1.302-2.674-.217-5.105 1.246-6.958 1.162-9.28 2.357-17.304 5.822-25.07 10.191.168.563.654.661 1.237.758 1.685.28 3.374.562 5.027.98.74.188 1.395.704 1.845.942zm147.166 223.066c2.286 1.089 4.71 1.806 6.271 4.13 2.946-.759 5.865-.818 8.771-.011 4.374 1.586 6.199 5.268 7.506 9.965v3.408c1.61 1.493 3.225 2.893 4.067 5.027.923 2.336.379 4.458-.813 6.344-1.637 2.588-4.021 4.406-7.038 5.248-.859.239-1.741.397-2.603.591-.896 1.339-1.931 2.607-2.658 4.032-1.447 2.832-4.052 3.784-6.832 4.199-2.884.431-5.799-.011-8.386-1.417-1.932-1.051-3.666-2.464-5.699-3.859-2.756 2.53-6.35 2.604-10.224 2.234-1.869-1.176-3.471-2.784-4.262-5.156-.4-1.2-.926-2.316-.143-3.533a.538.538 0 0 0 .06-.235c.191-2.461.38-4.922.566-7.336-.78-1.873-1.879-3.514-2.251-5.51-.692-3.704.451-6.669 3.034-9.306 1.479-1.51 3.152-1.965 5.157-1.834 1.803.117 3.638-.204 5.394.501.271.108.641-.027 1.076-.058.19-.455.364-.892.556-1.321.63-1.417 1.14-2.909 1.936-4.226.823-1.361 2.325-1.751 3.839-1.865.91-.068 1.83-.012 2.676-.012zm-5.791 33.033c3.212 4.614 7.333 6.828 13.262 5.751 1.116-.479 2.467-1.253 3.503-2.689.688-.954 1.077-2.005 1.457-3.012.35-.929.746-1.603 1.434-1.991 4.267-.252 7.589-1.813 9.646-5.544.295-2.441-1.047-3.747-3.101-4.615-.664-.281-1.255-.734-1.842-1.086v-7.284c-.415-.677-.696-1.285-1.11-1.784-1.061-1.276-2.137-2.558-3.732-3.218-2.574-1.065-5.025-.624-7.267.837-.876.57-1.579.801-2.48.29-.57-1.186-1.129-2.343-1.696-3.521-1.646-.479-2.993-2.022-4.739-1.645-1.765.93-2.109 2.445-2.528 3.979s-.324 3.311-1.679 4.384c-1.674.363-3.063-.068-4.203-.874-2.323.102-4.537-1.313-6.646.291-.25.189-.446.47-.7.68-1.397 1.153-1.854 2.631-1.777 4.415.058 1.369.549 2.576 1.101 3.749 1.222 2.597 1.066 5.233.661 7.97-.265 1.788-.361 3.664-.114 5.442.157 1.133.858 2.358 2.407 2.497.386.035.751.307 1.254.526.98-.944 2.479-.211 3.611-1.15 1.065-.882 2.331-1.522 3.712-2.397l1.566-.001zM147.38 6.678l6.385 1.067c.626-1.479 1.288-3.103 1.999-4.704.897-2.021 4.043-3.514 6.379-2.903 2.638.689 5.211 1.581 7.125 3.991 4.261-1.084 8.563-1.085 11.996 2.049 3.332 3.043 4.661 7.103 4.219 11.673.614.417 1.203.724 1.679 1.156 1.23 1.119 2.453 2.25 2.402 4.147-.01.364.318.737.367.842l-.624 3.895c-1.253.886-1.026 3.406-3.319 3.704-1.115 1.5-3.006 1.829-4.472 2.97h-2.64c-1.277 2.422-2.476 4.777-4.621 6.571-1.159.97-2.416 1.376-3.762 1.645-4.156.83-8.009.04-11.454-2.46-1.113-.808-2.129-1.747-3.033-2.495-2.193.918-4.236 1.889-6.365 2.603-.785.263-1.791.012-2.663-.166-.953-.195-1.868-.578-2.974-.935l-2.165-2.227-1.393-3.358 1.068-9.368c-.46-2.007-1.584-3.535-2.132-5.35-.78-2.586-.211-4.875.71-7.16.609-1.513 1.323-3.061 3.049-3.714.521-.197 1.032-.418 1.557-.599.849-.29 1.705-.556 2.682-.874zm29.912 1.033l-3.98-.601-5.681 1.719c-1.211-.306-1.412-1.372-1.835-2.229-.971-1.967-2.921-2.362-4.654-3.114l-1.817.913-1.818 3.631c.033 1.449.062 2.954-1.312 3.968-3.299.409-6.172-1.835-9.318-1.402l-2.653 1.361-1.775 4.221c.615 1.501 1.298 2.902 1.764 4.371.643 2.023 1.279 4.082.423 6.235-.146.367-.13.811-.133 1.22-.012 2.077-.005 4.153-.005 6.324l2.084 2.142c3.852.458 6.431-1.699 9.267-3.624.605.478 1.165.905 1.707 1.351 1.633 1.341 3.139 2.89 4.928 3.97 1.348.813 2.955 1.546 4.637 1.361 3.304-.363 6.155-1.439 7.446-4.964.46-1.255 1.325-2.362 1.981-3.493 2.497.08 4.557-.502 6.47-1.769 2.024-1.34 3.56-2.884 3.438-5.531-1.506-1.464-2.699-3.195-4.884-3.732v-6.084c-.974-3.202-2.537-4.858-4.28-6.244zM129.207 124.01c-2.722.052-5.571.452-6.691-3.053v-5.932l1.367-2.077c1.605-1.049 3.412-.949 5.21-.855l1.754 1.22 1.148 2.218c0 .891-.085 1.971.018 3.034.192 1.989-.526 3.533-2.041 4.765-.255.208-.492.437-.765.68zm.213-3.598v-4.679c-.794-.617-1.171-1.7-2.572-1.689l-1.813 1.707v4.632c.779.491 1.122 1.581 2.528 1.715l1.857-1.686zm-70.758-4.48l1.755 1.734c.095 2.479.763 5.022-2.475 6.303-3.317.189-3.317.189-5.065-1.334l-1.354-3.47v-2.417l1.434-3.164c2.09-1.919 3.703-2.16 6.721-.626l.798 1.602c-.17.197-.255.395-.375.419-.631.126-1.271.208-2.09.333l-.808-1.165h-1.612l-1.694 2.347 4.765-.562zm-4.635 3.987l1.854 2.34 2.548-.868v-1.284c-.667-.89-1.159-1.546-1.479-1.975h-1.868l-1.055 1.787zm41.526-5.119l-2.411.563-1.448-1.274c-1.27-.12-1.862.541-2.091 2.214l4.203-.323 1.627 1.958c.107 2.299.672 4.835-2.515 6.062-3.269.112-3.269.112-5.286-1.682-.069-.415-.078-1.002-.279-1.515-.173-.442-.564-.798-.833-1.157v-2.703c1.009-1.128.615-3.081 2.457-4.207 3.538-.842 3.538-.842 5.658.148l.918 1.916zm-5.471 3.322l-1.061 1.832 1.752 2.138c1.555-.109 2.322-.821 2.698-2.167l-1.088-1.803h-2.301zm-19.684-5.945v2.383a10910.5 10910.5 0 0 0-3.947-.25l-1.374.49v1.41l3.958-.193c2.383 2.211 2.647 5.271.714 7.029-1.937 1.763-5.245 1.343-7.235-.939-.053-1.383.79-1.644 2.089-1.5l1.023 1.352 1.624.077c.887-.922 1.442-1.878 1.147-3.31l-2.188-.858-1.524 1.108h-1.837c-.695-.68-.225-4.697.75-6.798l6.8-.001zm42.551 11.073l-1.434-2.866v-5.165l1.521-2.408c2.041-.837 4.278-1.38 6.633.12l1.042 2.071c.22 2.657.82 5.287-.931 7.799l-1.625 1.175c-1.819.208-3.593.123-5.206-.726zm5.525-7.429l-1.601-1.714h-2.089c-.704 1.822-1.673 3.455-.855 5.573.533 1.381 1.13 2.268 2.891 2.409l1.654-1.635v-4.633zm-19.511 3.324l-1.732-.489.404-6.474h7.177l.226 2.065c-.327.091-.543.202-.76.203-1.259.001-2.517.14-3.755-.353-.337-.134-.876.236-1.358.387l.418 1.74c.126.025.271.101.385.068 1.576-.45 3.088-.392 4.505.52 1.207 1.191 1.041 2.707 1 4.169-.736 2.183-2.203 3.264-4.508 3.063-1.94-.169-3.739-.583-4.297-2.851 1.039-.605 1.038-.613 2.435-.597l1.015 1.353h1.782l1.188-1.957-1.9-2.644-2.225 1.797zm-62.507-2.616v-1.724l-1.861-.895-1.616 1.409.356 1.137h-2.659l-.231-2.185 2.393-2.121h4.551l1.73 1.692-.632 1.911.552 1.69-3.752 4.264h3.925l-.315 2.028c-2.716.386-5.384-.512-8.23-.115l-.193-1.69c2.305-1.407 4.667-2.791 5.982-5.401zm63.441 19.041l1.748.826c1.034 2.619.912 5.236.785 8.003h-2.167c-.084-.16-.217-.297-.221-.438-.029-1.081.032-2.168-.065-3.242-.078-.868-.337-1.719-.559-2.782l-2.387.452v6.018h-2.414v-12.236h2.11c.605.99.19 1.986-.187 2.985l.645 1.224c1.196.636 1.586-.815 2.712-.81zm-65.399 6.984l-.879-1.114c.777-1.345 1.565-2.495 3.339-2.449.495.012 1.001-.444 1.781-.819l-1.422-1.042-2.291 1.31-.645-1.365 2.21-1.657 2.741.729c1.763 1.904.809 3.976 1.361 5.94l1.768-.773v-4.299c-1.201-1.586-2.898-2.3-4.781-2.792-.148.072-.38.292-.59.273-1.83-.163-3.156.701-4.303 2-.208.235-.524.375-.791.559l.001.001-.401-.876 2.565-2.624c1.681 0 3.248-.03 4.813.007 2.323.055 4.178 1.759 4.523 4.049.283 1.879.263 3.68-1.098 5.297-1.192.253-2.39.302-3.533-.415l-2.99 1.027-1.378-.967c.561-.035 1.195-.011.593-1.207l-.593 1.207zm1.468-1.206c1.099.3 1.918.442 2.39-.625-1.386-.871-1.386-.871-2.39.625zm45.377-19.784l-1.23-.36-.242 2.126-2.225.737-.26-2.266c-1.668-1.185-3.444-.787-5.332-.475-.301-1.968.886-3.397 1.83-4.873.903-1.411 1.938-2.737 3.043-4.279h2.661c.859 2.293.097 4.725.498 7.125l1.379.536-.122 1.729zm-5.346-5.511l-1.621 3.469c1.319-.067 2.432.469 3.066-.829 0-.943.011-1.851-.016-2.757-.003-.102-.224-.198-.419-.359l-1.01.476zm-61.629 5.823c-1.522-1.676-3.894.066-5.463-1.686l1.696-3.456 2.23-.5-1.24-.943 2.568-3.153c.957-.036 1.882-.384 2.776.665v6.432l1.481.58v1.68l-1.281-.255-.349 1.984-2 .449-.418-1.797zm-.017-2.844c.155-1.164.354-2.307-.217-3.646-1.515 1.045-1.641 2.716-2.975 4.037 1.273.078 2.112.393 3.192-.391zm-3.781 16.592l2.137.786.744 2.889-.218-.016-.354 5.097-2.214.217c-.338-1.993-.027-3.899-.204-5.71-.711-1.058-1.446-1.123-2.454-.07v5.601H5.601v-8.125c.804-.39 1.657-.338 2.608.091l2.361-.76zm47.455 9.133l-.937-1.19-1.462 1.163c-.267-3.041-.119-5.762.099-8.688l2.803.243c1.301-.963 2.795-1.064 4.471.549l-.279 3.498.484.358v3.782l-1.229-.855-1.378 1.192v-5.727c-.847-1.23-1.577-1.339-2.571-.271l-.001 5.946zm-12.497-2.089v-4.707c.761-1.457 2.324-1.711 3.645-2.5l3.592 1.432.711 3.425c-1.985.71-4.1-.437-5.885.828 1.604 1.859 1.613 1.86 4.133.407.977.151 1.409.696 1.196 1.699-2.618 2.08-5.108 1.888-7.392-.584zm2.689-5.052l-.597 1.271c1.621.928 2.661.908 3.247-.071l-.644-1.199-2.006-.001zm-26.677 4.98v-5.025l3.334-2.046 3.13.745 1.297 1.432.56 2.393-.559 2.362c-.874.937-1.8 2.198-3.5 2.076-1.569-.113-3.261-.059-4.262-1.937zm4.048-4.999c-2.541 1.285-2.733 2.514-.807 4.865 1.267.407 2.026-.259 2.642-1.225v-2.37l-1.835-1.27zm47.006 2.814l-.472 3.519-4.478.76-2.235-1.571.782-1.753 1.53 1.052h2.868c-.946-1.787-2.5-1.207-4.083-1.501l-.958-1.043v-2.389c.431-1.358 1.827-1.365 2.91-1.862 1.348.728 3.164.118 4.434 1.667l-1.306 1.371-1.449-1.061c-.847.014-1.81-.381-2.472.611.189.842.854.893 1.512.842 1.226-.096 2.261.266 3.417 1.358zm13.785-.974l1.046 3.069c.688-.045 1.545.156 1.883-.174.954-.932 2.005-.495 3.282-.743l-.803 1.921c-2.932 1.709-4.948 1.5-7.152-.68l-.456-3.017.522-2.134 2.862-2.058 3.44.644 1.772 2.543-2.387.294-1.91-1.713c-.713.698-1.394 1.361-2.099 2.048zm-65.99-3.181c-.265.435-.45 1.124-.767 1.191-1.706.362-1.586 1.559-1.542 2.838.049 1.427.135 2.891-.952 4.267l-1.603-1.389v-5.167c-.221-.175-.416-.31-.586-.47-.167-.157-.309-.341-.42-.465 0-.177-.036-.297.005-.336 1.173-1.138 1.009-3.052 2.307-4.078.968-.766 2.158-.691 3.562-.453l-1.013.79 1.018.882-1.816.355-.095 1.553 1.902.482zm3.464-12.296h-2.048c-.118-.212-.258-.348-.26-.486-.027-1.823-.016-3.646-.058-5.468-.013-.547-.163-1.09-.268-1.749l-2.084.289v-2.363c1.418-.082 2.393-.873 2.997-2.052h1.512c.459.449.556 7.35.209 11.829zm21.57-11.798v11.255h-2.289c-.42-2.328.216-4.738-.413-7.157l-2.103.296-.089-1.946 3.431-2.447 1.463-.001zm34.039 23.478v2.717l-1.383-.071c-1.466.579-.844 2.288-1.564 3.319l.595 2.806-2.484.119v-8.358h1.548l.806.922c.783-.46 1.553-.91 2.482-1.454zM7.9 117.662v1.301c-.611.032-1.173.015-1.718.102-.527.084-1.037.276-1.615.438l-.143 2.961-1.518.074c-.069-.166-.194-.318-.159-.404.401-.969.387-1.894-.162-2.887l-2.48-.344-.106-1.14 2.291-.334c1.124-.825.64-1.789.418-2.792h1.565l.544 2.781 3.083.244zM.631 136.157h2.367c-.268 2.833.604 5.631-.696 8.309H.631v-8.309zm347.316-41.754c.185-1.772 1.002-1.939 2.19-1.777l3.978 4.227-.967 1.735c-.407-.117-.887-.114-1.149-.351-1.413-1.277-2.771-2.612-4.052-3.834z"/><path d="M31.997 137.053l-.326 2.896 1.015 3.226c1.015.5 1.968.939 2.891 1.434 1.176.63 2.348.633 3.559.127.617-.258 1.231-.33 1.806.189-1.946 1.393-1.946 1.393-7.188.509l-3.212-3.624v-3.586l1.455-1.171zM422.583 244.65h2.072c.066.063.174.117.18.18.158 1.868.342 3.735.426 5.606.016.344-.371.707-.665 1.224-.665-.175-1.331-.351-2.013-.529v-6.481zm-7.159 56.696c.49-1.243 1.186-2.356 1.163-3.756-.011-.642.596-1.294.995-2.086l1.945.789c-.11 2.229-1.287 4.064-1.508 6.052-1.201.329-2.042.338-2.595-.999zm-9.565 26.588c.694.406 1.168.685 1.791 1.051-.994 2.205-1.742 4.417-3.563 6.261l-1.506-1.333c1.066-1.944 1.494-4.205 3.278-5.979zm6.166-8.747l-1.806-.546c-.855-2.329 1.688-3.674 1.278-5.756.524-.295 1.015-.569 1.583-.89l1.267 1.162-2.322 6.03zm-26.048 45.806l-1.527-1.705c.818-2.191 2.521-3.516 3.766-5.223.381.034.73-.01 1.008.111.283.125.496.412.784.668-.741 2.275-2.324 3.927-4.031 6.149zm15.117-203.692l2.992 5.396-.875 1.917c-.498-.18-1.139-.209-1.318-.511a46.397 46.397 0 0 1-2.32-4.472c-.174-.383-.076-1.027.143-1.409.202-.353.737-.514 1.378-.921zm-10.203-13.067c.373-.698.6-1.124.805-1.505.808-.403 1.375-.018 1.738.544.959 1.487 1.838 3.027 2.695 4.457-.829 1.076-.829 1.076-1.973 1.315l-3.265-4.811zm31.143 130.325c1.221.626 1.015 1.604.908 2.473-.146 1.196-.423 2.377-.27 3.81l-1.646 1.284-1.456-1.216 1.025-5.002 1.439-1.349zm-62.315-173.048l2.527-.566 3.27 4.007-.196 2.371c-2.369-1.534-4.27-3.028-5.601-5.812zm49.399 78.787l-2.572-5.787c.51-1.195 1.421-1.096 2.572-.715.331 1.879 1.98 3.327 1.869 5.639l-1.869.863zm7.833 14.868c-.235.434-.468.859-.677 1.241-1.102.424-1.533-.396-1.988-.865l-1.297-4.413c.214-.434.463-.938.736-1.496.334 0 .754-.127.939.027.348.289.654.707.811 1.133.531 1.44.988 2.908 1.476 4.373zm4.46 17.235l-1.172.975-1.453-.99-1.262-5.628c.945-.265 1.791-.382 2.676.182l1.211 5.461zm.021 10.764l1.942.584.739 6.016-.909.828-1.7-.8c.522-2.139-1.21-4.227-.072-6.628zm-26.821 122.311c-.441-2.521 1.771-3.729 2.243-5.643 1.119-.436 2.016-.521 2.658.745l-2.939 4.897-1.962.001zm-8.206-213.12v1.996c-.304.072-.58.233-.747.157-.429-.196-.924-.413-1.19-.771-1.074-1.446-2.072-2.949-3.2-4.578.653-.445 1.154-.785 1.626-1.105 2.036.845 2.273 3.008 3.511 4.301zm37.953 132.107h-2.167c-.06-.439-.218-.913-.165-1.361.188-1.602.447-3.195.711-5.003.562-.769 1.291-.799 2.3.304-.203 1.798-.425 3.792-.679 6.06zm-52.883-149.804c2.045.064 2.641.426 4.915 3.68v1.986c-1.245.592-1.718-.391-2.322-.971-1.287-1.232-2.559-2.496-2.593-4.695zm6.644 252.963l1.258.642.098 1.398-3.164 3.819h-1.667c-.543-3.014 2.115-3.987 3.475-5.859zM80.068 144.392v-2.681h2.816l.117 2.681h-2.933zM.574 134.609v-1.919l1.675-.114.845 1.801-2.52.232zm275.598 119.452l.734.695c-.621 1.044-1.439.883-2.364.603.126-1.095 1.034-.955 1.63-1.298zm-120.675 5.493l4.3.62-.004.357c-1.012.004-2.038.109-3.028-.033-.458-.066-.847-.615-1.267-.946l-.001.002zm6.785-3.873l-4.55-.784c2.051-.556 2.345-.519 4.55.784zm-6.784 3.871l-.867-.129.132-.317.734.448.001-.002zm-28.582 1.011l-1.314-1.499c1.203 0 2.26-.009 3.316.005.311.004.621.067 1.117.126l-1.218 1.283-1.901.085zm-1.533-5.111l1.492-1.388c1.118-.034 1.54.598 2.072 1.388h-3.564zm67.114 4.102l4.934.75c-.653.425-1.006.741-1.078.688-1.147-.865-3.059.312-3.854-1.439l-.002.001zm2.657-4.749c1.685-.404 2.746-.319 3.693.552-1.217.578-2.13-.304-3.693-.552z"/><path d="M192.498 259.552l-.867-.129.132-.316.734.447.001-.002z"/></g></svg>