<?xml version="1.0" encoding="utf-8"?>
<!-- Generator: Adobe Illustrator 16.0.0, SVG Export Plug-In . SVG Version: 6.00 Build 0)  -->
<!DOCTYPE svg PUBLIC "-//W3C//DTD SVG 1.1//EN" "http://www.w3.org/Graphics/SVG/1.1/DTD/svg11.dtd">
<svg version="1.1" id="pulse" xmlns="http://www.w3.org/2000/svg" xmlns:xlink="http://www.w3.org/1999/xlink" x="0px" y="0px"
	 width="281.004px" height="278.967px" viewBox="0 0 281.004 278.967" style="enable-background:new 0 0 281.004 278.967;"
	 xml:space="preserve">
<path style="fill:#009989;" d="M244.826,37.346c-14.645-9.365-16.8-13.072-65.806-29.896c0,0-75.8-35.893-143.512,49.893
	c0,0-15.135,19.435-27.927,40.976c-4.748,7.998-13.717,27.313-1.233,60.05c12.416,32.557,28.663,37.879,41.039,71.458
	c8.618,23.401,35.688,58.068,86.521,47.028c29.468-6.407,30.607-17.657,70.582-17.021c28.359,0.459,71.463-22.581,71.846-58.145
	c0.182-17.299,2.576-45.191,3.91-65.081C281.845,112.644,284.604,62.787,244.826,37.346"/>
<path style="fill:#FFFFFF;" d="M181.608,130.339L181.608,130.339v0.012V130.339z M151.2,103.615
	c0.259-0.941,0.482-2.121,0.721-3.368c0.757-3.989,1.796-9.451,4.855-11.006c0.653-0.341,1.372-0.521,2.077-0.521
	c1.084,0,2.038,0.432,2.682,1.214c1.432,1.742,0.777,4.554,0.053,7.052c-0.402,1.353-0.722,2.723-1.04,4.093
	c-0.366,1.562-0.741,3.178-1.249,4.744c-0.807,2.668-1.59,4.822-3.622,6.244c-0.698,0.467-1.431,0.711-2.122,0.711h-0.002
	c-1.023,0-1.87-0.537-2.447-1.552C149.899,109.08,150.491,106.285,151.2,103.615 M96.997,109.402
	c0.454-2.594,2.243-5.148,4.453-6.355c1.407-0.776,3.079-1.167,4.973-1.167c2.555,0,5.521,0.702,8.817,2.09
	c-0.159,0.428-0.314,0.853-0.469,1.276c-1.214,3.339-2.362,6.493-5.321,9.202c-1.523,1.382-3.716,2.207-5.862,2.207
	c-2.158,0-4.055-0.808-5.342-2.285C96.785,112.713,96.76,110.753,96.997,109.402 M103.654,121.954c1.691,0,3.455-0.257,5.093-0.745
	c3.618-1.049,5.97-4.069,7.428-6.255c1.807-2.751,3.039-6.021,3.82-8.599l0.134,0.066c2.823,1.387,5.742,2.819,8.748,3.868
	c0.613,0.229,1.551,0.669,2.488,1.109c0.661,0.312,1.323,0.622,1.885,0.867c-0.063,0.394-0.13,0.858-0.13,1.584
	c0,3.234,1.364,5.61,3.822,6.675c0.414,0.19,1.056,0.417,1.762,0.417c1.295,0,2.223-0.778,2.486-2.079
	c0.303-1.525-0.857-2.325-1.551-2.804c-0.199-0.136-0.402-0.272-0.594-0.447c-0.49-0.417-0.597-1.604-0.504-2.596
	c0.857-0.041,1.6-0.135,2.376-0.235c0.39-0.051,0.787-0.1,1.27-0.152c1.23-0.204,2.31-0.625,3.33-1.168
	c0.639,3.048,2.383,5.216,5.116,6.155c0.788,0.333,1.621,0.504,2.475,0.504c3.273,0,6.187-2.461,7.861-4.23
	c2.096,2.74,6.366,3.585,9.18,3.001c2.551-0.449,4.934-1.933,6.723-4.024c1.098,1.999,2.74,3.413,4.932,4.145
	c0.774,0.267,1.58,0.399,2.397,0.399c1.208,0,2.385-0.321,3.503-0.829c-0.197,0.607-0.414,1.202-0.661,1.786l-0.399,1.01
	c-1.163,2.962-2.48,6.322-5.509,6.99c-0.887,0.185-1.283-0.043-2.178-0.698c-0.343-0.251-0.709-0.518-1.145-0.771
	c-1.744-0.997-3.693-0.139-4.021,1.865c-0.119,1.047,0.147,1.979,0.77,2.699c1.493,1.723,4.619,1.819,6.488,1.876l0.562,0.016
	c3.726,0,7.112-3.485,8.685-6.721c1.16-2.382,1.781-5.001,2.379-7.533c0.245-1.039,0.488-2.066,0.763-3.049
	c0.458-1.574,0.847-2.801,1.233-4.017c0.544-1.715,1.077-3.401,1.77-5.941c0.552-1.982,0.925-4.18,1.287-6.305
	c0.495-2.917,1.006-5.927,1.985-8.528c0.271-0.008,0.561-0.021,0.854-0.035c0.805-0.037,1.766-0.066,2.201-0.037l0.303,0.039
	c0.54,0.075,1.358,0.188,2.183,0.188c1.455,0,2.445-0.353,3.025-1.076c0.327-0.408,0.665-1.131,0.414-2.255
	c-0.374-1.717-2.565-1.717-3.501-1.717c-0.523,0-1.092,0.027-1.67,0.053c-0.996,0.043-2.067,0.078-2.794,0.004
	c0.141-0.516,0.295-1.025,0.438-1.498c0.167-0.551,0.314-1.047,0.391-1.364c0.474-1.421,0.923-2.762,1.558-3.972
	c0.917-1.464,2.687-3.18,4.648-3.18c0.571,0,1.134,0.151,1.653,0.436c0.191,0.113,0.416,0.313,0.651,0.527
	c0.573,0.516,1.286,1.158,2.29,1.158c0.323,0,0.649-0.07,0.972-0.212c1.073-0.479,1.349-1.266,1.416-1.693
	c0.167-1.045-0.486-2.057-1.133-2.639c-1.724-1.629-3.651-2.456-5.729-2.456c-4.96,0-9.204,4.692-10.671,9.096
	c-0.558,1.6-1.307,4.017-1.814,5.76c-0.349,0.027-0.72,0.014-1.456-0.055c-0.393-0.056-0.783-0.103-1.144-0.103
	c-1.704,0-2.294,1.096-2.483,2c-0.227,0.979-0.104,1.776,0.363,2.364c0.741,0.931,2.074,0.931,2.512,0.931
	c0.423,0,0.863-0.035,1.268-0.07c-0.19,0.866-0.491,1.892-0.698,2.594l-0.191,0.664c-0.363,1.187-0.602,2.395-0.831,3.561
	c-0.18,0.907-0.356,1.817-0.59,2.684c-0.303,1.018-0.57,2.035-0.833,3.043c-0.287,1.102-0.573,2.193-0.907,3.279
	c-0.199,0.683-0.363,1.38-0.528,2.076c-0.086,0.155-0.168,0.302-0.261,0.467c-0.197,0.347-0.406,0.715-0.636,1.143
	c-0.833,1.594-2.48,2.748-4.222,2.944c-1.757,0.241-3.239-0.739-3.891-2.501c-0.603-1.673-0.444-3.047-0.111-5.121
	c0.377-2.503,1.062-5.03,1.778-7.576c0.402-1.253,0.657-2.543,0.902-3.788c0.208-1.059,0.408-2.059,0.68-3.011
	c0.667-2.143,1.076-4.364,1.471-6.511c0.522-2.835,1.017-5.513,2.074-8.074l0.07-0.208c0.385-1.132,0.97-2.841,0.165-4.055
	c-0.276-0.417-0.832-0.929-2.052-1.009c-1.521,0-2.745,1.478-3.269,3.924c-0.469,1.912-0.891,3.837-1.311,5.758
	c-0.625,2.86-1.27,5.818-2.076,8.657c-0.47,1.672-0.805,3.411-1.128,5.093c-0.174,0.91-0.349,1.815-0.544,2.706
	c-0.156,0.725-0.385,1.417-0.61,2.096c-0.109,0.329-0.217,0.654-0.293,0.911c-0.381,0.99-0.801,2.527-1.046,4.295
	c-0.105,0.424-0.163,0.81-0.195,1.051c-0.247,1.665-0.985,2.652-2.102,4.148l-0.397,0.535c-1.232,1.666-2.174,2.763-3.966,2.763
	l-0.326-0.014c-1.132-0.036-2.003-0.482-2.662-1.367c-1.374-1.835-1.487-5.225-0.903-7.459c0.332-1.176,0.69-2.397,1.048-3.613
	c0.314-1.072,0.628-2.141,0.925-3.182c0.429-1.529,0.674-2.925,0.933-4.404l0.253-1.443l0.059-0.206
	c0.566-1.989,1.016-4.193,0.068-5.447c-0.285-0.377-0.816-0.825-1.803-0.825h-0.002c-0.76,0-1.41,0.512-1.896,1.17
	c-0.396-0.404-0.703-0.669-0.952-0.741c-1.691-0.886-3.75-1.228-5.477-0.974c-4.396,0.497-7.752,3.395-9.212,7.951
	c-1.488,4.628-2.528,8.784-3.204,12.68c-0.274,0.625-0.615,1.232-1.178,1.729c-1.393,1.276-3.523,1.615-5.45,1.692
	c0.172-1.284,0.704-3.162,1.182-4.864c0.437-1.543,0.847-3.003,1.036-4.099c0.386-1.934,0.941-3.878,1.479-5.758
	c0.55-1.925,1.118-3.911,1.517-5.911l0.621-2.929c0.773-3.686,1.574-7.496,2.736-11.232c0.368-1.01,0.512-2.045,0.653-3.049
	c0.116-0.845,0.229-1.643,0.469-2.362c0.095-0.31,0.233-0.59,0.364-0.864c0.398-0.831,0.942-1.97,0.155-3.448
	c-0.874-1.37-2.614-1.718-3.748-0.81c-1.863,1.437-2.198,4.203-2.467,6.424c-0.08,0.673-0.155,1.298-0.274,1.839
	c-0.348,1.786-0.827,3.576-1.289,5.311c-0.468,1.759-0.954,3.578-1.313,5.407c-0.772,3.631-1.621,7.204-2.586,10.899l-0.412,1.382
	c-0.924,3.086-1.881,6.277-2.301,9.486c-0.062,0.41-0.191,1.114-0.329,1.886c-0.127,0.698-0.264,1.449-0.372,2.094
	c-0.358-0.115-0.707-0.255-1.05-0.392c-0.241-0.099-0.475-0.19-0.685-0.267c-1.708-0.657-3.435-1.434-5.105-2.18
	c-1.339-0.603-2.68-1.202-3.965-1.726l-0.315-0.155c-0.762-0.37-1.312-0.658-1.644-0.86c0.182-0.913,0.464-2.082,0.59-2.588
	l5.13-20.997c0.184-0.731,0.302-1.498,0.419-2.271c0.142-0.909,0.273-1.771,0.521-2.594c2.678-9.372,2.027-10.094,1.672-10.478
	c-0.419-0.601-1.155-0.93-2.065-0.93c-0.92,0-1.857,0.343-2.323,0.813c-0.48,0.4-0.749,1.09-1.871,7.238
	c-0.119,0.658-0.219,1.209-0.291,1.57c-0.247,1.423-0.713,2.789-1.165,4.112l-0.305,0.896c-0.869,2.828-1.435,5.675-2.09,8.973
	c-0.305,1.54-0.63,3.172-1.009,4.92l-2.038,9.132c-3.196-1.179-6.835-2.267-10.453-2.267c-3.111,0-5.829,0.776-8.306,2.372
	c-5.005,3.189-7.596,10.02-5.781,15.211C93.641,119.159,97.953,121.956,103.654,121.954"/>
<path style="fill:#FFFFFF;" d="M58.601,181.824c-0.916,1.609-2.901,3.972-4.076,5.146c-1.393,1.321-2.877,2.066-4.649,2.341
	c-0.328,0.043-0.65,0.062-0.969,0.062c-3.411,0-5.794-2.312-5.794-5.62c0-3.429,3.15-6.438,6.742-6.438
	c0.156,0,0.312,0.006,0.477,0.02c2.13,0.142,4.144,1.255,6.002,2.368c1.221,0.778,1.618,1.288,2.168,1.992
	C58.537,181.738,58.569,181.779,58.601,181.824 M97.779,195.879c-0.738,0-1.473,0.339-2.023,0.94
	c-0.461,0.518-0.714,1.121-0.937,1.654c-0.151,0.361-0.293,0.702-0.44,0.918c-0.523,0.65-1.339,1.263-2.157,1.605
	c-0.815,0.368-1.656,0.549-2.572,0.549c-2.969,0-5.994-1.886-8.809-3.913c-3.772-2.809-7.038-6.297-9.796-9.335
	c-2.694-3.031-4.729-5.816-6.062-8.285c1.333-2.312,2.478-6.951,3.331-10.413c0.184-0.755,0.355-1.441,0.502-2.002
	c1.445-5.281,2.72-9.664,4.836-14.048l0.355-0.763c1.636-3.501,3.327-7.124,5.871-9.884c2.022-2.206,5.413-4.564,8.863-4.564
	c0.331,0,0.665,0.022,1.015,0.071c2.599,0.308,5.237,2.517,4.959,5.554c-0.115,1.479-0.917,2.433-2.611,3.095
	c-0.287,0.114-0.604,0.194-0.93,0.279c-1.073,0.284-2.41,0.635-3.127,1.985c-0.584,1.07-0.299,1.858-0.076,2.235
	c0.732,1.238,2.545,1.333,3.082,1.333c0.213,0,0.417-0.013,0.586-0.036c1.847-0.191,3.431-1.291,4.486-2.123
	c3.222-2.697,4.372-6.537,3.159-10.531c-1.23-4.091-5.49-6.949-10.338-6.949l-0.274-0.002c-9.869,0-15.503,9.288-18.888,16.285
	c-2.238,4.732-3.91,9.148-5.111,13.499c-0.312,1.105-0.608,2.193-0.9,3.27c-0.919,3.372-1.794,6.581-2.984,9.836
	c-1.898-1.572-4.038-2.977-6.659-3.543c-3.08-0.808-6.748-0.341-9.947,1.261c-4.657,2.37-8.187,7.795-5.922,13.588
	c1.896,4.696,7.137,7.749,12.744,7.094c4.402-0.568,8.072-3.563,11.181-9.143c1.813,2.645,3.883,5.171,8.863,10.549
	c0.899,1.012,1.894,1.872,2.855,2.707c0.523,0.455,1.046,0.907,1.535,1.37c2.998,2.923,7.93,6.172,12.795,6.521
	c0.293,0.018,0.588,0.027,0.881,0.027c4.367,0,8.076-1.94,9.909-5.17c0.53-0.88,1.415-2.35,0.967-3.816
	C99.658,196.531,98.813,195.879,97.779,195.879"/>
<path style="fill:#FFFFFF;" d="M105.527,181.098c0.259-0.941,0.481-2.118,0.718-3.364c0.757-3.987,1.795-9.453,4.856-11.01
	c0.655-0.341,1.374-0.52,2.078-0.52c1.084,0,2.038,0.432,2.682,1.214c1.433,1.742,0.777,4.556,0.05,7.047
	c-0.403,1.359-0.723,2.731-1.042,4.104c-0.363,1.561-0.738,3.172-1.244,4.734c-0.81,2.67-1.595,4.826-3.624,6.248
	c-0.697,0.462-1.431,0.709-2.122,0.709c-1.025,0-1.871-0.537-2.445-1.551C104.226,186.562,104.818,183.77,105.527,181.098
	 M137.366,180.318c-0.68,0-1.375-0.084-2.073-0.254c0.505-2.082,1.672-6.861,3.429-9.743c1.324-2.082,3.579-4.513,5.578-4.513
	c0.554,0,1.065,0.189,1.552,0.57c3.287,2.643,0.815,7.568-0.952,9.808C143.417,178.072,140.904,180.321,137.366,180.318
	 M236.112,176.885c0.522-2.142,1.536-5.275,3.413-8.048c1.078-1.613,2.946-2.74,4.547-2.74c0.397,0,0.778,0.068,1.132,0.199
	c1.996,0.759,2.646,2.808,2.588,4.483c-0.053,1.982-0.722,4.01-1.368,5.974c-0.255,0.774-0.508,1.541-0.724,2.304
	c-0.231,0.808-0.416,1.641-0.601,2.476c-0.45,2.023-0.874,3.935-1.945,5.517c-1.676,2.413-3.194,3.635-4.515,3.635
	c-0.113,0-0.228-0.008-0.372-0.031c-2.559-0.336-3.467-2.821-3.467-4.847C234.801,183.03,235.481,179.734,236.112,176.885
	 M253.51,162.822c-0.518-0.394-1.012-0.586-1.511-0.586c-0.805,0-1.333,0.471-1.7,1.018c-1.229-1.396-3.24-2.168-5.784-2.168
	c-1.353,0-2.778,0.227-4.019,0.641c-5.061,1.743-7.136,7.101-8.378,11.576c-0.715,2.615-1.349,5.23-1.981,7.846
	c-0.165,0.678-0.32,1.368-0.446,2.061c-1.084,2.799-3.059,6.439-6.035,6.439c-0.75,0-1.559-0.235-2.402-0.696
	c-2.345-1.286-1.909-4.262-1.151-7.737l0.073-0.337c0.13-0.634,0.245-1.271,0.358-1.912c0.232-1.296,0.45-2.519,0.816-3.73
	l0.179-0.709c0.418-1.663,0.812-3.233,1.031-5.038c0.386-3.769-1.507-7.026-4.806-8.297c-0.707-0.288-1.476-0.434-2.292-0.434
	c-2.187,0-4.407,1.029-6.119,2.247c-0.082-0.22-0.211-0.441-0.416-0.646c-0.414-0.413-0.927-0.629-1.487-0.629
	c-0.972,0-1.761,0.641-2.167,1.049c-1.114,1.188-1.195,2.67-1.264,3.974c-0.021,0.414-0.042,0.825-0.105,1.247
	c-0.142,1.152-0.523,2.427-0.893,3.66c-0.209,0.697-0.416,1.39-0.584,2.07c-0.207,0.856-0.45,1.701-0.689,2.544
	c-0.399,1.396-0.809,2.837-1.067,4.343c-0.108,0.808-0.381,1.604-0.67,2.446c-0.27,0.794-0.542,1.615-0.712,2.513
	c-0.096,0.161-0.175,0.316-0.287,0.482c-0.759,1.2-1.931,2.226-3.477,3.037c-0.667,0.341-1.298,0.514-1.881,0.514
	c-2.136,0-2.981-2.29-3.245-3.272c-0.659-2.485-0.075-4.771,0.544-7.188c0.27-1.049,0.548-2.137,0.739-3.275
	c0.343-1.977,0.843-3.978,1.325-5.915c0.399-1.604,0.797-3.201,1.118-4.811c0.191-1.012-0.092-2.221-0.688-2.937
	c-0.741-0.896-1.937-1.023-3-0.284c-1.146,0.794-1.512,2.308-1.807,3.524c-0.056,0.233-0.111,0.459-0.184,0.726
	c-0.469,2.201-1.452,6.244-2.17,9.194c-0.653,2.684-0.883,3.646-0.914,3.848c-0.235,1.218-0.377,2.349-0.463,3.433
	c-1.026,2.847-3.063,6.997-6.241,6.997c-0.751,0-1.561-0.235-2.404-0.696c-2.342-1.284-1.909-4.258-1.154-7.728l0.074-0.347
	c0.132-0.638,0.247-1.28,0.362-1.926c0.23-1.29,0.45-2.511,0.816-3.717l0.171-0.689c0.419-1.669,0.817-3.243,1.037-5.058
	c0.384-3.769-1.509-7.028-4.808-8.297c-0.704-0.288-1.475-0.434-2.292-0.434c-2.185,0-4.403,1.029-6.119,2.245
	c-0.081-0.22-0.209-0.439-0.414-0.644c-0.414-0.413-0.927-0.629-1.487-0.629c-0.973,0-1.76,0.641-2.166,1.049
	c-1.114,1.188-1.193,2.67-1.265,3.974c-0.021,0.414-0.042,0.825-0.104,1.247c-0.143,1.146-0.521,2.417-0.889,3.646
	c-0.211,0.701-0.417,1.399-0.588,2.084c-0.208,0.864-0.452,1.717-0.695,2.567c-0.397,1.389-0.805,2.821-1.063,4.319
	c-0.109,0.808-0.381,1.605-0.67,2.448c-0.174,0.512-0.341,1.043-0.49,1.59c-0.448,0.835-0.937,1.643-1.398,2.269
	c-1.514,1.933-3.523,3.336-5.135,3.577c-3.944,0.667-7.335-2.127-9.305-5.013c2.881-0.313,5.856-1.668,8.167-3.754
	c1.207-1.092,5.184-5.009,5.617-9.584c0.197-2.508,0.04-7.083-3.26-9.583c-2.804-2.005-7.099-1.625-10.254,0.646
	c-0.064-0.183-0.14-0.344-0.218-0.477c-0.346-0.598-0.912-1.033-1.515-1.185c-0.238-0.068-0.475-0.104-0.708-0.104
	c-2.362,0-3.052,3.135-3.557,5.427c-0.126,0.566-0.229,1.059-0.347,1.364c-0.56,1.478-0.867,3.054-1.165,4.581
	c-0.182,0.941-0.363,1.878-0.604,2.78c-0.623,2.333-1.006,4.583-1.435,7.251c-0.051,0.259-0.121,0.518-0.178,0.776
	c-0.373,0.843-0.906,1.598-1.615,2.547l-0.398,0.535c-1.234,1.668-2.176,2.762-3.969,2.762l-0.324-0.01
	c-1.133-0.039-2.003-0.486-2.663-1.368c-1.373-1.835-1.488-5.225-0.905-7.459c0.323-1.136,0.668-2.313,1.014-3.49
	c0.327-1.113,0.652-2.225,0.961-3.305c0.432-1.543,0.679-2.95,0.94-4.444l0.299-1.596c0.57-1.991,1.024-4.201,0.072-5.462
	c-0.283-0.376-0.817-0.827-1.802-0.827h-0.004c-0.755,0-1.406,0.514-1.894,1.175c-0.393-0.404-0.702-0.667-0.951-0.741
	c-1.687-0.89-3.742-1.233-5.478-0.979c-4.395,0.498-7.751,3.399-9.209,7.955c-1.642,5.094-2.751,9.636-3.414,13.882
	c-0.329,0.943-0.829,2.113-1.817,3.524c-1.684,2.368-4.708,3.839-7.891,3.839c-1.467,0-2.888-0.317-4.105-0.914
	c-2.393-1.197-4.151-3.359-4.479-5.512c-0.249-1.628,0.306-3.105,1.66-4.407c1.122-1.126,2.532-1.653,3.933-1.527
	c1.281,0.121,3.067-0.241,3.686-1.584c0.211-0.457,0.421-1.396-0.54-2.518c-0.869-1.013-1.973-1.131-2.862-1.225
	c-0.988-0.108-1.484-0.161-1.854-1.157c-0.358-0.954-0.327-1.933,0.079-2.762c0.418-0.837,1.195-1.467,2.218-1.774
	c0.597-0.2,1.253-0.306,1.904-0.306c0.735,0,2.523,0.159,3.26,1.584c0.098,0.212,0.146,0.607,0.193,0.99
	c0.094,0.767,0.211,1.719,0.881,2.462c0.989,0.988,2.969,0.868,4.032-0.337c1.548-2.021-0.632-6.209-1.532-7.262
	c-1.47-1.721-4.031-2.754-6.853-2.754c-0.729,0-1.432,0.072-2.097,0.214c-3.334,0.719-5.598,2.633-6.718,5.651
	c-0.868,2.1-1.048,5.007,0.274,7.27c-3.057,2.046-4.85,5.13-4.85,8.43c0,6.432,4.796,11.345,12.22,12.517
	c0.628,0.097,1.272,0.147,1.912,0.147c3.66,0,7.283-1.692,10.001-4.306c0.896,1.922,2.388,3.31,4.429,4.012
	c0.787,0.333,1.62,0.503,2.476,0.503c3.271,0,6.184-2.458,7.858-4.227c2.097,2.737,6.364,3.578,9.178,2.996
	c1.136-0.198,2.232-0.616,3.266-1.187c0.09,0.286,0.207,0.559,0.391,0.786c0.564,0.698,1.456,0.924,2.608,0.51
	c1.124-0.435,1.849-1.695,2.212-3.875c0.072-0.508,0.128-1.008,0.184-1.5c0.096-0.845,0.188-1.666,0.362-2.465
	c2.649,4.37,7.319,8.683,13.329,8.683c1.656,0,3.317-0.339,4.938-1.011c0.496-0.21,0.974-0.463,1.443-0.739
	c0.094,0.271,0.211,0.531,0.39,0.757c0.595,0.736,1.239,0.89,1.674,0.89c2.471,0,3.859-4.779,3.877-4.855
	c0.379-1.722,0.682-3.31,0.984-4.878c0.397-2.07,0.771-4.022,1.303-6.236l0.333-1.446c0.66-2.923,1.485-6.558,3.132-8.774
	c1.356-1.854,4.479-3.695,6.312-2.979c2.106,0.854,1.578,3.353,0.733,6.289l-0.134,0.469c-0.92,3.084-2.014,7.694-2.014,12.131
	c0,2.502,0.544,6.971,4.193,8.794c1.251,0.61,2.72,0.934,4.249,0.934c2.685,0,5.182-0.959,6.848-2.627
	c0.414-0.41,0.77-0.872,1.134-1.327c0.331,0.592,0.699,1.15,1.149,1.635c1.471,1.508,3.431,2.308,5.668,2.308
	c1.659,0,3.427-0.43,5.12-1.231c0.096,0.327,0.229,0.64,0.439,0.906c0.595,0.736,1.239,0.89,1.674,0.89h0.002
	c2.467,0,3.855-4.779,3.873-4.855c0.384-1.733,0.688-3.331,0.992-4.913c0.395-2.059,0.769-4.001,1.295-6.201l0.337-1.462
	c0.66-2.917,1.485-6.546,3.13-8.761c1.354-1.853,4.479-3.695,6.312-2.977c2.104,0.854,1.576,3.353,0.731,6.289l-0.135,0.469
	c-0.919,3.09-2.013,7.704-2.013,12.131c0,2.5,0.544,6.971,4.193,8.794c1.251,0.61,2.72,0.934,4.249,0.934
	c2.685,0,5.182-0.959,6.85-2.627c0.288-0.286,0.559-0.58,0.822-0.884c1.732,2.686,4.731,4.359,8.003,4.357
	c0.944,0,1.871-0.145,2.754-0.426c-0.176,0.398-0.347,0.791-0.481,1.245c-0.22,1.025-0.448,2.027-0.802,2.95
	c-0.963,2.115-1.997,3.496-3.151,4.213c-1.251,0.753-2.416,0.373-3.944-0.227l-0.577-0.222c-1.011-0.459-2.684-0.808-3.806,0.205
	c-0.52,0.518-0.831,1.263-0.829,1.982c0,0.631,0.239,1.216,0.67,1.646c1.486,1.486,3.459,2.272,5.708,2.272
	c2.931,0,5.99-1.368,7.982-3.57c3.375-3.711,4.387-8.555,5.368-13.238c0.226-1.084,0.454-2.164,0.708-3.229
	c0.439-1.858,0.872-3.715,1.303-5.569c0.963-4.131,1.921-8.253,2.959-12.343c0.104-0.422,0.29-0.973,0.491-1.586
	C254.129,167.008,255.109,164.048,253.51,162.822"/>
</svg>
