<?xml version="1.0" encoding="utf-8"?>
<!-- Generator: Adobe Illustrator 16.0.0, SVG Export Plug-In . SVG Version: 6.00 Build 0)  -->
<!DOCTYPE svg PUBLIC "-//W3C//DTD SVG 1.1//EN" "http://www.w3.org/Graphics/SVG/1.1/DTD/svg11.dtd">
<svg version="1.1" id="pulse" xmlns="http://www.w3.org/2000/svg" xmlns:xlink="http://www.w3.org/1999/xlink" x="0px" y="0px"
	 width="287.663px" height="285.498px" viewBox="0 0 287.663 285.498" style="enable-background:new 0 0 287.663 285.498;"
	 xml:space="preserve">
<path style="fill:#005CA9;" d="M286.959,126.713c0,0-2.19-24.568-7.534-49.081c-1.981-9.094-8.607-29.365-40.1-44.812
	c-31.326-15.364-46.855-8.165-78.842-24.308C138.191-2.729,94.7-9.631,65.018,33.165c-17.2,24.811-10.355,33.831-40.068,60.658
	c-21.071,19.029-36.903,65.33-12.899,91.636c11.676,12.787,28.969,34.849,41.574,50.32c15.192,18.641,47.216,57.037,93.713,48.498
	c17.12-3.144,21.229-1.898,68.598-23.046C215.936,261.231,295.948,235.757,286.959,126.713"/>
<path style="fill:#FFFFFF;" d="M175.747,149.689L175.747,149.689v0.01V149.689z M114.154,125.292
	c-0.138,0.372-0.277,0.748-0.407,1.117c-1.175,3.22-2.187,6-4.914,8.501c-1.398,1.27-3.414,2.027-5.388,2.027
	c-1.977,0-3.714-0.742-4.892-2.094c-1.338-1.515-1.359-3.309-1.143-4.542c0.418-2.386,2.061-4.733,4.092-5.844
	c1.292-0.71,2.831-1.072,4.571-1.072C108.416,123.386,111.128,124.026,114.154,125.292 M147.636,124.942
	c0.233-0.856,0.444-1.938,0.667-3.122c0.7-3.684,1.654-8.725,4.464-10.154c0.594-0.307,1.249-0.472,1.891-0.472
	c0.98,0,1.847,0.391,2.43,1.1c1.307,1.588,0.7,4.172,0.035,6.467c-0.374,1.255-0.671,2.528-0.967,3.801
	c-0.34,1.444-0.687,2.94-1.154,4.386c-0.743,2.462-1.464,4.448-3.328,5.749c-0.638,0.424-1.301,0.648-1.925,0.648h-0.002
	c-0.922,0-1.687-0.489-2.204-1.402C146.437,129.977,146.984,127.403,147.636,124.942 M205.445,95.566
	c-1.614-1.524-3.416-2.295-5.357-2.295c-4.633,0-8.59,4.373-9.96,8.473c-0.51,1.467-1.191,3.68-1.669,5.292
	c-0.303,0.019-0.648,0.009-1.274-0.054c-0.371-0.048-0.738-0.094-1.078-0.094c-1.715,0-2.224,1.21-2.369,1.908
	c-0.217,0.933-0.1,1.689,0.35,2.254c0.705,0.889,1.969,0.889,2.385,0.889c0.36,0,0.73-0.029,1.079-0.055
	c-0.175,0.776-0.439,1.671-0.619,2.295l-0.177,0.62c-0.338,1.104-0.561,2.22-0.772,3.297c-0.169,0.847-0.331,1.689-0.551,2.495
	c-0.276,0.938-0.521,1.875-0.765,2.806c-0.266,1.023-0.535,2.037-0.846,3.05c-0.181,0.629-0.332,1.274-0.485,1.912
	c-0.079,0.143-0.154,0.278-0.237,0.427c-0.181,0.322-0.374,0.664-0.59,1.062c-0.762,1.458-2.265,2.511-3.859,2.688
	c-1.592,0.217-2.938-0.671-3.532-2.271c-0.546-1.528-0.399-2.793-0.097-4.705c0.354-2.32,0.985-4.659,1.646-7.012
	c0.377-1.168,0.611-2.373,0.841-3.532c0.188-0.944,0.374-1.881,0.625-2.771c0.622-1.986,0.999-4.046,1.367-6.037
	c0.485-2.625,0.939-5.101,1.922-7.474l0.065-0.2c0.361-1.058,0.907-2.662,0.141-3.813c-0.265-0.4-0.794-0.891-1.961-0.967
	c-2.083,0-2.862,2.603-3.095,3.689c-0.441,1.778-0.831,3.569-1.225,5.358c-0.577,2.646-1.175,5.381-1.917,7.997
	c-0.439,1.564-0.751,3.186-1.054,4.757c-0.161,0.83-0.318,1.662-0.495,2.476c-0.146,0.683-0.366,1.334-0.576,1.971l-0.258,0.805
	c-0.357,0.923-0.743,2.349-0.973,3.994c-0.097,0.39-0.152,0.749-0.183,0.974c-0.23,1.532-0.909,2.444-1.943,3.82l-0.36,0.486
	c-1.13,1.527-1.991,2.531-3.614,2.531l-0.298-0.011c-1.029-0.034-1.816-0.438-2.414-1.239c-1.26-1.683-1.362-4.797-0.825-6.851
	c0.298-1.056,0.62-2.152,0.942-3.248c0.304-1.026,0.601-2.052,0.887-3.045c0.401-1.435,0.63-2.75,0.874-4.141l0.272-1.451
	c0.534-1.867,0.959-3.936,0.06-5.13c-0.391-0.51-0.983-0.793-1.731-0.793h-0.004c-0.697,0-1.3,0.453-1.763,1.05
	c-0.342-0.35-0.617-0.577-0.842-0.641c-1.578-0.831-3.503-1.146-5.114-0.913c-4.103,0.464-7.239,3.169-8.596,7.419
	c-1.381,4.28-2.343,8.135-2.973,11.753c-0.25,0.563-0.56,1.117-1.067,1.564c-1.253,1.151-3.169,1.471-4.92,1.546
	c0.17-1.181,0.648-2.877,1.088-4.416c0.401-1.43,0.783-2.783,0.955-3.803c0.358-1.791,0.876-3.595,1.373-5.34
	c0.51-1.778,1.035-3.62,1.402-5.47l0.575-2.704c0.721-3.416,1.461-6.949,2.535-10.406c0.342-0.944,0.477-1.912,0.609-2.843
	c0.106-0.778,0.209-1.513,0.43-2.173c0.09-0.287,0.214-0.542,0.335-0.79c0.372-0.785,0.889-1.861,0.138-3.269
	c-0.828-1.304-2.489-1.64-3.575-0.769c-1.753,1.348-2.065,3.927-2.316,6.005c-0.077,0.614-0.144,1.192-0.253,1.693
	c-0.323,1.648-0.764,3.31-1.188,4.908c-0.438,1.635-0.892,3.325-1.223,5.024c-0.709,3.336-1.498,6.65-2.395,10.095l-0.383,1.288
	c-0.856,2.857-1.744,5.817-2.133,8.793c-0.058,0.383-0.183,1.051-0.31,1.777c-0.115,0.61-0.229,1.257-0.326,1.825
	c-0.305-0.102-0.602-0.221-0.893-0.338c-0.223-0.091-0.438-0.177-0.632-0.245c-1.584-0.609-3.184-1.325-4.729-2.02
	c-1.242-0.559-2.482-1.116-3.668-1.598l-0.271-0.135c-0.686-0.33-1.186-0.59-1.496-0.772c0.168-0.842,0.418-1.89,0.532-2.35
	L125.401,101c0.168-0.685,0.284-1.399,0.394-2.122c0.129-0.839,0.252-1.627,0.484-2.414c2.478-8.702,1.887-9.36,1.532-9.745
	c-0.402-0.573-1.103-0.888-1.974-0.888c-0.868,0-1.761,0.324-2.196,0.767c-0.461,0.388-0.715,1.034-1.76,6.768
	c-0.111,0.605-0.199,1.106-0.269,1.441c-0.23,1.31-0.66,2.572-1.079,3.797l-0.282,0.834c-0.805,2.619-1.326,5.254-1.937,8.304
	c-0.282,1.436-0.585,2.949-0.94,4.574l-1.864,8.384c-2.955-1.084-6.303-2.077-9.638-2.077c-2.895,0-5.43,0.726-7.734,2.211
	c-4.664,2.968-7.076,9.338-5.39,14.177c1.421,4.37,5.443,6.98,10.761,6.98c1.574,0,3.211-0.241,4.738-0.694
	c3.37-0.976,5.562-3.791,6.926-5.826c1.66-2.533,2.797-5.526,3.523-7.902l0.061,0.029c2.613,1.283,5.313,2.607,8.101,3.579
	c0.566,0.215,1.435,0.623,2.302,1.03c0.594,0.278,1.186,0.557,1.695,0.78c-0.061,0.352-0.114,0.778-0.114,1.422
	c0,3.03,1.281,5.253,3.584,6.252c0.39,0.178,0.992,0.391,1.661,0.391c1.237,0,2.125-0.741,2.374-1.982
	c0.292-1.459-0.81-2.22-1.468-2.671c-0.182-0.127-0.369-0.25-0.548-0.409c-0.41-0.353-0.516-1.388-0.442-2.281
	c0.771-0.04,1.445-0.126,2.149-0.217c0.359-0.048,0.726-0.092,1.173-0.145c1.113-0.183,2.093-0.565,3.019-1.041
	c0.608,2.799,2.239,4.789,4.767,5.659c0.74,0.313,1.521,0.473,2.322,0.473c3.022,0,5.71-2.236,7.278-3.88
	c1.981,2.512,5.929,3.274,8.524,2.737c2.347-0.414,4.54-1.77,6.203-3.679c1.029,1.823,2.543,3.117,4.562,3.79
	c0.721,0.248,1.48,0.376,2.244,0.376c1.076,0,2.116-0.257,3.109-0.678c-0.167,0.494-0.341,0.985-0.544,1.466l-0.366,0.932
	c-1.073,2.731-2.282,5.827-5.05,6.436c-0.806,0.162-1.149-0.036-1.965-0.637c-0.322-0.232-0.664-0.48-1.069-0.714
	c-1.655-0.949-3.515-0.132-3.835,1.778c-0.109,0.992,0.144,1.873,0.733,2.558c1.403,1.621,4.318,1.711,6.061,1.764l0.529,0.015
	c3.478,0,6.643-3.252,8.108-6.271c1.081-2.212,1.655-4.646,2.212-6.994c0.225-0.959,0.452-1.912,0.707-2.821
	c0.417-1.448,0.776-2.585,1.136-3.703c0.505-1.597,1.002-3.162,1.644-5.524c0.515-1.84,0.863-3.88,1.195-5.852
	c0.458-2.683,0.927-5.449,1.815-7.843c0.24-0.008,0.489-0.021,0.744-0.032c0.744-0.032,1.646-0.059,2.034-0.032l0.276,0.032
	c0.503,0.072,1.263,0.179,2.033,0.179c1.372,0,2.304-0.333,2.859-1.025c0.312-0.39,0.634-1.083,0.396-2.153
	c-0.356-1.645-2.429-1.645-3.311-1.645c-0.485,0-1.014,0.025-1.553,0.048c-0.881,0.041-1.835,0.072-2.496,0.016
	c0.13-0.453,0.26-0.901,0.389-1.315c0.152-0.507,0.29-0.968,0.359-1.253c0.435-1.313,0.848-2.556,1.432-3.663
	c0.843-1.344,2.457-2.912,4.247-2.912c0.516,0,1.027,0.137,1.496,0.396c0.172,0.1,0.38,0.284,0.595,0.477
	c0.539,0.486,1.212,1.092,2.166,1.092c0.312,0,0.623-0.069,0.93-0.203c1.027-0.455,1.289-1.212,1.357-1.622
	C206.673,97.076,206.056,96.115,205.445,95.566"/>
<path style="fill:#FFFFFF;" d="M144.145,180.88c0.022-0.939-0.667-2.134-2.675-2.407c-1.062-0.148-2.404-0.161-3.817-0.128
	c-0.961,0.02-1.938,0.028-2.707-0.032c0.277-1.229,0.523-2.395,0.769-3.54c0.528-2.489,1.026-4.837,1.761-7.5
	c0.403-1.616,1.825-4.688,2.743-6.172c0.369-0.626,0.565-0.626,0.739-0.626c0.235,0,0.564,0.072,0.945,0.154
	c0.219,0.047,0.455,0.099,0.687,0.14c0.849,0.176,1.715,0.377,2.579,0.576c2.729,0.636,5.553,1.292,8.414,1.292
	c0.849,0,1.675-0.06,2.462-0.176c0.654-0.107,6.425-1.095,8.189-3.739c0.494-0.736,0.651-1.562,0.452-2.402
	c-0.248-0.962-0.988-1.532-1.98-1.532c-1.194,0-2.601,0.812-3.824,1.576l-0.335,0.206c-1.496,0.83-3.202,1.231-5.217,1.231
	c-1.762,0-3.592-0.306-5.148-0.605c-4.083-0.801-7.574-1.608-10.979-2.546c-4.074-1.104-8.291-1.636-11.73-1.421
	c-8.269,0.45-15.057,4.148-18.161,9.885c-2.655,4.915-2.929,14.37,2.671,17.995c2.818,1.848,6.724,2.214,9.36,0.664
	c2.299-1.48,4.396-4.58,3.956-7.672c-0.242-1.368-1.326-2.364-2.581-2.364c-1.042,0-1.896,0.698-2.237,1.867
	c-0.115,0.502-0.172,0.979-0.224,1.446c-0.074,0.68-0.138,1.27-0.417,1.827c-0.41,0.784-1.023,1.146-1.926,1.146
	c-1.05,0-2.434-0.551-3.511-1.388c-1.547-1.24-2.292-2.979-2.223-5.183c0.129-4.058,2.991-8.441,5.674-10.325
	c2.258-1.546,5.706-2.471,10.262-2.756c3.209-0.244,6.461,0.026,9.79,0.783c-2.598,3.87-3.477,8.323-4.322,12.638
	c-0.412,2.097-0.836,4.261-1.455,6.323c-0.118-0.004-0.229-0.009-0.342-0.014c-0.394-0.021-0.809-0.041-1.33,0.001
	c-1.743,0.121-2.765,0.915-3.04,2.383c-0.131,0.863,0.03,1.562,0.475,2.079c0.764,0.891,1.959,0.87,2.803,0.84
	c-0.122,0.593-0.238,1.187-0.281,1.55c-0.309,2.1-0.898,3.962-1.519,5.935l-0.278,0.882c-1.053,3.647-3.197,8.4-7.447,10.348
	c-2.163,1.038-5.263,0.665-6.656-0.834c-0.689-0.739-0.992-1.706-0.908-2.87c0.146-1.885,1.414-2.984,4.107-3.556
	c1.086-0.229,2.348-0.89,2.637-2.058c0.115-0.485,0.139-1.444-1.035-2.405c-0.637-0.526-1.418-0.794-2.313-0.794
	c-1.978,0-3.998,1.354-4.763,1.927c-1.692,1.229-2.764,2.87-3.376,5.147c-0.701,2.461,0.354,5.649,1.688,7.37
	c1.57,2.183,3.492,3.394,5.905,3.705c0.521,0.053,1.025,0.078,1.521,0.078c4.424,0,8.18-2.085,11.174-6.201
	c2.869-4.062,6.013-12.528,6.863-18.347c0.316,0.009,0.641,0.023,0.976,0.037c2.081,0.087,4.391,0.188,6.138,0.073
	C142.869,183.238,144.112,182.206,144.145,180.88"/>
<path style="fill:#FFFFFF;" d="M201.528,192.626c-0.228-0.068-0.455-0.104-0.669-0.104c-1.637,0-2.085,1.689-2.332,2.605
	c-0.547,1.831-2.601,7.798-6.168,7.798c-0.682,0-1.42-0.214-2.189-0.638c-2.134-1.164-1.727-3.897-1.034-7.085l0.071-0.316
	c0.125-0.596,0.231-1.204,0.337-1.806c0.214-1.19,0.413-2.312,0.747-3.421l0.149-0.589c0.397-1.565,0.77-3.045,0.976-4.748
	c0.359-3.522-1.412-6.574-4.5-7.762c-2.395-0.971-5.593,0.102-7.79,1.639c-0.077-0.187-0.191-0.368-0.362-0.539
	c-0.398-0.398-0.892-0.605-1.429-0.605c-0.926,0-1.676,0.611-2.061,0.992c-1.05,1.124-1.125,2.51-1.189,3.729
	c-0.02,0.381-0.036,0.761-0.097,1.15c-0.135,1.062-0.484,2.237-0.825,3.377c-0.193,0.649-0.389,1.293-0.546,1.925
	c-0.192,0.801-0.416,1.589-0.641,2.371c-0.367,1.29-0.746,2.626-0.987,4.021c-0.102,0.737-0.349,1.473-0.615,2.254
	c-0.267,0.774-0.542,1.578-0.698,2.471c-0.046,0.295-0.124,0.6-0.187,0.898c-0.428,0.668-0.958,1.228-1.691,1.891
	c-0.629,0.564-1.395,0.867-2.229,0.867c-1.489,0-2.896-0.937-3.581-2.377c-0.567-1.223-0.308-2.393,0.121-4.325
	c0.15-0.696,0.322-1.46,0.476-2.335c0.283-1.768,1.221-5.812,1.801-7.564c0.209-0.737,0.346-1.489,0.474-2.242
	c0.146-0.842,0.287-1.637,0.559-2.444c0.374-1.005,0.893-2.378,0.253-3.479c-0.234-0.399-0.724-0.916-1.78-1.082l-0.303-0.016
	c-2.077,0-2.671,2.076-2.968,3.123c-0.283,1.173-0.506,2.358-0.732,3.54c-0.371,1.936-0.723,3.765-1.296,5.537
	c-0.396,1.281-0.731,2.57-1.064,3.86c-0.477,1.85-0.926,3.593-1.562,5.328c-1.079,3.141-2.376,4.629-4.343,4.974
	c-1.175,0.197-2.047-0.362-2.486-0.838c-0.727-0.789-1.122-2.021-1.028-3.211c0.15-1.699,0.438-3.387,0.85-4.882
	c0.181-0.696,0.389-1.354,0.593-2.006c0.291-0.907,0.583-1.85,0.79-2.807l1.618-5.804c0.071-0.284,0.154-0.567,0.236-0.854
	c0.36-1.262,0.771-2.689,0.334-4.154c-0.382-1.193-1.258-1.935-2.295-1.935c-0.896,0-1.758,0.565-2.328,1.549
	c-0.712,1.355-0.929,2.959-1.115,4.369l-0.084,0.601c-0.341,1.86-0.921,3.725-1.539,5.699c-1.448,4.628-2.943,9.42-1.188,14.294
	c1.14,3.021,3.83,4.901,7.024,4.901l0.416-0.01c3.262-0.219,5.205-2.112,6.797-4.088c1.735,2.391,4.067,3.431,7.543,3.431
	c1.151,0,2.188-0.269,3.136-0.684c0.058,0.106,0.108,0.213,0.188,0.31c0.567,0.704,1.184,0.854,1.604,0.854
	c2.328,0,3.647-4.485,3.663-4.56c0.353-1.6,0.636-3.074,0.914-4.531c0.368-1.912,0.713-3.722,1.202-5.768l0.313-1.354
	c0.612-2.694,1.373-6.051,2.889-8.089c1.242-1.7,4.096-3.391,5.762-2.734c1.894,0.765,1.413,3.049,0.639,5.735l-0.125,0.438
	c-0.853,2.865-1.868,7.143-1.868,11.26c0,2.338,0.508,6.509,3.929,8.216c1.169,0.569,2.539,0.869,3.965,0.869
	c2.507,0,4.839-0.895,6.399-2.45c2.185-2.188,3.617-4.989,4.507-8.808C203.557,193.739,202.496,192.866,201.528,192.626"/>
</svg>
