<svg version="1.1" id="Layer_1" xmlns="http://www.w3.org/2000/svg" xmlns:xlink="http://www.w3.org/1999/xlink" x="0px" y="0px"
	 width="126.271px" height="86.441px" viewBox="0 0 126.271 86.441" enable-background="new 0 0 126.271 86.441"
	 xml:space="preserve">
<path fill="#575756" d="M77.503,28.491c-3.273-3.273-5.274-7.639-5.274-12.307v-0.426H54.041v0.426
	c0,4.668-2.001,9.033-5.275,12.307c-3.758,3.697-6.062,8.852-6.062,14.549c0,5.699,2.304,10.854,6.062,14.551
	c3.335,3.273,5.275,7.639,5.275,12.307v0.426h18.188v-0.426c0-4.668,2.001-9.033,5.274-12.307c3.759-3.697,6.063-8.852,6.063-14.551
	C83.626,37.342,81.262,32.188,77.503,28.491 M63.135,62.561c-10.792,0-19.521-8.729-19.521-19.521
	c0-10.791,8.729-19.52,19.521-19.52c10.791,0,19.521,8.729,19.521,19.52C82.656,53.833,73.926,62.561,63.135,62.561"/>
<path fill="#3C3C3B" d="M63.137,24.247c-10.368,0-18.795,8.428-18.795,18.793c0,10.367,8.427,18.795,18.795,18.795
	c10.365,0,18.793-8.428,18.793-18.795C81.93,32.674,73.502,24.247,63.137,24.247 M69.138,49.952l-6.487-6.426v-0.91v-0.363V27.278
	h0.91V43.1l6.183,6.186L69.138,49.952z"/>
</svg>
