<svg version="1.1" id="Layer_1" xmlns="http://www.w3.org/2000/svg" xmlns:xlink="http://www.w3.org/1999/xlink" x="0px" y="0px"
	 width="126.271px" height="86.44px" viewBox="0 0 126.271 86.44" enable-background="new 0 0 126.271 86.44" xml:space="preserve">
<g>
	<g>
		<path fill="#E73339" d="M82.698,28.492c-2.611-1.486-2.98-2.053-11.814-4.838c0,0-13.596-5.793-26.494,6.742
			c0,0-2.883,2.84-5.354,6.012c-0.918,1.176-2.676,4.031-0.607,9.016c2.059,4.959,4.986,5.84,7.029,10.953
			c1.424,3.561,6.141,8.912,15.484,7.52c5.414-0.809,5.693-2.492,12.982-2.188c5.168,0.219,13.178-3.016,13.475-8.361
			c0.145-2.596,0.758-6.775,1.127-9.756C88.972,40,89.792,32.523,82.698,28.492"/>
	</g>
	<path fill="#FFFFFF" d="M56.585,48.875l-2.15,7.447c-0.076,0.277,0.076,0.566,0.354,0.643c0.184,0.051,0.371,0,0.494-0.117
		l3.068-2.398l1.373,3.516c0.105,0.264,0.406,0.4,0.67,0.295c0.172-0.064,0.289-0.219,0.324-0.389l2.273-7.879l-1.938,1.26
		c-0.041,0.031-0.082,0.055-0.129,0.078c-0.49,0.246-1.084,0.053-1.332-0.438l-0.152-0.299l-0.961-1.902l-1.895,0.176V48.875z
		 M63.245,49.828l2.318,8.043c0.029,0.17,0.148,0.316,0.324,0.389c0.266,0.105,0.566-0.031,0.67-0.295l1.373-3.516l3.068,2.398
		c0.129,0.117,0.318,0.168,0.494,0.117c0.277-0.076,0.436-0.365,0.354-0.643l-2.186-7.572l-1.594-0.217l-1.307,2.336
		c-0.025,0.047-0.049,0.088-0.078,0.131c-0.318,0.447-0.936,0.547-1.377,0.229l-0.377-0.271l-1.633-1.164l-0.047,0.035H63.245z"/>
	<path fill="#FFFFFF" d="M58.708,35.395c1.125-1.125,2.682-1.824,4.4-1.824c1.721,0,3.273,0.695,4.398,1.824
		c1.072,1.078,1.762,2.539,1.82,4.164c-0.059,1.625-0.742,3.09-1.82,4.162c-1.125,1.125-2.678,1.826-4.398,1.826
		c-1.719,0-3.275-0.695-4.4-1.826c-1.07-1.076-1.758-2.537-1.816-4.162C56.95,37.934,57.632,36.467,58.708,35.395 M73.642,39.559
		l-0.83-0.906l1.32-2.686c0.018-0.029,0.035-0.061,0.047-0.096c0.1-0.27-0.041-0.564-0.311-0.666l-2.623-0.947l-0.082-2.996
		c0-0.035,0-0.066-0.006-0.1c-0.041-0.283-0.301-0.484-0.582-0.443l-2.762,0.377l-1.467-2.613c-0.012-0.029-0.029-0.061-0.047-0.088
		c-0.164-0.236-0.488-0.289-0.725-0.123l-2.271,1.617l-2.516-1.637c-0.023-0.018-0.053-0.035-0.082-0.053
		c-0.254-0.129-0.564-0.029-0.695,0.23l-1.26,2.49l-2.984-0.283c-0.035-0.006-0.066-0.006-0.102-0.006
		c-0.289,0.006-0.512,0.24-0.512,0.525l0.041,2.791l-2.775,1.135c-0.027,0.014-0.057,0.025-0.092,0.041
		c-0.254,0.137-0.342,0.455-0.207,0.701l1.332,2.451l-1.08,1.283l1.08,1.283l-1.332,2.449c-0.135,0.254-0.041,0.566,0.207,0.701
		c0.029,0.018,0.059,0.029,0.092,0.041l2.775,1.137l-0.041,2.789c-0.006,0.289,0.223,0.525,0.512,0.525c0.035,0,0.066,0,0.102-0.006
		l2.984-0.283l1.26,2.492c0.131,0.254,0.441,0.359,0.695,0.229c0.029-0.016,0.059-0.035,0.082-0.051l2.516-1.637l2.271,1.617
		c0.236,0.166,0.561,0.111,0.725-0.123c0.018-0.029,0.035-0.059,0.047-0.088l1.467-2.615l2.762,0.377
		c0.281,0.041,0.547-0.158,0.582-0.443c0.006-0.033,0.006-0.068,0.006-0.1l0.082-2.996l2.623-0.949
		c0.27-0.1,0.404-0.393,0.311-0.664c-0.012-0.037-0.029-0.064-0.047-0.094l-1.32-2.686L73.642,39.559z"/>
</g>
</svg>
