<svg version="1.1" id="Layer_1" xmlns="http://www.w3.org/2000/svg" xmlns:xlink="http://www.w3.org/1999/xlink" x="0px" y="0px"
	 width="126.271px" height="86.44px" viewBox="0 0 126.271 86.44" enable-background="new 0 0 126.271 86.44" xml:space="preserve">
<path fill="#005CA9" d="M84.105,27.938c-2.799-1.594-3.194-2.201-12.661-5.187c0,0-14.574-6.21-28.4,7.228
	c0,0-3.092,3.044-5.74,6.443c-0.981,1.262-2.868,4.322-0.649,9.664c2.205,5.316,5.344,6.263,7.534,11.741
	c1.524,3.817,6.581,9.553,16.597,8.061c5.806-0.866,6.104-2.672,13.917-2.346c5.541,0.235,14.125-3.231,14.442-8.96
	c0.155-2.785,0.813-7.265,1.211-10.459C90.833,40.273,91.71,32.257,84.105,27.938"/>
<path fill="#FFFFFF" d="M68.723,36.347c0.197-0.374,0.385-0.788,0.562-1.235c0.349-0.061,0.644-0.218,0.88-0.468
	c0.281-0.294,0.463-0.636,0.538-1.015c0.075-0.373,0.046-0.751-0.088-1.124c-0.098-0.271-0.256-0.499-0.465-0.68l0.118-0.472
	c0.195-0.705-0.022-1.192-0.239-1.478c-0.282-0.372-0.647-0.622-1.085-0.743c-0.437-0.122-0.884-0.093-1.316,0.088
	c-0.33,0.135-0.764,0.446-0.959,1.151c-0.069,0.259-0.135,0.516-0.192,0.771c-0.029,0.127-0.061,0.255-0.092,0.382
	c-0.861,0.042-1.719,0.095-2.569,0.155c-0.977,0.069-1.98,0.198-2.979,0.382c-0.519,0.096-1.083,0.232-1.677,0.407
	c-0.619,0.181-1.199,0.436-1.725,0.753c-0.546,0.33-1.003,0.743-1.359,1.226c-0.386,0.526-0.568,1.173-0.541,1.936
	c0.052,0.825,0.326,1.577,0.817,2.235c0.449,0.604,0.929,1.148,1.425,1.62c0.426,0.402,0.868,0.772,1.312,1.1
	c0.302,0.222,0.608,0.445,0.921,0.667c-0.552,0.738-1.084,1.492-1.587,2.246c-0.604,0.903-1.146,1.869-1.61,2.871
	c-0.332,0.71-0.602,1.458-0.801,2.223c-0.203,0.778-0.308,1.557-0.308,2.316c0,0.77,0.13,1.538,0.388,2.284
	c0.258,0.751,0.675,1.467,1.232,2.121c0.472,0.573,1.054,1.04,1.73,1.393c0.655,0.339,1.35,0.584,2.062,0.729
	c0.652,0.133,1.325,0.2,2,0.2l0.161-0.001c0.733-0.013,1.444-0.104,2.112-0.271c1.591-0.392,2.863-1.207,3.786-2.425
	c0.924-1.219,1.354-2.657,1.28-4.275c-0.048-1.004-0.248-1.997-0.594-2.952c-0.338-0.933-0.746-1.831-1.211-2.669
	c-0.443-0.814-0.93-1.606-1.448-2.354c-0.534-0.771-1.166-1.476-1.854-2.072c-0.002-0.001-0.004-0.003-0.006-0.005
	c0.591-0.717,1.165-1.44,1.711-2.159C67.725,38.32,68.291,37.348,68.723,36.347 M61.131,38.184c-0.31-0.243-0.59-0.479-0.845-0.713
	c-0.246-0.224-0.489-0.478-0.753-0.787c-0.046-0.047-0.094-0.106-0.144-0.183c-0.013-0.02-0.025-0.037-0.036-0.058
	c0.038-0.022,0.08-0.049,0.126-0.077l0.053-0.035c0.083-0.023,0.199-0.067,0.399-0.157c0.539-0.195,1.101-0.349,1.669-0.459
	c0.577-0.111,1.135-0.189,1.68-0.234c0.606-0.078,1.224-0.134,1.849-0.17c-0.348,0.671-0.76,1.309-1.226,1.895
	c-0.487,0.61-0.98,1.213-1.479,1.801l-0.066,0.099l-0.002,0.005C61.955,38.821,61.547,38.514,61.131,38.184 M61.691,45.998
	c0.438-0.615,0.857-1.192,1.277-1.755c0.057,0.052,0.112,0.105,0.168,0.159l0.547,0.549c0.288,0.288,0.539,0.61,0.744,0.96
	c0.226,0.385,0.441,0.758,0.65,1.131c0.421,0.709,0.801,1.471,1.132,2.264c0.318,0.762,0.501,1.558,0.544,2.338
	c0,0.305-0.03,0.588-0.098,0.887c-0.008,0.053-0.047,0.223-0.236,0.655c-0.066,0.15-0.15,0.275-0.256,0.38l-0.326,0.337
	c-0.404,0.283-0.832,0.483-1.271,0.593c-0.46,0.114-0.938,0.173-1.428,0.173l-0.113,0.001c-0.965,0-1.867-0.272-2.66-0.793
	c-0.271-0.198-0.499-0.501-0.678-0.899c-0.19-0.419-0.297-0.84-0.316-1.247c-0.02-0.623,0.075-1.26,0.284-1.896
	c0.217-0.663,0.503-1.318,0.853-1.949C60.859,47.245,61.259,46.609,61.691,45.998"/>
</svg>
