<svg version="1.1" id="Layer_1" xmlns="http://www.w3.org/2000/svg" xmlns:xlink="http://www.w3.org/1999/xlink" x="0px" y="0px"
	 width="126.271px" height="86.44px" viewBox="0 0 126.271 86.44" enable-background="new 0 0 126.271 86.44" xml:space="preserve">
<path fill="#A5D4F3" d="M81.246,28.996c-2.611-1.484-2.98-2.053-11.812-4.838c0,0-13.596-5.791-26.494,6.742
	c0,0-2.885,2.842-5.355,6.012c-0.916,1.178-2.676,4.031-0.607,9.018c2.059,4.957,4.986,5.84,7.031,10.953
	c1.422,3.559,6.139,8.91,15.482,7.518c5.416-0.807,5.693-2.492,12.982-2.186c5.17,0.217,13.178-3.018,13.475-8.361
	c0.145-2.596,0.758-6.775,1.129-9.758C87.521,40.506,88.339,33.027,81.246,28.996"/>
<path fill="#FFFFFF" d="M69.295,44.306c-0.129-0.299-0.42-0.693-1.076-0.877c-0.322-0.088-0.623-0.158-0.91-0.217
	c-0.008-0.734-0.033-1.455-0.078-2.146c-0.051-0.846-0.113-1.695-0.186-2.551c-0.072-0.85-0.141-1.691-0.201-2.533
	c-0.062-0.832-0.094-1.674-0.094-2.5c0-0.691-0.318-1.08-0.586-1.285c-0.691-0.523-1.617-0.531-2.318,0
	c-0.268,0.205-0.586,0.592-0.586,1.293c0.021,1.67,0.121,3.342,0.299,4.965c0.154,1.402,0.248,2.855,0.283,4.326
	c-0.963-0.068-1.924-0.102-2.865-0.102h-0.318c-1.039,0.01-2.09,0.016-3.15,0.018c0.084-1.361,0.141-2.732,0.168-4.082
	c0.031-1.52,0.109-3.066,0.232-4.602c0.031-0.48-0.154-0.922-0.533-1.271c-0.768-0.709-1.836-0.637-2.453,0.031
	c-0.305,0.334-0.477,0.73-0.502,1.174c-0.123,1.74-0.207,3.508-0.25,5.252c-0.043,1.713-0.125,3.455-0.25,5.184
	c-0.027,0.504,0.16,0.949,0.543,1.289c0.361,0.32,0.766,0.484,1.186,0.484h0.002c1.441,0.043,2.889,0.043,4.342,0
	c1.262-0.039,2.529-0.008,3.781,0.084l-0.045,1.25c-0.021,0.564-0.053,1.135-0.094,1.721c-0.043,0.859-0.059,1.707-0.047,2.521
	c0.01,0.85,0.09,1.715,0.24,2.572c0.09,0.51,0.387,0.902,0.859,1.139c0.273,0.135,0.547,0.205,0.814,0.205
	c0.174,0,0.346-0.029,0.484-0.08c0.486-0.143,0.84-0.42,1.053-0.826c0.193-0.379,0.252-0.805,0.172-1.26
	c-0.119-0.717-0.174-1.453-0.164-2.186c0.01-0.762,0.035-1.521,0.074-2.266c0.045-0.486,0.068-0.971,0.082-1.449
	c0.006-0.275,0.014-0.551,0.023-0.828l0.047,0.008c0.543,0.145,1.025,0.066,1.414-0.227c0.344-0.264,0.576-0.602,0.693-1.012
	C69.493,45.11,69.463,44.702,69.295,44.306"/>
</svg>
