<svg version="1.1" id="Layer_1" xmlns="http://www.w3.org/2000/svg" xmlns:xlink="http://www.w3.org/1999/xlink" x="0px" y="0px"
	 width="126.271px" height="86.441px" viewBox="0 0 126.271 86.441" enable-background="new 0 0 126.271 86.441"
	 xml:space="preserve">
<g>
	<polygon fill="#A85800" points="30.978,40.397 57.046,62.604 94.765,42.317 67.251,19.097 67.957,18.719 95.294,41.407
		95.294,46.627 56.656,67.362 30.978,45.389 	"/>
	<polygon fill="#A85800" points="32.424,38.108 35.715,36.069 43.58,42.737 43.623,47.606 	"/>
	<polygon fill="#A85800" points="43.896,42.635 43.896,48.04 61.683,38.494 49.916,28.407 48.546,29.145 56.417,35.899 	"/>
	<polygon fill="#A85800" points="36.092,35.833 43.732,42.303 55.779,35.791 48.199,29.33 	"/>
	<polygon fill="#A85800" points="50.628,28.025 54.381,26.009 62.12,32.647 61.888,37.612 	"/>
	<polygon fill="#A85800" points="54.864,25.751 62.369,32.13 74.234,25.879 66.66,19.415 	"/>
	<polygon fill="#A85800" points="45.943,49.631 49.414,47.749 57.171,54.307 57.487,59.45 	"/>
	<polygon fill="#A85800" points="57.487,54.106 57.796,59.493 75.361,50.09 63.554,40.086 62.201,40.827 70.056,47.514 	"/>
	<polygon fill="#A85800" points="49.84,47.506 57.244,53.811 69.255,47.313 61.894,41.043 	"/>
	<polygon fill="#A85800" points="62.613,32.374 62.343,38.158 78.492,29.543 74.492,26.1 	"/>
	<polygon fill="#A85800" points="64.312,39.674 68.097,37.703 75.876,44.249 76.083,49.7 	"/>
	<polygon fill="#A85800" points="68.578,37.454 75.937,43.725 87.742,37.385 80.359,31.097 	"/>
	<polygon fill="#A85800" points="76.232,44.104 76.539,49.458 92.214,41.04 88.296,37.704 	"/>
	<polygon fill="#A85800" points="32.058,38.495 43.525,48.19 43.875,48.542 79.652,29.374 80.962,30.386 45.117,49.614
		57.41,60.118 93.333,40.84 94.304,41.6 57.119,61.59 30.978,39.123 	"/>
</g>
</svg>
