<svg preserveAspectRatio="none" version="1.1" id="Layer_1" xmlns="http://www.w3.org/2000/svg" xmlns:xlink="http://www.w3.org/1999/xlink" x="0px" y="0px"
	 viewBox="0 0 284 298" enable-background="new 0 0 284 298" xml:space="preserve">
<path fill="#ffffff" d="M509.167-129.333v290.5h242.5v-290.5H509.167z M746.274,18.443c-1.698,20.304-4.518,48.76-5.179,66.458
	c-1.36,36.372-38.115,58.406-61.842,56.932c-33.45-2.085-34.732,9.392-59.588,14.89c-42.883,9.485-64.532-26.962-71.063-51.208
	c-9.378-34.811-22.82-40.834-32.265-74.591c-9.496-33.953-1.422-53.393,2.785-61.408c11.343-21.596,24.58-40.938,24.58-40.938
	c59.192-85.364,121.604-45.928,121.604-45.928c40.529,18.971,42.229,22.841,54.216,32.948
	C752.083-56.947,748.313-6.026,746.274,18.443z"/>
<path fill="#ffffff" d="M0,0v298h284V0H0z M274.377,191.877c-12.696,22.543-27.721,42.883-27.721,42.883
	c-67.212,89.779-142.454,52.215-142.454,52.215c-48.645-17.607-50.783-21.487-65.322-31.287
	C-0.603,229.062,2.137,176.883,3.723,151.805c1.324-20.816,3.7-50.008,3.882-68.112c0.38-37.22,43.164-61.332,71.314-60.851
	c39.682,0.665,40.813-11.108,70.062-17.813c50.459-11.554,77.33,24.727,85.884,49.215c12.284,35.146,28.411,40.714,40.735,74.789
	C287.993,163.291,279.09,183.506,274.377,191.877z"/>
</svg>
