<svg preserveAspectRatio="none" version="1.1" id="Layer_1" xmlns="http://www.w3.org/2000/svg" xmlns:xlink="http://www.w3.org/1999/xlink" x="0px" y="0px"
	 viewBox="0 0 242.5 290.5" enable-background="new 0 0 242.5 290.5" xml:space="preserve">
<path fill="#ffffff" d="M0,0v290.5h242.5V0H0z M237.107,147.777c-1.698,20.304-4.518,48.76-5.179,66.458
	c-1.36,36.372-38.115,58.406-61.842,56.932c-33.45-2.085-34.732,9.392-59.588,14.89c-42.883,9.485-64.532-26.962-71.063-51.208
	c-9.378-34.811-22.82-40.834-32.265-74.591c-9.496-33.953-1.422-53.393,2.785-61.408c11.343-21.596,24.58-40.938,24.58-40.938
	C93.729-27.454,156.14,11.982,156.14,11.982c40.529,18.971,42.229,22.841,54.216,32.948
	C242.916,72.386,239.146,123.307,237.107,147.777z"/>
<path fill="#ffffff" d="M-509.167,129.333v298h284v-298H-509.167z M-234.789,321.211c-12.696,22.543-27.721,42.883-27.721,42.883
	c-67.212,89.779-142.454,52.215-142.454,52.215c-48.645-17.607-50.783-21.487-65.322-31.287
	c-39.484-26.626-36.745-78.805-35.158-103.883c1.324-20.816,3.7-50.008,3.882-68.112c0.38-37.22,43.164-61.332,71.314-60.851
	c39.682,0.665,40.813-11.108,70.062-17.813c50.459-11.554,77.33,24.727,85.884,49.215c12.284,35.146,28.411,40.714,40.735,74.789
	C-221.174,292.624-230.076,312.84-234.789,321.211z"/>
</svg>
