<svg version="1.1" id="Calque_1" xmlns="http://www.w3.org/2000/svg" xmlns:xlink="http://www.w3.org/1999/xlink" x="0px" y="0px"
	 viewBox="0 0 284.882 117.638" enable-background="new 0 0 284.882 117.638"
	 xml:space="preserve">
<g>
	<path fill="#005CA9" d="M17.263,84.135c0.867,0.434,1.709,0.648,2.529,0.648c1.813,0,3.263-0.727,4.35-2.182
		c1.084-1.46,1.629-3.145,1.629-5.059c0-1.865-0.544-3.457-1.629-4.772c-1.086-1.316-2.65-1.975-4.695-1.975
		c-1.122,0-2.434,0.386-3.926,1.152c-1.495,0.767-2.925,1.757-4.292,2.97s-2.524,2.681-3.467,4.405
		c-0.945,1.725-1.419,3.43-1.419,5.114c0,1.127,0.416,2.523,1.246,4.195c0.83,1.677,1.662,3.387,2.491,5.137
		s1.243,3.301,1.243,4.654c0,1.509-0.472,2.86-1.415,4.062c-1.304-0.641-2.37-1.737-3.2-3.296c-0.833-1.558-1.246-2.952-1.246-4.178
		c0-0.893,0.101-1.543,0.305-1.952c-1.53,0.151-2.758,0.734-3.676,1.743c-0.92,1.011-1.379,2.062-1.379,3.162
		c0,1.301,0.873,2.879,2.623,4.729c1.75,1.854,3.583,3.009,5.5,3.47c3.295-1.099,5.742-2.587,7.338-4.465
		c1.596-1.876,2.395-3.876,2.395-5.994c0-0.971-0.287-2.04-0.862-3.2c-0.575-1.165-1.208-2.186-1.896-3.065
		c-0.691-0.883-1.324-1.858-1.899-2.933c-0.575-1.074-0.86-2.03-0.86-2.875c0-1.404,0.363-2.829,1.092-4.271
		c0.727-1.442,1.531-2.579,2.413-3.411c0.88-0.827,1.617-1.243,2.202-1.243c0.59,0,0.882,0.512,0.882,1.532
		c0,0.972-0.25,2.239-0.746,3.813C18.392,81.624,17.85,82.983,17.263,84.135z"/>
	<path fill="#005CA9" d="M165.355,80.645c-0.971-0.789-1.954-1.226-2.95-1.301c-1.329,1.071-2.759,2.746-4.292,5.021
		c-1.533,2.271-3.398,5.492-5.595,9.652l-0.268-0.073c0.078-0.229,0.333-0.845,0.767-1.841s0.749-1.833,0.94-2.511
		c0.189-0.676,0.285-1.372,0.285-2.088c0-0.817-0.489-1.659-1.473-2.529c-0.986-0.867-2.244-1.404-3.775-1.606
		c-1.151,2.708-2.082,5.163-2.797,7.369c-0.136,0.228-0.267,0.444-0.383,0.637c-0.357,0.59-0.973,1.47-1.84,2.643
		c-0.868,1.178-1.685,2.123-2.451,2.837c-0.767,0.716-1.7,1.366-2.799,1.954c-1.097,0.588-2.184,0.883-3.255,0.883
		c-2.633,0-3.949-1.395-3.949-4.179c0-0.741,0.065-1.379,0.194-1.916h0.383c2.476,0,4.904-0.86,7.28-2.585s3.563-3.634,3.563-5.729
		c0-0.893-0.378-1.642-1.13-2.242c-0.754-0.6-1.732-0.902-2.933-0.902c-2.503,0-4.854,0.87-7.05,2.607s-3.888,3.82-5.076,6.246
		c-0.619,1.265-1.068,2.506-1.365,3.729c-0.712,0.969-1.504,1.937-2.39,2.9c-1.316,1.43-2.383,2.144-3.2,2.144
		c-0.792,0-1.188-0.561-1.188-1.685c0-1.147,0.3-2.931,0.9-5.344c0.6-2.415,0.9-4.12,0.9-5.116c0-1.175-0.512-2.158-1.533-2.952
		c-1.021-0.789-2.045-1.226-3.064-1.299c-0.512,0.406-1.011,0.88-1.495,1.415c-0.487,0.536-1.092,1.309-1.821,2.319
		c-0.726,1.009-1.321,1.838-1.783,2.489c-0.459,0.652-1.276,1.853-2.451,3.603c-1.175,1.75-2.083,3.084-2.721,4.005l-0.116-0.038
		c0.179-0.615,0.542-1.611,1.092-2.988c0.55-1.382,1.016-2.65,1.399-3.815c0.383-1.159,0.575-2.138,0.575-2.932
		c0-1.147-0.487-2.101-1.455-2.853c-0.971-0.754-1.954-1.17-2.95-1.245c-1.687,1.354-4.153,4.125-7.396,8.315
		c1.046-2.554,1.571-4.316,1.571-5.287c0-0.792-0.53-1.629-1.591-2.512c-1.059-0.88-2.355-1.425-3.888-1.629
		c-1.34,3.163-2.405,5.964-3.217,8.432c-0.51,0.872-1.045,1.755-1.629,2.663c-0.933,1.442-2.058,2.88-3.372,4.31
		c-1.316,1.43-2.385,2.144-3.202,2.144c-0.792,0-1.188-0.561-1.188-1.685c0-1.147,0.3-2.931,0.9-5.344
		c0.6-2.415,0.903-4.12,0.903-5.116c0-1.175-0.512-2.158-1.533-2.952c-1.023-0.789-2.045-1.226-3.066-1.299
		c-0.512,0.406-1.009,0.88-1.496,1.415c-0.484,0.536-1.092,1.309-1.818,2.319c-0.729,1.009-1.324,1.838-1.783,2.489
		c-0.459,0.652-1.278,1.853-2.451,3.603c-1.175,1.75-2.083,3.084-2.721,4.005l-0.116-0.038c0.179-0.615,0.542-1.611,1.092-2.988
		c0.55-1.382,1.016-2.65,1.399-3.815c0.383-1.159,0.575-2.138,0.575-2.932c0-1.147-0.486-2.101-1.457-2.853
		c-0.971-0.754-1.955-1.17-2.951-1.245c-1.684,1.354-4.15,4.125-7.396,8.315c1.049-2.554,1.571-4.316,1.571-5.287
		c0-0.792-0.529-1.629-1.591-2.512c-1.059-0.88-2.355-1.425-3.888-1.629c-1.3,3.069-2.346,5.805-3.149,8.22
		c-0.503,0.839-1.038,1.689-1.64,2.567c-0.92,1.339-2,2.63-3.238,3.868c-1.238,1.24-2.279,1.86-3.124,1.86
		c-0.714,0-1.072-0.471-1.072-1.419c0-0.767,0.479-2.312,1.438-4.635c0.958-2.325,1.437-4.05,1.437-5.174
		c0-0.792-0.532-1.629-1.591-2.51c-1.059-0.882-2.358-1.424-3.888-1.626c-1.228,2.809-2.237,5.518-3.028,8.119
		c-1.047,2.686-2.202,4.729-3.467,6.133c-1.263,1.407-2.345,2.107-3.238,2.107c-0.613,0-0.958-0.436-1.034-1.304
		c0-0.766,0.633-2.496,1.896-5.191c1.263-2.693,1.896-4.604,1.896-5.729c0-0.792-0.53-1.629-1.591-2.51
		c-1.059-0.882-2.355-1.424-3.888-1.626c-0.946,2.196-1.972,5.126-3.084,8.79c-1.112,3.669-1.667,6.662-1.667,8.986
		c0,1.176,0.338,2.139,1.016,2.893c0.676,0.754,1.677,1.132,3.006,1.132c1.046,0,2.357-0.59,3.928-1.762
		c1.571-1.176,3.109-2.85,4.617-5.021h0.154c-0.025,0.282-0.041,0.676-0.041,1.188c0,1.203,0.333,2.168,0.999,2.912
		c0.663,0.741,1.659,1.109,2.988,1.109c1.2,0,2.4-0.272,3.601-0.821c1.2-0.55,2.294-1.316,3.278-2.3s1.864-1.949,2.643-2.893
		c0.403-0.488,0.792-1.018,1.17-1.582c-0.272,1.364-0.424,2.568-0.424,3.574c0,1.175,0.338,2.146,1.016,2.912
		c0.676,0.767,1.679,1.162,3.008,1.188c0.817-2.12,1.742-4.074,2.779-5.862c1.034-1.788,2.067-3.258,3.102-4.405
		c1.036-1.152,1.878-2.027,2.529-2.625c0.653-0.603,1.284-1.117,1.899-1.553l0.038,0.383c-2.607,5.825-3.908,10.092-3.908,12.8
		c0,1.071,0.439,2.012,1.321,2.813c0.88,0.805,1.974,1.221,3.275,1.246c1.737-4.034,3.762-7.703,6.075-10.994
		c2.312-3.296,4.042-5.366,5.191-6.211l0.076,0.5c0,0.254-0.196,0.955-0.592,2.107c-0.396,1.147-0.787,2.534-1.17,4.158
		c-0.383,1.621-0.575,3.109-0.575,4.463c0,1.226,0.245,2.268,0.729,3.122c0.484,0.854,1.313,1.283,2.491,1.283
		c1.379,0,2.809-0.459,4.292-1.377c1.48-0.923,2.776-2.002,3.888-3.24c1.112-1.237,2.191-2.645,3.238-4.213
		c0.075-0.112,0.138-0.211,0.21-0.321c-0.306,1.468-0.478,2.76-0.478,3.826c0,1.175,0.338,2.146,1.016,2.912
		c0.676,0.767,1.677,1.162,3.005,1.188c0.817-2.12,1.745-4.074,2.779-5.862c1.037-1.788,2.068-3.258,3.104-4.405
		c1.034-1.152,1.876-2.027,2.529-2.625c0.65-0.603,1.283-1.117,1.896-1.553l0.038,0.383c-2.605,5.825-3.909,10.092-3.909,12.8
		c0,1.071,0.441,2.012,1.321,2.813c0.883,0.805,1.975,1.221,3.278,1.246c1.735-4.034,3.759-7.703,6.072-10.994
		c2.312-3.296,4.042-5.366,5.192-6.211l0.078,0.5c0,0.254-0.199,0.955-0.595,2.107c-0.396,1.147-0.784,2.534-1.167,4.158
		c-0.383,1.621-0.575,3.109-0.575,4.463c0,1.226,0.242,2.268,0.726,3.122c0.487,0.854,1.316,1.283,2.491,1.283
		c1.379,0,2.812-0.459,4.292-1.377c1.48-0.923,2.778-2.002,3.888-3.24c0.618-0.687,1.224-1.432,1.822-2.223
		c0.003,1.983,0.532,3.589,1.59,4.811c1.059,1.226,2.663,1.838,4.809,1.838c3.475,0,6.646-1.359,9.521-4.08
		c1.415-1.338,2.726-2.895,3.939-4.663c-0.252,1.343-0.394,2.558-0.394,3.609c0,1.124,0.535,2.146,1.608,3.066
		c1.072,0.918,2.3,1.379,3.68,1.379c1.709-4.292,3.661-8.321,5.859-12.091c2.196-3.768,3.782-5.996,4.751-6.685
		c0.232,0,0.348,0.688,0.348,2.067l1.533-0.345c1.019-0.205,2.04-0.61,3.062-1.226c1.023-0.61,1.533-1.326,1.533-2.144
		C166.811,82.42,166.326,81.437,165.355,80.645z M135.066,86.394c1.137-1.406,2.179-2.107,3.122-2.107c0.64,0,0.96,0.346,0.96,1.033
		c0,1.38-0.633,2.691-1.899,3.929c-1.263,1.238-2.892,1.937-4.884,2.088C133.029,89.448,133.929,87.799,135.066,86.394z"/>
	<path fill="#005CA9" d="M188.213,97.391c-1.828,2.017-3.633,3.472-5.424,4.37c-0.206-0.465-0.305-1.46-0.305-2.993
		c0-2.859,0.431-5.808,1.301-8.849c0.867-3.038,1.899-5.638,3.084-7.799c1.188-2.156,2.391-3.932,3.604-5.325
		c1.213-1.393,2.188-2.088,2.933-2.088c0.61,0,0.918,0.512,0.918,1.532c0,0.972-0.247,2.239-0.747,3.813
		c-0.499,1.57-1.041,2.93-1.631,4.082c0.87,0.434,1.715,0.648,2.529,0.648c1.815,0,3.265-0.727,4.352-2.182
		c1.084-1.46,1.629-3.145,1.629-5.059c0-1.865-0.545-3.464-1.629-4.791c-1.087-1.328-2.65-1.991-4.695-1.991
		c-2.501,0.842-4.949,2.101-7.337,3.771c-2.389,1.677-4.534,3.634-6.438,5.883c-1.904,2.247-3.435,4.809-4.6,7.684
		c-1.16,2.874-1.74,5.792-1.74,8.755c0,2.017,0.644,3.851,1.932,5.499c1.291,1.646,3.379,2.905,6.267,3.772
		c2.606-0.918,4.924-2.509,6.954-4.769c2.032-2.262,4.093-5.179,6.188-8.757l-2.529-1.415
		C191.577,93.303,190.036,95.374,188.213,97.391z"/>
	<path fill="#005CA9" d="M216.548,98.271c0-0.767,0.524-2.663,1.571-5.691c1.046-3.025,1.568-5.101,1.568-6.223
		c0-0.792-0.472-1.594-1.418-2.396c-0.942-0.805-2.181-1.309-3.714-1.516c-0.512,1.611-1.112,3.253-1.803,4.925
		c-0.688,1.674-1.463,3.333-2.317,4.979c-0.854,1.649-1.777,2.991-2.759,4.024c-0.985,1.034-1.896,1.554-2.74,1.554
		c-0.918,0-1.38-0.603-1.38-1.803c0-0.663,0.121-1.423,0.363-2.28c0.242-0.854,0.633-1.762,1.17-2.721
		c0.537-0.958,1.168-1.838,1.896-2.643c0.729-0.804,1.642-1.467,2.74-1.991c1.098-0.525,2.274-0.787,3.525-0.787
		c-0.996-1.149-2.234-1.725-3.717-1.725c-2.271,0-4.433,0.805-6.478,2.415c-2.043,1.609-3.621,3.518-4.73,5.727
		c-1.112,2.212-1.667,4.3-1.667,6.267c0,1.661,0.33,2.993,0.996,4.004c0.663,1.006,1.634,1.513,2.912,1.513
		c0.843,0,1.705-0.204,2.585-0.61c0.883-0.41,1.624-0.856,2.224-1.344c0.601-0.484,1.254-1.149,1.954-1.992
		c0.704-0.842,1.201-1.462,1.496-1.858c0.292-0.396,0.67-0.95,1.129-1.666h0.229c-0.459,1.634-0.688,2.963-0.688,3.983
		c0,3.271,1.327,4.904,3.984,4.904c0.996,0,1.941-0.191,2.837-0.572c0.893-0.386,1.602-0.814,2.126-1.286
		c0.524-0.471,1.008-1.014,1.454-1.629c0.447-0.609,0.734-1.033,0.863-1.263c0.128-0.229,0.217-0.421,0.27-0.572
		c-0.945,0.355-1.75,0.531-2.413,0.531C217.236,100.53,216.548,99.782,216.548,98.271z"/>
	<path fill="#005CA9" d="M283.18,84.958c-0.663-1.009-1.634-1.516-2.912-1.516c-2.451,0-5.159,1.841-8.122,5.517
		c0.025-0.126,0.141-0.489,0.346-1.092c0.204-0.598,0.393-1.172,0.574-1.722c0.18-0.55,0.268-0.888,0.268-1.014
		c0-0.795-0.529-1.629-1.591-2.512c-1.062-0.88-2.355-1.425-3.889-1.629c-1.149,2.732-2.554,6.276-4.209,10.619
		c-0.342,0.562-0.688,1.125-1.059,1.702c-0.936,1.442-2.058,2.88-3.374,4.31c-1.315,1.43-2.38,2.144-3.199,2.144
		c-0.792,0-1.188-0.561-1.188-1.685c0-1.147,0.3-2.931,0.902-5.344c0.598-2.415,0.9-4.12,0.9-5.116c0-1.175-0.512-2.158-1.533-2.952
		c-1.021-0.789-2.045-1.226-3.066-1.299c-0.512,0.406-1.009,0.88-1.495,1.415c-0.484,0.536-1.089,1.309-1.818,2.319
		c-0.729,1.009-1.323,1.838-1.782,2.489c-0.459,0.652-1.278,1.853-2.454,3.603c-1.172,1.75-2.08,3.084-2.718,4.005l-0.116-0.038
		c0.177-0.615,0.542-1.611,1.092-2.988c0.55-1.382,1.017-2.65,1.397-3.815c0.386-1.159,0.577-2.138,0.577-2.932
		c0-1.147-0.486-2.101-1.457-2.853c-0.969-0.754-1.952-1.17-2.948-1.245c-1.689,1.354-4.153,4.125-7.398,8.315
		c1.049-2.554,1.574-4.316,1.574-5.287c0-0.792-0.532-1.629-1.594-2.512c-1.057-0.88-2.355-1.425-3.889-1.629
		c-3.396,8.021-5.094,13.808-5.094,17.358c0,1.175,0.338,2.146,1.014,2.912s1.68,1.162,3.009,1.188
		c0.816-2.12,1.742-4.074,2.776-5.862c1.036-1.788,2.07-3.258,3.106-4.405c1.033-1.152,1.876-2.027,2.529-2.625
		c0.647-0.603,1.28-1.117,1.896-1.553l0.038,0.383c-2.607,5.825-3.908,10.092-3.908,12.8c0,1.071,0.441,2.012,1.321,2.813
		c0.883,0.805,1.975,1.221,3.275,1.246c1.737-4.034,3.762-7.703,6.074-10.994c2.31-3.296,4.042-5.366,5.192-6.211l0.075,0.5
		c0,0.254-0.196,0.955-0.593,2.107c-0.398,1.147-0.786,2.534-1.17,4.158c-0.383,1.621-0.575,3.109-0.575,4.463
		c0,1.226,0.242,2.268,0.729,3.122c0.483,0.854,1.315,1.283,2.488,1.283c1.382,0,2.812-0.459,4.292-1.377
		c1.482-0.923,2.781-2.002,3.891-3.24c0.645-0.717,1.276-1.498,1.899-2.327c-2.139,5.847-3.221,9.647-3.221,11.353
		c0,2.093,0.408,3.679,1.226,4.75c0.816,1.074,2.415,1.634,4.788,1.688c0.845-4.319,1.803-8.178,2.875-11.571
		c0.512-1.665,1.074-3.271,1.687-4.829c0.613-1.559,1.316-3.124,2.108-4.695c0.792-1.568,1.642-2.834,2.547-3.792
		c0.905-0.959,1.782-1.436,2.624-1.436c0.921,0,1.38,0.598,1.38,1.799c0,1.149-0.312,2.506-0.938,4.062
		c-0.628,1.559-1.599,3.003-2.912,4.33c-1.316,1.328-2.741,1.991-4.271,1.991c-0.257,0.562-0.383,1.05-0.383,1.455
		c0,0.87,0.776,1.304,2.335,1.304c1.304,0,2.619-0.343,3.948-1.033c1.326-0.688,2.521-1.597,3.583-2.721
		c1.06-1.122,2.018-2.36,2.875-3.717c0.853-1.354,1.51-2.727,1.972-4.118c0.459-1.395,0.688-2.663,0.688-3.815
		C284.176,87.299,283.846,85.965,283.18,84.958z"/>
</g>
<path fill="#FFD629" d="M160.621,48.57l-9.934-10.768c-0.001-0.078-0.01-0.154-0.01-0.232c0-7.529,6.122-13.652,13.648-13.652
	c7.527,0,13.652,6.123,13.652,13.652c0,4.521-2.171,8.643-5.847,11.198c-1.907-0.576-3.943-0.925-6.093-0.925
	C164.113,47.843,162.32,48.115,160.621,48.57z"/>
<g>
	<path fill="#005CA9" d="M164.458,45.614c-1.611,0-3.215-0.358-4.713-1.072c-0.988-0.472-1.407-1.654-0.936-2.643
		c0.472-0.989,1.654-1.405,2.643-0.936c1.689,0.807,3.591,0.905,5.355,0.277c1.766-0.628,3.183-1.901,3.984-3.591
		c0.474-0.988,1.654-1.404,2.643-0.938c0.988,0.469,1.409,1.652,0.938,2.64c-1.261,2.647-3.477,4.645-6.238,5.625
		C166.934,45.402,165.693,45.614,164.458,45.614z"/>
</g>
<g>
	<circle fill="#005CA9" cx="159.833" cy="34.42" r="1.967"/>
</g>
<g>
	<circle fill="#005CA9" cx="167.729" cy="32.454" r="1.967"/>
</g>
<path fill="#E30613" d="M108.181,46.503l9-9.104V20.673H88.077v29.104h8.527C100.156,47.674,103.95,46.621,108.181,46.503z"/>
<g>
	<polygon fill="#FFFFFF" points="111.14,32.877 105.131,32.877 105.131,27.234 100.128,27.234 100.128,32.877 94.119,32.877
		94.119,37.575 100.128,37.575 100.128,43.215 105.131,43.215 105.131,37.575 111.14,37.575 	"/>
</g>
<g>
	<path fill="#005CA9" d="M163.669,16.336h0.002c0.966-0.002,1.75-0.787,1.747-1.752l-0.015-10.941
		c-0.003-0.968-0.784-1.75-1.75-1.75c-0.969,0.002-1.75,0.787-1.75,1.752l0.016,10.943
		C161.921,15.554,162.703,16.336,163.669,16.336z"/>
	<path fill="#005CA9" d="M173.304,18.141c0.229,0.101,0.466,0.149,0.703,0.149c0.673,0,1.316-0.391,1.604-1.046l4.388-9.983
		c0.391-0.885-0.013-1.919-0.897-2.307c-0.883-0.388-1.919,0.013-2.308,0.897l-4.388,9.983
		C172.018,16.719,172.418,17.753,173.304,18.141z"/>
	<path fill="#005CA9" d="M182.661,24.281c0.421,0,0.842-0.151,1.177-0.459l8.021-7.317c0.714-0.651,0.767-1.758,0.113-2.471
		c-0.65-0.713-1.76-0.767-2.471-0.113l-8.023,7.32c-0.712,0.648-0.762,1.755-0.114,2.469
		C181.713,24.087,182.185,24.281,182.661,24.281z"/>
	<path fill="#005CA9" d="M199.961,27.927c-0.305-0.917-1.299-1.417-2.211-1.109l-10.306,3.422c-0.918,0.305-1.412,1.296-1.107,2.211
		c0.242,0.736,0.926,1.2,1.659,1.2c0.182,0,0.368-0.028,0.553-0.091l10.303-3.422C199.767,29.836,200.267,28.845,199.961,27.927z"/>
	<path fill="#005CA9" d="M151.071,17.619c0.287,0.658,0.93,1.052,1.605,1.052c0.234,0,0.47-0.045,0.699-0.146
		c0.885-0.386,1.291-1.415,0.904-2.302l-4.359-10.021c-0.386-0.885-1.417-1.291-2.302-0.905c-0.888,0.386-1.294,1.417-0.905,2.305
		L151.071,17.619z"/>
	<path fill="#005CA9" d="M142.392,24.806c0.338,0.315,0.764,0.469,1.19,0.469c0.472,0,0.938-0.187,1.28-0.558
		c0.661-0.706,0.621-1.813-0.085-2.471l-7.956-7.409c-0.706-0.661-1.816-0.618-2.471,0.088c-0.658,0.708-0.621,1.815,0.085,2.474
		L142.392,24.806z"/>
	<path fill="#005CA9" d="M176.322,50.472c3.564-3.295,5.62-7.912,5.62-12.902c0-9.713-7.902-17.616-17.616-17.616
		c-9.698,0-17.592,7.884-17.61,17.581l-6.014,6.014l-11.266-15.291c-0.343-0.467-0.873-0.759-1.45-0.799
		c-0.572-0.045-1.147,0.171-1.553,0.583l-18.252,18.462c-9.915,0.276-17.445,5.635-25.025,17.803
		c-0.58,0.928-0.295,2.147,0.633,2.728c0.325,0.202,0.688,0.301,1.046,0.301c0.661,0,1.309-0.331,1.684-0.934
		c8.742-14.03,15.964-15.961,22.47-15.961c3.633,0,9.241,3.096,13.188,6.165c13.347,10.381,22.039,5.142,29.704,0.522
		c4.542-2.733,8.831-5.32,14.159-5.32c10.792,0,18.828,11.062,18.909,11.175c0.635,0.89,1.87,1.095,2.763,0.462
		c0.891-0.636,1.098-1.871,0.465-2.762C187.913,60.313,183.429,54.12,176.322,50.472z M149.835,53.735
		c-7.526,4.534-14.024,8.453-25.225-0.26c-1.186-0.921-6.305-4.738-11.508-6.311l14.519-14.686l11.258,15.275
		c0.343,0.464,0.873,0.759,1.448,0.804c0.564,0.043,1.142-0.169,1.551-0.577l6.662-6.662l8.039,8.712
		C154.217,51.096,152.009,52.425,149.835,53.735z M160.621,48.57l-9.934-10.768c-0.001-0.078-0.01-0.154-0.01-0.232
		c0-7.529,6.122-13.652,13.648-13.652c7.527,0,13.652,6.123,13.652,13.652c0,4.521-2.171,8.643-5.847,11.198
		c-1.907-0.576-3.943-0.925-6.093-0.925C164.113,47.843,162.32,48.115,160.621,48.57z"/>
</g>
<path fill="#8AC16A" d="M149.835,53.735c2.174-1.311,4.382-2.639,6.743-3.704l-8.039-8.712l-6.662,6.662
	c-0.408,0.408-0.986,0.62-1.551,0.577c-0.575-0.045-1.104-0.34-1.447-0.804L127.62,32.479l-14.519,14.686
	c5.203,1.572,10.322,5.389,11.508,6.311C135.811,62.188,142.309,58.269,149.835,53.735z"/>
<polygon fill="#FFFFFF" points="128.427,41.067 131.852,38.22 127.62,32.479 123.169,36.981 127.136,36.44 "/>
<polygon fill="#FFFFFF" points="148.267,45.142 153.457,46.649 148.539,41.319 143.384,46.474 143.383,46.476 "/>
</svg>
