<svg version="1.1" id="Layer_1" xmlns="http://www.w3.org/2000/svg" xmlns:xlink="http://www.w3.org/1999/xlink" x="0px" y="0px"
	  viewBox="0 0 1440.074 240.15" enable-background="new 0 0 1440.074 240.15"
	 xml:space="preserve">
<path fill="#FFFFFF" d="M0,199.242c342-16,745.126,61.417,1440.074,22.242v18.666H0V199.242z"/>
<g>
	<path fill="#FFFFFF" d="M1440.074,25.365c-0.155-0.172-0.336-0.328-0.463-0.52c-0.396-0.603-0.799-1.202-1.154-1.831
		c-0.67-1.186-1.59-2.015-2.939-2.363c-1.958-0.507-3.362-1.798-4.549-3.363c-1.075-1.417-2.273-2.726-3.528-3.985
		c-0.636-0.637-1.421-0.976-2.271-1.186c-1.119-0.28-2.245-0.53-3.362-0.818c-0.744-0.192-1.482-0.406-2.212-0.65
		c-1.39-0.461-2.629-1.176-3.638-2.258c-0.364-0.393-0.75-0.755-1.312-0.83c-1.449-0.194-2.772-0.773-4.094-1.352
		c-2.074-0.905-4.247-1.188-6.481-1.071c-0.62,0.031-1.231,0.198-1.852,0.271c-1.813,0.209-3.629,0.415-5.444,0.598
		c-1.343,0.136-2.656,0.312-3.886,0.964c-0.986,0.523-2.114,0.635-3.219,0.709c-1.918,0.127-3.838,0.269-5.761,0.303
		c-2.491,0.043-4.843,0.688-7.149,1.529c-1.354,0.491-2.665,1.101-4.015,1.609c-1.051,0.398-1.981,0.961-2.82,1.703
		c-0.503,0.446-1.021,0.88-1.558,1.285c-2.712,2.054-4.962,4.537-6.85,7.354c-0.345,0.517-0.628,1.078-0.891,1.644
		c-0.198,0.434-0.338,0.9-0.137,1.48c0.18,0.051,0.395,0.152,0.613,0.166c1.199,0.077,2.4,0.118,3.599,0.197
		c0.72,0.048,1.434,0.17,2.15,0.216c0.909,0.06,1.823,0.124,2.731,0.097c0.983-0.031,1.867-0.438,2.654-1.021
		c0.694-0.516,1.375-1.051,2.041-1.604c1.915-1.583,4.113-2.479,6.582-2.637c2.448-0.156,4.899-0.156,7.35,0.042
		c1.021,0.081,1.987,0.347,2.922,0.74c2.151,0.907,4.058,2.153,5.645,3.903c0.971,1.067,1.965,2.104,2.772,3.309
		c1.131,1.685,1.763,3.545,1.771,5.557c0.011,2.062-0.096,4.133-0.271,6.188c-0.071,0.843-0.396,1.687-0.721,2.48
		c-1.202,2.946-2.687,5.76-4.535,8.347c-2.412,3.375-4.074,7.063-5.097,11.064c-0.237,0.932-0.483,1.86-0.715,2.795
		c-0.275,1.125-0.448,2.26-0.475,3.421c-0.017,0.812-0.146,1.626-0.224,2.438c-0.088,0.906-0.154,1.817-0.268,2.722
		c-0.335,2.662-1.054,5.182-2.878,7.256c-0.868,0.988-1.938,1.716-3.092,2.331c-0.627,0.336-1.268,0.65-1.998,1.023
		c0.182,0.292,0.303,0.539,0.47,0.75c2.077,2.621,3.675,5.499,4.896,8.615c0.912,2.329,1.81,4.654,2.447,7.078
		c0.219,0.832,0.572,1.634,0.923,2.423c0.579,1.301,0.858,2.646,0.771,4.065c-0.038,0.625-0.041,1.256-0.135,1.871
		c-0.132,0.852,0.053,1.612,0.465,2.352c0.819,1.47,1.616,2.95,2.428,4.425c0.185,0.336,0.381,0.667,0.574,0.999
		c1.356,2.329,2.084,4.847,2.216,7.535c0.081,1.646,0.532,3.219,0.966,4.794c0.521,1.899,1.072,3.792,1.53,5.708
		c0.454,1.897,1.145,3.683,2.36,5.211c1.286,1.622,1.785,3.478,1.87,5.494c0.027,0.624,0.053,1.25,0.123,1.869
		c0.146,1.28,0.648,2.409,1.551,3.34c0.668,0.689,1.327,1.396,2.054,2.023c1.598,1.387,3.221,2.744,4.858,4.082
		c1.474,1.202,2.642,2.638,3.526,4.316c0.243,0.466,0.563,0.891,0.858,1.328c1.258,1.877,2.562,3.723,3.759,5.637
		c0.581,0.93,1.021,1.964,1.427,2.988c1.375,3.476,3.896,5.9,7.053,7.728c1.261,0.729,2.691,1.05,4.116,1.27
		c1.265,0.192,2.399,0.648,3.496,1.271c1.462,0.831,2.942,1.632,4.415,2.443c0,1.829,0,3.655,0,5.483
		c-0.27-0.079-0.558-0.117-0.801-0.243c-1.875-0.977-3.752-1.954-5.608-2.968c-0.807-0.439-1.603-0.869-2.54-0.961
		c-0.283-0.028-0.562-0.124-0.844-0.188c-5.684-1.273-9.839-4.616-12.839-9.504c-0.399-0.652-0.734-1.357-1.007-2.074
		c-1.002-2.639-2.65-4.893-4.217-7.199c-0.7-1.034-1.445-2.039-2.103-3.098c-0.616-0.998-1.362-1.837-2.271-2.579
		c-2.31-1.885-4.621-3.769-6.716-5.899c-1.482-1.51-2.562-3.24-3-5.329c-0.147-0.701-0.211-1.423-0.292-2.138
		c-0.049-0.43-0.072-0.864-0.081-1.296c-0.022-1.147-0.416-2.138-1.101-3.062c-1.447-1.958-2.354-4.163-2.933-6.531
		c-0.63-2.567-1.365-5.107-2.066-7.657c-0.307-1.117-0.527-2.25-0.563-3.405c-0.082-2.577-0.961-4.86-2.287-7.046
		c-1.07-1.765-1.963-3.636-2.927-5.465c-0.604-1.147-0.708-2.381-0.582-3.647c0.043-0.431,0.112-0.857,0.156-1.288
		c0.106-1.073-0.086-2.076-0.513-3.088c-0.538-1.278-0.94-2.62-1.359-3.948c-1.146-3.63-2.479-7.176-4.498-10.432
		c-0.766-1.234-1.648-2.379-2.691-3.375c-0.652-0.622-1.438-1.119-2.204-1.601c-0.256-0.162-0.646-0.135-0.977-0.148
		c-1.979-0.079-3.938,0.14-5.896,0.373c-2.578,0.309-5.151,0.657-7.729,0.961c-1.222,0.144-2.327,0.523-3.334,1.244
		c-1.073,0.771-2.259,1.229-3.613,1.271c-2.118,0.062-4.233,0.099-6.341-0.13c-1.888-0.207-3.681-0.711-5.228-1.886
		c-0.932-0.705-1.723-1.529-2.25-2.588c-0.586-1.179-1.409-2.165-2.369-3.062c-0.384-0.356-0.772-0.509-1.281-0.526
		c-0.522-0.018-1.057-0.068-1.563-0.19c-2.04-0.485-3.207-1.79-3.58-3.854c-0.127-0.705-0.388-1.386-0.574-2.081
		c-0.125-0.462-0.296-0.924-0.33-1.396c-0.297-4.118,0.432-8.028,2.288-11.743c0.831-1.66,1.806-3.168,3.238-4.359
		c0.146-0.123,0.272-0.271,0.404-0.411c2.966-3.15,5.938-6.294,8.89-9.458c0.557-0.596,1.069-1.242,1.521-1.922
		c2.351-3.533,5.062-6.774,7.879-9.938c1.183-1.328,2.272-2.737,3.39-4.121c0.299-0.369,0.538-0.784,0.804-1.173
		c-0.104-0.181-0.146-0.354-0.25-0.41c-0.965-0.527-1.387-1.409-1.68-2.412c-0.61-2.084-0.385-4.093,0.487-6.047
		c0.216-0.483,0.454-0.961,0.749-1.397c1.916-2.838,3.975-5.552,6.649-7.739c1.19-0.975,2.362-1.973,3.541-2.962
		c1.041-0.873,2.188-1.563,3.461-2.042c0.767-0.285,1.561-0.518,2.289-0.876c2.088-1.026,4.288-1.687,6.537-2.229
		c1.223-0.295,2.447-0.479,3.704-0.526c2.066-0.079,4.13-0.209,6.194-0.312c0.779-0.039,1.506-0.232,2.214-0.577
		c0.553-0.271,1.156-0.494,1.76-0.598c1.42-0.241,2.854-0.405,4.284-0.588c1.43-0.182,2.876-0.271,4.291-0.532
		c3.659-0.674,7.176-0.23,10.596,1.167c1.246,0.51,2.49,0.993,3.839,1.212c1.257,0.205,2.368,0.729,3.15,1.839
		c0.608,0.862,1.552,1.271,2.547,1.533c1.396,0.365,2.789,0.742,4.197,1.049c2.233,0.487,4.071,1.576,5.651,3.245
		c1.13,1.189,2.145,2.464,3.166,3.731c0.719,0.89,1.529,1.557,2.639,1.901c0.861,0.268,1.683,0.667,2.521,1.008
		C1440.074,19.787,1440.074,22.576,1440.074,25.365z M1342.417,79.748c0.293,0.53,0.533,0.941,0.748,1.367
		c0.464,0.916,1.201,1.502,2.179,1.753c0.741,0.191,1.501,0.375,2.259,0.415c1.439,0.076,2.884,0.047,4.325,0.066
		c0.602,0.008,1.122-0.207,1.61-0.543c1.742-1.199,3.688-1.811,5.78-2.03c2.058-0.214,4.106-0.481,6.157-0.74
		c2.529-0.317,5.059-0.565,7.613-0.626c1.771-0.041,3.561-0.193,5.302-0.511c2.786-0.508,4.727-2.055,5.307-4.981
		c0.074-0.377,0.185-0.75,0.228-1.131c0.167-1.479,0.396-2.957,0.447-4.44c0.08-2.275,0.507-4.479,1.048-6.68
		c1.238-5.041,3.104-9.786,6.202-14.016c1.509-2.057,2.655-4.346,3.72-6.665c0.426-0.926,0.755-1.877,0.79-2.905
		c0.046-1.346,0.076-2.69,0.103-4.036c0.027-1.4-0.391-2.67-1.292-3.733c-0.867-1.026-1.733-2.072-2.729-2.966
		c-1.575-1.411-3.409-2.325-5.603-2.312c-1.587,0.012-3.174,0-4.76,0.006c-1.703,0.006-3.194,0.582-4.505,1.664
		c-0.741,0.613-1.479,1.239-2.274,1.772c-1.531,1.027-3.172,1.82-5.068,1.856c-1.489,0.027-2.979,0.118-4.457-0.19
		c-0.514-0.107-1.055-0.069-1.579-0.125c-0.729-0.079-1.172,0.232-1.449,0.899c-0.444,1.071-1.03,2.066-1.767,2.966
		c-1.249,1.522-2.477,3.067-3.778,4.545c-2.58,2.923-5.084,5.896-7.236,9.157c-0.553,0.839-1.186,1.645-1.872,2.376
		c-3.45,3.682-6.782,7.478-10.416,10.985c-0.309,0.298-0.592,0.644-0.799,1.015c-1.013,1.813-1.841,3.705-2.237,5.757
		c-0.487,2.508-0.391,4.961,0.818,7.383c2.078,0.188,4.188,0.125,6.211-0.566c1.109-0.379,2.209-0.621,3.374-0.623
		c0.576-0.002,1.157-0.017,1.729-0.085c1.475-0.178,2.97-0.17,4.417-0.608c1.607-0.486,3.244-0.886,4.862-1.346
		c0.831-0.234,1.646-0.521,2.47-0.786c1.157-0.371,2.056-1.027,2.479-2.222c0.047-0.135,0.131-0.259,0.206-0.381
		c0.744-1.171,2.073-1.591,3.25-1.03c1.194,0.57,1.793,1.885,1.308,3.153c-0.778,2.026-1.938,3.752-4.053,4.645
		c-1.463,0.617-2.93,1.2-4.479,1.583c-1.632,0.402-3.24,0.899-4.867,1.328c-0.787,0.209-1.585,0.434-2.391,0.513
		c-1.673,0.164-3.354,0.26-5.035,0.341C1343.919,79.052,1343.21,79.271,1342.417,79.748z"/>
	<path fill="#FFFFFF" d="M1440.074,40.663c-1.153-0.401-2.364-0.385-3.557-0.415c-0.394-0.012-0.858,0.195-1.181,0.444
		c-2.358,1.842-5.178,2.716-7.918,3.734c-0.886,0.33-1.867,0.449-2.818,0.545c-2.966,0.298-5.938,0.547-8.923,0.428
		c-0.528-0.021-1.058-0.035-1.585-0.055c-1.993-0.073-3.438-1.123-4.565-2.649c-0.299-0.404-0.453-0.963-0.524-1.474
		c-0.297-2.068-0.193-4.121,0.446-6.127c0.321-1.009,0.642-2.018,0.98-3.019c0.14-0.408,0.313-0.805,0.503-1.192
		c0.782-1.609,1.797-3.065,2.944-4.437c1.1-1.314,2.426-2.325,3.985-3.023c0.789-0.354,1.583-0.679,2.229-1.299
		c0.429-0.412,0.999-0.549,1.594-0.576c1.841-0.083,3.637,0.021,5.358,0.817c3.051,1.415,6.188,2.652,8.954,4.624
		c0.546,0.391,1.166,0.675,1.726,1.048c0.797,0.533,1.567,1.103,2.352,1.656C1440.074,33.351,1440.074,37.006,1440.074,40.663z
		 M1431.803,36.772c-1.358-0.787-4.316-1.734-5.812-1.732c-2.544,0.002-5.089,0.049-7.628,0.181
		c-1.043,0.057-2.072,0.377-3.104,0.59c-0.581,0.12-0.943,0.501-1.027,1.072c-0.118,0.805-0.208,1.615-0.249,2.427
		c-0.036,0.735,0.175,0.997,0.9,1.001c1.918,0.006,3.837-0.027,5.754-0.087c0.91-0.029,1.814-0.187,2.725-0.238
		c1.306-0.075,2.571-0.301,3.778-0.823c1.101-0.476,2.211-0.932,3.312-1.411C1430.93,37.539,1431.419,37.329,1431.803,36.772z
		 M1433.533,31.719c-0.47-0.628-0.937-0.877-1.372-1.148c-2.328-1.456-4.849-2.517-7.362-3.592c-0.421-0.181-0.81-0.183-1.247-0.004
		c-0.438,0.176-0.912,0.279-1.38,0.354c-1.566,0.246-2.909,0.927-4.036,2.032c-0.146,0.141-0.202,0.373-0.36,0.68
		c0.479,0,0.81,0.006,1.138-0.002c2.11-0.036,4.222-0.083,6.332-0.117c1.646-0.026,3.25,0.199,4.809,0.746
		c0.543,0.191,1.105,0.316,1.658,0.481C1432.249,31.312,1432.783,31.483,1433.533,31.719z"/>
	<path fill="#FFFFFF" d="M1440.074,167.65c-2.823,1.16-5.121,0.14-7.184-1.765c-0.269-0.245-0.492-0.62-0.57-0.971
		c-0.152-0.695-0.266-1.417-0.258-2.127c0.015-1.171,0.853-2.122,1.946-2.357c1.134-0.245,2.223,0.245,2.788,1.275
		c0.137,0.249,0.206,0.535,0.336,0.79c0.256,0.503,0.731,0.627,1.189,0.292c0.267-0.197,0.511-0.435,0.72-0.69
		c0.361-0.443,0.689-0.913,1.031-1.373C1440.074,163.033,1440.074,165.344,1440.074,167.65z"/>
	<path fill="#FFFFFF" d="M958.117,196.612c0.053,0.271,0.098,0.548,0.16,0.82c0.974,4.173,2.337,8.229,3.694,12.29
		c1.445,4.331,2.944,8.646,4.382,12.982c0.393,1.184,0.685,2.404,0.938,3.628c0.62,2.971,1.474,5.875,2.289,8.794
		c0.243,0.867,0.562,1.625,1.443,2.015c0.069,0.03,0.099,0.153,0.146,0.235c-0.055,0.067-0.099,0.188-0.16,0.196
		c-1.169,0.151-4.934,0.095-5.955-0.091c-0.102-0.271-0.242-0.572-0.328-0.889c-0.729-2.692-1.533-5.366-2.147-8.082
		c-0.742-3.295-1.704-6.513-2.812-9.694c-1.628-4.676-3.378-9.312-4.735-14.079c-1.001-3.515-1.938-7.046-2.847-10.585
		c-0.812-3.167-1.53-6.358-2.333-9.526c-0.549-2.173-0.521-4.386-0.587-6.593c-0.006-0.188,0.04-0.383,0.081-0.57
		c0.265-1.186,1.138-1.992,2.269-2.102c1.167-0.112,2.219,0.45,2.615,1.612c0.398,1.159,1.041,2.152,1.678,3.172
		c1.407,2.25,2.459,4.682,3.588,7.073c0.556,1.173,1.069,2.368,1.688,3.508c1.476,2.708,2.703,5.525,3.828,8.394
		c1.811,4.613,3.865,9.121,6.077,13.554c1.043,2.089,1.703,4.258,2.036,6.574c0.396,2.756,0.92,5.505,1.562,8.215
		c0.352,1.482,1.061,2.884,1.614,4.314c0.026,0.071,0.139,0.11,0.246,0.19c0.314-0.377,0.179-0.824,0.179-1.23
		c0.012-4.424,0.008-8.849,0.008-13.275c0-6.541,0.023-13.082-0.012-19.624c-0.018-3.222-0.139-6.441-0.216-9.665
		c-0.021-0.816-0.068-1.633-0.072-2.449c-0.022-4.858-0.083-9.715-0.383-14.565c-0.62-10.042-0.317-20.098-0.307-30.146
		c0.005-3.85,0.515-7.676,0.951-11.498c0.603-5.267,1.748-10.431,2.812-15.61c0.222-1.083,0.388-2.177,0.601-3.263
		c0.475-2.405,0.971-4.807,1.438-7.214c0.155-0.802,0.267-1.61,0.373-2.422c0.044-0.338-0.016-0.68-0.294-0.926
		c-1.296-1.139-1.72-2.613-1.678-4.274c0.003-0.096-0.021-0.191-0.047-0.282c-0.011-0.041-0.052-0.071-0.09-0.12
		c-0.288-0.146-0.425,0.105-0.574,0.267c-0.523,0.562-1.019,1.154-1.552,1.709c-1.279,1.328-2.724,2.425-4.435,3.154
		c-1.08,0.463-2.201,0.667-3.365,0.692c-0.527,0.01-1.06-0.033-1.586-0.002c-1.116,0.062-2.062-0.4-2.983-0.933
		c-0.472-0.271-0.811-0.683-1.021-1.183c-0.354-0.847-0.629-1.709-0.641-2.646c-0.022-2.075,0.069-4.135,0.742-6.128
		c0.054-0.16,0.008-0.354,0.008-0.638c-0.315,0.126-0.523,0.221-0.738,0.296c-0.495,0.176-0.981,0.429-1.492,0.497
		c-0.948,0.123-1.76,0.508-2.451,1.125c-0.707,0.628-1.536,0.981-2.417,1.24c-1.392,0.41-3.264-0.367-3.992-1.629
		c-0.298-0.518-0.444-1.081-0.317-1.666c0.3-1.361,0.571-2.733,0.98-4.063c0.235-0.768,0.697-1.473,1.092-2.185
		c0.489-0.883,1.044-1.729,1.519-2.621c0.658-1.241,1.463-2.372,2.454-3.367c0.983-0.987,1.978-1.968,2.962-2.955
		c1.131-1.133,2.452-2.009,3.795-2.859c1.015-0.644,2.045-1.262,3.048-1.927c1.21-0.799,2.499-1.435,3.837-1.984
		c1.348-0.554,2.734-0.897,4.202-0.899c0.331,0,0.662-0.069,1.001-0.105c0.154-0.213,0.322-0.391,0.432-0.6
		c0.62-1.192,1.626-2.005,2.688-2.767c0.563-0.403,1.201-0.585,1.896-0.585c1.54,0.004,3.078,0,4.617-0.006
		c0.645-0.003,1.218,0.196,1.785,0.493c0.68,0.354,1.39,0.646,2.091,0.957c1.05,0.464,2.106,0.887,3.223,1.195
		c0.819,0.228,1.563,0.73,2.336,1.117c0.603,0.301,1.17,0.694,1.801,0.906c1.257,0.419,2.33,1.125,3.366,1.913
		c0.578,0.438,1.175,0.833,1.914,0.961c0.229,0.038,0.454,0.158,0.667,0.269c1.579,0.816,3.187,1.585,4.719,2.479
		c0.947,0.554,1.819,1.256,2.655,1.973c0.912,0.779,1.71,1.69,2.617,2.478c1.296,1.122,2.044,2.577,2.427,4.174
		c0.405,1.688,0.469,3.428-0.152,5.118c-0.475,1.288-1.936,2.587-3.281,2.741c-1.862,0.213-3.737,0.357-5.564-0.284
		c-0.072-0.024-0.178,0.037-0.307,0.065c-0.011,0.513,0.346,0.87,0.575,1.269c1.35,2.335,2.643,4.693,3.623,7.212
		c0.495,1.271,0.768,2.567,0.733,3.941c-0.026,1.058-0.455,1.828-1.312,2.42c-0.768,0.529-1.562,0.941-2.514,0.986
		c-0.864,0.04-1.73,0.168-2.592,0.133c-3.757-0.15-6.748-1.743-8.813-4.919c-0.759-1.166-1.402-2.407-2.098-3.615
		c-0.163-0.286-0.325-0.574-0.559-0.985c-0.242,0.438-0.412,0.771-0.602,1.091c-0.589,0.989-1.126,2.017-1.792,2.951
		c-0.856,1.204-2.118,1.768-3.577,1.886c-0.566,0.046-1.138,0.052-1.773,0.079c-0.075,0.348-0.135,0.615-0.192,0.887
		c-0.281,1.315-0.588,2.627-0.844,3.947c-0.674,3.492-1.326,6.99-1.99,10.485c-0.127,0.661-0.254,1.322-0.407,1.979
		c-1.442,6.103-2.165,12.312-2.669,18.547c-0.17,2.106-0.205,4.228-0.216,6.343c-0.026,6.301-0.079,12.604,0.013,18.902
		c0.058,4.084,0.366,8.165,0.534,12.249c0.074,1.824,0.077,3.652,0.12,5.479c0.067,3.028,0.144,6.059,0.211,9.087
		c0.053,2.356,0.135,4.711,0.138,7.066c0.014,13.085,0.008,26.167,0.006,39.25c0,0.522-0.021,1.048-0.033,1.579
		c-0.961,0.367-1.879,0.176-2.773,0.207c-0.913,0.027-1.828,0.006-2.742,0.006c-0.908,0-1.818,0-2.733,0
		c-0.22-0.354-0.417-0.619-0.567-0.911c-1.194-2.312-2.135-4.735-2.99-7.185c-0.349-0.993-0.537-2.048-0.731-3.085
		c-0.458-2.459-0.911-4.919-1.296-7.389c-0.21-1.354-0.679-2.597-1.264-3.815c-0.935-1.95-1.839-3.916-2.778-5.864
		c-1.611-3.338-2.965-6.785-4.359-10.214c-0.29-0.713-0.593-1.421-0.907-2.124c-0.086-0.189-0.242-0.35-0.367-0.522
		C958.222,196.566,958.17,196.59,958.117,196.612z M968.842,96.005c1.26,0.278,2.272,0.073,3.186-0.545
		c0.594-0.401,1.174-0.841,1.696-1.33c1.02-0.955,1.921-2.021,2.659-3.213c1.011-1.634,2.039-3.257,3.017-4.91
		c0.413-0.698,0.755-1.448,1.061-2.202c0.648-1.604,1.259-3.222,1.871-4.839c0.148-0.391,0.244-0.805,0.381-1.259
		c-0.989-0.539-1.896-1.038-2.952-1.23c-0.182,0.229-0.336,0.41-0.476,0.604c-1.479,2.072-2.945,4.151-4.437,6.216
		c-0.616,0.858-1.218,1.74-1.934,2.511c-1.529,1.647-2.592,3.568-3.46,5.612C968.844,92.857,968.663,94.361,968.842,96.005z
		 M994.664,71.034c-0.342,1.305-0.132,2.167,0.885,2.921c1.771,1.312,3.372,2.838,4.917,4.421c0.601,0.612,1.281,1.154,1.971,1.672
		c1.035,0.775,2.099,1.519,3.171,2.242c0.634,0.429,1.28,0.858,1.976,1.164c0.877,0.387,1.797,0.678,2.717,0.943
		c0.591,0.172,1.217,0.198,1.908-0.041c0.207-1.289-0.104-2.378-1.021-3.28c-0.854-0.841-1.702-1.69-2.606-2.479
		c-0.61-0.531-1.279-1.016-1.982-1.416c-1.164-0.665-2.373-1.251-3.568-1.86c-0.256-0.131-0.521-0.271-0.797-0.322
		c-1.023-0.194-1.902-0.695-2.665-1.358C998.157,72.416,996.391,71.924,994.664,71.034z M988.413,78.722
		c-0.093-0.011-0.186-0.021-0.278-0.031c-0.118,0.252-0.253,0.497-0.354,0.756c-0.694,1.784-1.361,3.582-2.083,5.356
		c-0.461,1.133-0.663,2.295-0.659,3.507c0.008,2.156,0.001,4.313,0.002,6.472c0.002,0.286-0.002,0.576,0.026,0.86
		c0.051,0.478,0.242,0.715,0.709,0.761c0.617,0.061,1.243,0.045,1.864,0.078c0.639,0.03,1.079-0.226,1.409-0.785
		c0.79-1.348,1.328-2.759,1.316-4.346c-0.012-1.727-0.021-3.452,0.001-5.177c0.014-0.928-0.172-1.798-0.486-2.666
		c-0.375-1.031-0.665-2.098-0.987-3.149C988.727,79.813,988.572,79.267,988.413,78.722z M994.423,80.071
		c0.069,0.431,0.082,0.707,0.163,0.96c0.206,0.639,0.495,1.255,0.663,1.902c0.491,1.916,1.25,3.729,2.059,5.523
		c0.788,1.75,1.535,3.521,2.384,5.24c0.656,1.332,1.405,2.621,2.181,3.888c0.855,1.396,2.221,2.084,3.771,2.422
		c0.504,0.11,1.038,0.175,1.521-0.05c0.034-0.134,0.095-0.233,0.074-0.312c-0.076-0.276-0.16-0.556-0.273-0.815
		c-1.579-3.562-3.419-6.975-5.771-10.099c-0.518-0.689-1.003-1.405-1.474-2.128c-0.655-1.005-1.288-2.025-1.922-3.044
		c-0.743-1.195-1.703-2.196-2.752-3.12C994.913,80.322,994.737,80.255,994.423,80.071z M959.887,85.557
		c0.699,0.122,1.324-0.038,1.912-0.369c1.093-0.612,2.135-1.303,3.022-2.189c1.498-1.495,3.112-2.85,4.758-4.178
		c0.855-0.69,1.636-1.48,2.419-2.258c0.301-0.3,0.576-0.655,0.766-1.034c0.535-1.07,1.104-2.112,2.105-3.093
		c-0.375,0.035-0.577,0.004-0.729,0.077c-0.689,0.335-1.384,0.665-2.04,1.06c-1.276,0.766-2.541,1.551-3.784,2.366
		c-0.8,0.524-1.614,1.058-2.315,1.699c-1.203,1.1-2.345,2.271-3.478,3.445C961.595,82.043,960.398,84.125,959.887,85.557z
		 M981.951,69.903c0.286,0.634,0.55,1.143,0.748,1.674c0.146,0.394,0.382,0.663,0.766,0.795c0.358,0.122,0.726,0.249,1.099,0.302
		c0.899,0.13,1.805,0.219,2.708,0.312c0.332,0.035,0.669,0.055,1.003,0.047c0.843-0.021,1.104-0.251,1.154-1.117
		c0.043-0.764,0.016-1.53,0.013-2.297c-0.001-0.482-0.257-0.81-0.676-1.013c-1.035-0.503-2.064-1.016-3.277-0.856
		c-0.33,0.045-0.672,0.035-1.005,0.002c-0.934-0.093-1.555,0.292-1.929,1.15C982.403,69.248,982.163,69.556,981.951,69.903z"/>
	<path fill="#FFFFFF" d="M1234.719,134.024c-0.499,0.604-0.781,0.924-1.037,1.263c-1.171,1.559-2.774,2.398-4.665,2.551
		c-1.624,0.131-3.266,0.031-4.899,0.027c-0.189,0-0.382-0.046-0.571-0.077c-1.039-0.166-1.759-0.74-2.133-1.723
		c-0.291-0.768-0.508-1.546-0.496-2.385c0.031-2.31,0.039-4.616,0.054-6.925c0.002-0.277-0.021-0.557-0.036-0.915
		c-0.343-0.046-0.614-0.108-0.889-0.112c-0.962-0.015-1.926,0.023-2.886-0.019c-0.767-0.03-1.54-0.089-2.289-0.241
		c-1.581-0.318-2.883-1.768-3.166-3.335c-0.342-1.895-0.096-3.737,0.425-5.558c0.128-0.454,0.4-0.867,0.632-1.287
		c0.229-0.414,0.486-0.808,0.799-1.317c-0.419-0.094-0.733-0.231-1.04-0.22c-2.199,0.092-3.297-1.566-3.641-3.569
		c-0.469-2.748,0.408-5.224,1.822-7.538c0.312-0.512,0.772-0.856,1.32-1.077c0.578-0.231,1.162-0.45,1.843-0.713
		c-0.163-0.253-0.283-0.491-0.451-0.688c-1.174-1.378-1.76-2.963-1.7-4.773c0.034-1.007,0.059-2.019,0.142-3.021
		c0.079-0.969,0.578-1.701,1.386-2.254c1.155-0.791,2.298-1.628,3.745-1.74c0.904-0.07,1.829-0.072,2.729,0.021
		c3.988,0.425,7.675,1.728,11.042,3.922c0.509,0.331,0.983,0.758,1.713,0.922c0.048-0.284,0.12-0.502,0.114-0.719
		c-0.058-1.742,0.029-3.462,0.648-5.115c0.044-1.384,0.56-2.627,1.183-3.827c1.018-1.952,2.695-2.946,4.846-3.137
		c2.377-0.213,4.567,0.367,6.607,1.617c1.977,1.211,3.764,2.666,5.53,4.151c0.817,0.688,1.38,1.594,1.929,2.501
		c0.17,0.281,0.367,0.544,0.598,0.883c0.577-0.341,1.109-0.643,1.631-0.968c0.579-0.362,1.207-0.572,1.886-0.666
		c1.778-0.243,3.559-0.337,5.276,0.28c1.971,0.707,3.726,1.772,5.113,3.378c0.889,1.029,1.27,2.262,1.339,3.582
		c0.066,1.247,0.054,2.5,0.027,3.75c-0.043,1.898-0.815,3.536-1.895,5.055c-0.268,0.378-0.668,0.688-0.716,1.295
		c0.435,0.095,0.846,0.19,1.26,0.277c1.102,0.225,2.099,0.616,2.941,1.418c0.62,0.588,1.078,1.216,1.196,2.07
		c0.026,0.188,0.096,0.375,0.104,0.565c0.124,2.354,0.215,4.71-0.051,7.055c-0.225,1.997-1.062,3.679-2.837,4.812
		c0.573,1.826,0.47,3.651,0.391,5.471c-0.059,1.323-0.434,2.548-1.215,3.644c-0.506,0.708-1.133,1.162-2.003,1.263
		c-0.479,0.057-0.954,0.164-1.432,0.17c-2.982,0.037-5.969,0.102-8.918-0.451c-1.037-0.193-2.058-0.481-3.087-0.722
		c-0.314-0.072-0.635-0.124-1.061-0.205c-0.08,0.74-0.123,1.403-0.229,2.056c-0.396,2.45-1.689,4.247-3.966,5.285
		c-0.339,0.153-0.738,0.205-1.116,0.236c-1.665,0.139-3.256-0.124-4.747-0.92c-0.492-0.261-0.965-0.613-1.663-0.634
		c0.034,0.396,0.049,0.725,0.094,1.046c0.557,4.098,1.194,8.186,1.659,12.293c0.594,5.254,1.146,10.51,1.082,15.82
		c-0.101,8.271-0.073,16.546-0.068,24.816c0.002,3.189-0.416,6.328-0.953,9.46c-0.664,3.888-1.269,7.784-1.98,11.661
		c-0.436,2.362-1.018,4.697-1.555,7.04c-0.656,2.859-1.357,5.706-1.995,8.567c-0.355,1.597-0.581,3.219-0.492,4.867
		c0.02,0.332,0.02,0.691-0.091,0.997c-0.386,1.066-0.395,2.167-0.384,3.275c0.003,0.284-0.031,0.568-0.054,0.923
		c-0.291,0.065-0.56,0.179-0.825,0.179c-4.087,0.012-8.178-0.005-12.265,0.021c-0.677,0.004-1.089-0.241-1.365-0.827
		c-0.164-0.348-0.409-0.657-0.56-1.009c-1.354-3.186-2.776-6.352-3.662-9.709c-1.071-4.052-1.735-8.181-2.124-12.354
		c-0.021-0.239-0.019-0.482-0.056-0.72c-0.67-4.191-0.662-8.436-0.97-12.652c-0.158-2.157-0.356-4.312-0.538-6.471
		c-0.003-0.048-0.017-0.095-0.018-0.143c-0.038-3.896-0.587-7.769-0.467-11.668c0.004-0.146,0.001-0.29,0.013-0.434
		c0.097-1.184,0.745-2.057,1.775-2.392c1.061-0.344,2.248,0.021,2.976,0.934c0.18,0.224,0.321,0.479,0.466,0.729
		c1.021,1.743,2.007,3.502,2.783,5.375c0.403,0.973,0.918,1.908,1.46,2.813c2.131,3.562,3.874,7.302,5.236,11.224
		c0.395,1.133,0.814,2.262,1.298,3.362c1,2.277,1.542,4.646,1.536,7.138c0,0.24,0.001,0.48,0.021,0.722
		c0.293,3.355,0.35,6.719,0.402,10.086c0.035,2.157,0.268,4.312,0.421,6.624c0.168-0.452,0.245-0.802,0.326-1.146
		c0.788-3.371,1.523-6.756,2.37-10.111c1.014-4.02,1.645-8.105,2.344-12.181c0.546-3.175,1.05-6.355,1.546-9.541
		c0.124-0.805,0.195-1.623,0.205-2.439c0.072-6.058,0.134-12.117,0.176-18.178c0.022-3.316-0.013-6.634,0-9.953
		c0.013-3.083-0.253-6.148-0.545-9.214c-0.534-5.603-1.238-11.184-2.137-16.74c-0.191-1.183-0.259-2.389-0.386-3.583
		C1234.833,134.931,1234.797,134.658,1234.719,134.024z M1214.01,108.536c0.174,0.065,0.305,0.156,0.437,0.158
		c1.15,0.021,2.303,0.031,3.452,0.037c0.914,0.006,1.828-0.023,2.74,0.006c0.427,0.016,0.868,0.075,1.271,0.207
		c1.106,0.361,1.802,1.125,1.885,2.304c0.079,1.113-0.445,1.942-1.438,2.459c-0.597,0.311-1.207,0.597-1.805,0.902
		c-1.406,0.729-2.467,1.835-3.298,3.153c-0.271,0.431-0.402,0.97-0.518,1.477c-0.092,0.404-0.187,0.853,0.224,1.33
		c0.733,0.012,1.544,0.016,2.353,0.044c0.999,0.033,1.931-0.054,2.523-1.03c0.118-0.192,0.346-0.334,0.547-0.46
		c1.559-0.982,3.575-0.105,3.918,1.703c0.044,0.233,0.063,0.479,0.057,0.717c-0.041,1.347-0.007,2.7-0.162,4.032
		c-0.246,2.111-0.187,4.224-0.194,6.339c0,0.271,0.074,0.543,0.108,0.78c0.953,0.195,2.078,0.238,2.64,0.002
		c0.382-0.16,0.777-0.407,1.037-0.725c0.857-1.047,1.56-2.192,1.877-3.533c0.145-0.609,0.276-1.227,0.495-1.809
		c0.566-1.508,2.058-2.107,3.527-1.438c0.927,0.424,1.779,0.959,2.375,1.819c0.383,0.553,0.783,1.094,1.146,1.659
		c1.262,1.979,3.033,3.321,5.177,4.206c0.306,0.128,0.641,0.207,0.969,0.258c0.483,0.073,0.88-0.136,1.048-0.581
		c0.15-0.394,0.244-0.831,0.258-1.252c0.036-1.104-0.018-2.213,0.024-3.315c0.088-2.347,2.018-3.752,4.258-3.13
		c0.463,0.13,0.919,0.28,1.375,0.433c0.364,0.122,0.723,0.267,1.085,0.394c3.464,1.22,7.048,1.41,10.673,1.24
		c0.125-0.006,0.244-0.126,0.462-0.244c0.012-0.729,0.028-1.489,0.03-2.25c0.001-0.646-0.29-1.079-0.92-1.311
		c-0.585-0.214-1.174-0.446-1.713-0.753c-1.257-0.714-1.675-2.218-1.016-3.501c0.347-0.675,0.89-1.15,1.605-1.363
		c0.918-0.273,1.856-0.478,2.789-0.703c0.504-0.119,1.062-0.039,1.608-0.454c0.066-0.393,0.219-0.857,0.213-1.323
		c-0.019-1.428,0.141-2.865-0.114-4.374c-1.013-0.246-2.003-0.379-3.009-0.396c-1.152-0.016-2.308,0.002-3.461-0.016
		c-0.479-0.008-0.971-0.012-1.432-0.12c-0.964-0.229-1.606-0.851-1.863-1.814c-0.258-0.975,0.034-1.806,0.744-2.493
		c0.172-0.166,0.389-0.284,0.569-0.438c1.206-1.028,2.441-2.023,3.592-3.11c0.55-0.518,0.955-1.199,1.391-1.832
		c0.358-0.523,0.541-1.127,0.548-1.768c0.012-0.96,0.006-1.923,0.002-2.884c-0.002-0.568-0.242-1.02-0.688-1.364
		c-1.242-0.971-2.562-1.664-4.229-1.514c-0.753,0.066-1.417,0.241-1.978,0.742c-0.607,0.543-1.228,1.077-1.79,1.668
		c-0.574,0.602-1.199,1.112-1.969,1.425c-1.458,0.59-2.998-0.168-3.421-1.681c-0.09-0.32-0.105-0.662-0.145-0.996
		c-0.198-1.809-1.031-3.29-2.382-4.473c-0.83-0.727-1.705-1.411-2.609-2.043c-0.825-0.576-1.706-1.074-2.581-1.573
		c-0.688-0.391-1.452-0.466-2.233-0.458c-0.648,0.011-1.119,0.26-1.343,0.882c-0.145,0.403-0.27,0.819-0.368,1.236
		c-0.076,0.325-0.033,0.692-0.159,0.99c-0.544,1.283-0.512,2.625-0.511,3.974c0,2.496-0.021,4.991-0.044,7.488
		c-0.011,1.067-0.654,1.981-1.615,2.347c-1.024,0.394-2.155,0.102-2.868-0.762c-0.211-0.257-0.365-0.563-0.55-0.845
		c-0.717-1.092-1.547-2.095-2.599-2.872c-1.433-1.06-2.945-1.997-4.56-2.757c-2.021-0.95-4.146-1.534-6.369-1.725
		c-0.521-0.043-1.06-0.026-1.573,0.063c-0.24,0.043-0.532,0.278-0.645,0.505c-0.389,0.78-0.067,2.302,0.607,2.938
		c1.918,1.812,4.061,3.229,6.716,3.714c0.281,0.052,0.566,0.115,0.836,0.213c1.134,0.409,1.802,1.402,1.731,2.547
		c-0.071,1.184-0.941,2.146-2.175,2.345c-0.471,0.076-0.959,0.064-1.438,0.066c-2.212,0.004-4.423-0.006-6.636,0
		c-0.432,0-0.869,0.008-1.293,0.073c-0.218,0.033-0.508,0.155-0.604,0.327C1214.227,106.957,1213.82,107.67,1214.01,108.536z
		 M1218.2,192.864c0,0.671-0.021,1.028,0.003,1.385c0.261,3.784,0.583,7.565,0.779,11.354c0.204,3.938,0.718,7.837,1.198,11.745
		c0.661,5.39,2.225,10.51,4.443,15.445c0.156,0.352,0.307,0.706,0.489,1.042c0.082,0.151,0.179,0.357,0.528,0.248
		c0.03-0.275,0.093-0.59,0.094-0.902c0.01-2.4,0.018-4.803,0.001-7.204c-0.005-0.769-0.089-1.534-0.129-2.3
		c-0.08-1.535-0.169-3.068-0.229-4.602c-0.054-1.439-0.058-2.881-0.114-4.32c-0.046-1.149-0.19-2.299-0.197-3.447
		c-0.011-1.955-0.403-3.806-1.18-5.598c-0.533-1.23-1.01-2.492-1.441-3.764c-0.947-2.781-2.152-5.446-3.538-8.033
		C1218.76,193.636,1218.557,193.389,1218.2,192.864z"/>
	<path fill="#FFFFFF" d="M1261.198,228.536c1.625-0.122,3.158-0.312,4.633-0.716c4.412-1.202,8.924-1.964,13.362-3.036
		c11.604-2.805,23.063-6.064,34.147-10.553c0.355-0.144,0.728-0.261,1.062-0.442c3.549-1.929,7.146-3.776,10.431-6.151
		c0.352-0.255,0.717-0.493,1.034-0.785c3.129-2.848,6.369-5.58,9.045-8.891c1.155-1.431,2.545-2.623,4.014-3.717
		c0.964-0.716,1.979-1.36,2.962-2.055c1.596-1.127,3.579-0.298,4.127,1.54c0.334,1.123,0.058,2.206-0.276,3.255
		c-0.244,0.775-0.623,1.512-0.987,2.241c-0.775,1.546-1.602,3.068-2.37,4.619c-1.181,2.376-2.551,4.634-4.089,6.789
		c-0.983,1.376-2.106,2.629-3.423,3.694c-3.211,2.608-6.397,5.244-9.654,7.794c-3.371,2.642-6.824,5.171-10.463,7.438
		c-1.226,0.762-2.473,1.487-3.729,2.196c-1.642,0.926-3.389,1.58-5.204,2.095c-1.987,0.562-3.941,1.251-5.922,1.842
		c-1.843,0.554-3.697,1.058-5.551,1.572c-1.265,0.348-2.562,0.391-3.863,0.391c-14.479-0.004-28.957-0.004-43.437-0.004
		c-1.396,0-2.789,0.006-4.185-0.006c-0.272,0-0.545-0.062-1.028-0.124c0.534-0.424,0.935-0.671,1.248-1.003
		c0.326-0.348,0.543-0.793,0.855-1.152c0.538-0.618,1.133-1.177,1.879-1.554c0.258-0.128,0.491-0.307,0.749-0.433
		c3.552-1.738,6.366-4.448,9.284-7.021c1.087-0.959,1.966-2.104,2.842-3.255c1.137-1.492,2.282-2.979,3.51-4.395
		c2.743-3.165,5.32-6.46,7.846-9.797c0.55-0.727,1.055-1.496,1.508-2.288c3.733-6.505,7.454-13.021,11.167-19.541
		c0.542-0.953,1.033-1.938,1.251-2.979c-0.275-0.325-0.49-0.158-0.698-0.069c-1.076,0.466-2.194,0.659-3.368,0.659
		c-1.878,0-3.742-0.018-5.585-0.501c-0.781-0.205-1.616-0.221-2.432-0.3c-1.604-0.156-2.937-0.835-4.011-2.039
		c-0.469-0.524-0.731-1.111-0.768-1.817c-0.129-2.621,0.054-5.182,1.153-7.625c0.691-1.537,1.3-3.105,2.325-4.468
		c0.104-0.139,0.148-0.324,0.248-0.545c-0.727-0.278-1.385-0.549-2.057-0.785c-1.006-0.354-1.671-1.111-2.285-1.919
		c-0.328-0.43-0.448-0.951-0.448-1.494c0-0.816-0.035-1.638,0.011-2.453c0.056-0.967,0.301-1.897,0.77-2.757
		c0.813-1.484,1.8-2.843,2.98-4.057c1.025-1.053,2.285-1.564,3.744-1.587c0.865-0.017,1.73,0.004,2.598-0.013
		c0.272-0.006,0.544-0.077,0.88-0.128c-0.047-0.346-0.047-0.636-0.129-0.897c-0.501-1.604-0.392-3.228-0.234-4.861
		c0.149-1.563,1.055-2.646,2.214-3.568c1.011-0.807,2.197-1.198,3.477-1.24c1.346-0.047,2.693-0.047,4.038-0.004
		c1.8,0.058,3.191,0.924,4.317,2.29c0.453,0.548,0.794,1.206,1.415,1.569c0.526-0.093,0.739-0.507,0.98-0.847
		c0.797-1.127,1.886-1.922,3.013-2.658c0.896-0.588,1.91-0.876,2.994-0.924c1.745-0.079,3.453,0.099,5.121,0.64
		c1.729,0.562,2.902,1.643,3.305,3.464c0.358,1.631,0.162,3.254-0.069,4.873c-0.087,0.615-0.281,1.219-0.176,1.91
		c0.284,0.057,0.558,0.148,0.831,0.156c0.769,0.021,1.539,0.012,2.309,0.01c1.749-0.004,3.445,0.333,5.104,0.854
		c0.873,0.273,1.699,0.693,2.352,1.361c0.935,0.957,1.562,2.053,1.507,3.465c-0.051,1.344-0.022,2.69-0.042,4.037
		c-0.012,0.848-0.283,1.592-0.837,2.252c-0.338,0.402-0.626,0.852-0.907,1.299c-0.927,1.461-2.154,2.567-3.742,3.275
		c-0.426,0.189-0.831,0.425-1.328,0.685c0.313,0.416,0.604,0.729,0.813,1.091c0.688,1.177,1.111,2.448,1.188,3.816
		c0.123,2.224-0.212,4.413-0.515,6.604c-0.097,0.704-0.46,1.243-0.992,1.703c-1.906,1.652-4.063,2.069-6.46,1.338
		c-0.5-0.152-0.987-0.344-1.542-0.539c-0.393,0.411-0.318,0.989-0.514,1.457c-0.181,0.438-0.265,0.92-0.354,1.392
		c-0.09,0.473-0.09,0.963-0.202,1.428c-0.581,2.39-2.03,3.989-4.401,4.696c-0.855,0.258-1.733,0.094-2.57-0.105
		c-1.126-0.271-2.258-0.438-3.41-0.558c-1.061-0.105-2.061-0.466-2.896-1.181c-0.766-0.655-1.533-1.312-2.306-1.96
		c-0.104-0.087-0.239-0.132-0.436-0.236c-0.188,0.286-0.38,0.55-0.537,0.827c-2.936,5.194-5.904,10.365-8.786,15.586
		c-2.613,4.737-5.724,9.12-9.179,13.269c-1.385,1.663-2.812,3.29-4.171,4.974c-1.359,1.685-2.655,3.418-3.972,5.133
		C1261.253,228.147,1261.26,228.258,1261.198,228.536z M1272.329,178.758c1.25,0.187,2.404,0.282,3.521,0.539
		c1.331,0.307,2.667,0.351,4.013,0.325c0.38-0.008,0.808-0.018,1.127-0.188c1.221-0.655,2.549-1.092,3.681-1.943
		c1.101-0.825,2.43-1.159,3.791-1.21c1.24-0.046,2.22,0.793,2.459,2.007c0.073,0.375,0.077,0.767,0.084,1.148
		c0.016,0.816,0.014,1.633,0.011,2.453c-0.004,0.887,0.188,1.742,0.67,2.474c0.838,1.271,1.841,2.325,3.55,2.351
		c0.664,0.011,1.327,0.203,1.989,0.323c0.188,0.034,0.368,0.115,0.556,0.152c0.738,0.147,1.053-0.061,1.217-0.829
		c0.069-0.329,0.09-0.669,0.15-1c0.104-0.564,0.154-1.153,0.354-1.685c0.294-0.771,0.245-1.507-0.023-2.252
		c-0.325-0.899-0.571-1.821-1.018-2.689c-0.534-1.036-0.272-2.171,0.501-2.917c0.812-0.78,2.012-0.937,3.072-0.354
		c0.375,0.205,0.723,0.477,1.043,0.763c1.429,1.27,3.162,1.99,4.87,2.762c0.13,0.061,0.273,0.095,0.413,0.126
		c0.391,0.087,0.712-0.071,0.778-0.438c0.267-1.47,0.449-2.945,0.267-4.443c-0.074-0.614-0.379-1.076-0.924-1.378
		c-0.211-0.118-0.42-0.236-0.629-0.355c-0.925-0.525-1.927-0.837-2.944-1.145c-1.938-0.588-2.461-2.799-1.062-4.271
		c0.476-0.498,1.05-0.843,1.708-1.033c0.554-0.16,1.113-0.3,1.676-0.428c1.557-0.348,3.03-0.93,4.482-1.569
		c1.343-0.59,2.033-1.796,2.493-3.038c0.338-0.912,0.206-1.981-0.029-3.007c-0.235-0.109-0.44-0.232-0.663-0.307
		c-1.564-0.511-6.097-0.653-7.717-0.252c-0.188,0.047-0.373,0.097-0.562,0.144c-0.793,0.197-1.578,0.434-2.38,0.582
		c-1.087,0.2-2.002-0.136-2.635-1.074c-0.606-0.902-0.554-1.997,0.142-2.964c0.281-0.389,0.595-0.758,0.919-1.111
		c0.475-0.515,0.739-1.105,0.836-1.797c0.131-0.951,0.322-1.896,0.454-2.849c0.078-0.563,0.215-1.139-0.032-1.715
		c-0.633-0.403-1.354-0.438-2.069-0.529c-0.979-0.124-1.816,0.156-2.509,0.827c-0.48,0.469-0.932,0.974-1.345,1.5
		c-0.452,0.574-0.94,1.099-1.596,1.436c-0.678,0.348-1.086,0.833-1.284,1.611c-0.259,1.02-1.042,1.598-2.084,1.745
		c-1.152,0.166-2.211-0.035-2.996-0.997c-0.379-0.466-0.535-1.019-0.521-1.615c0.008-0.286,0.067-0.57,0.085-0.858
		c0.054-0.9-1.281-2.775-2.139-3.014c-0.094-0.025-0.189-0.049-0.284-0.049c-1.01,0.003-2.021-0.034-3.026,0.028
		c-0.804,0.051-1.068,0.392-1.11,1.22c-0.089,1.742,0.317,3.373,1.418,4.724c1.488,1.827,0.124,4.55-2.13,4.729
		c-0.382,0.03-0.769,0.03-1.151,0.032c-1.443,0.002-2.887-0.016-4.328,0.004c-2.155,0.025-1.89-0.332-3.405,1.768
		c-0.252,0.351-0.488,0.72-0.665,1.108c-0.259,0.58-0.394,1.188,0.013,1.85c0.438,0.093,0.904,0.194,1.373,0.29
		c1.376,0.275,2.771,0.294,4.165,0.285c1.841-0.01,3.257,1.975,2.151,3.962c-0.312,0.562-0.79,0.949-1.313,1.31
		c-1.358,0.938-2.526,2.096-3.422,3.468c-1.002,1.541-1.632,3.27-2.067,5.051C1272.126,177.238,1272.053,177.957,1272.329,178.758z
		 M1268.88,232.646c1.816,0.116,3.637,0.316,5.455,0.334c4.614,0.043,9.23,0.026,13.846-0.016c1.1-0.01,2.203-0.169,3.292-0.337
		c2.189-0.34,4.313-0.953,6.422-1.629c2.104-0.677,4.202-1.381,6.329-1.978c1.634-0.456,3.181-1.071,4.662-1.894
		c4.556-2.525,8.754-5.581,12.86-8.757c3.118-2.41,6.116-4.976,9.215-7.413c1.966-1.546,3.435-3.48,4.731-5.574
		c0.115-0.188,0.177-0.405,0.264-0.61c-0.354,0.07-0.565,0.24-0.765,0.424c-1.587,1.471-3.162,2.953-4.761,4.411
		c-0.709,0.646-1.422,1.307-2.208,1.85c-5.073,3.512-10.361,6.607-16.178,8.771c-6.042,2.248-12.157,4.259-18.346,6.045
		c-4.062,1.173-8.171,2.188-12.281,3.184c-3.361,0.815-6.756,1.494-10.134,2.242C1270.451,231.884,1269.602,232.027,1268.88,232.646
		z"/>
	<path fill="#FFFFFF" d="M897.91,237.445c-1.122,0.263-3.429,0.284-4.871,0.04c-0.036-0.332-0.108-0.695-0.113-1.062
		c-0.034-2.402-0.086-4.808-0.071-7.212c0.026-4.431-0.373-8.838-0.727-13.245c-0.359-4.504-0.795-9.004-1.281-13.495
		c-0.308-2.818-0.781-5.617-1.16-8.429c-0.475-3.525-0.896-7.06-1.405-10.581c-0.269-1.853-0.667-3.687-1.021-5.527
		c-0.071-0.369-0.212-0.727-0.309-1.04c-0.363-0.159-0.502,0.075-0.664,0.232c-1.104,1.104-2.416,1.612-3.992,1.724
		c-1.869,0.13-3.499-0.489-5.114-1.241c-0.371-0.172-0.716-0.508-0.946-0.854c-0.562-0.841-1.057-1.722-1.051-2.791
		c0.002-0.277-0.093-0.557-0.158-0.907c-0.295-0.052-0.563-0.13-0.836-0.135c-0.961-0.016-1.927-0.062-2.884,0.013
		c-1.991,0.149-3.661-0.626-5.236-1.703c-2.08-1.421-2.855-3.409-2.513-5.87c0.046-0.335,0.13-0.661,0.186-0.994
		c0.122-0.746,0.486-1.345,1.077-1.813c1.164-0.925,2.208-2.003,3.531-2.723c0.113-0.062,0.179-0.209,0.312-0.373
		c-0.271-0.281-0.517-0.563-0.792-0.813c-0.721-0.649-1.097-1.433-1.061-2.42c0.034-0.96-0.011-1.926,0.036-2.885
		c0.104-2.105,0.93-3.897,2.453-5.365c1.554-1.496,3.392-1.936,5.451-1.421c0.733,0.183,1.432,0.515,2.162,0.784
		c0.372-0.387,0.269-0.897,0.312-1.359c0.062-0.635,0.214-1.216,0.56-1.765c0.2-0.315,0.312-0.69,0.439-1.049
		c0.13-0.361,0.217-0.738,0.346-1.101c0.564-1.587,1.899-2.558,3.574-2.659c1.188-0.075,2.275,0.115,3.292,0.794
		c0.866,0.578,1.384,1.303,1.436,2.354c0.034,0.768,0.086,1.534,0.156,2.303c0.03,0.315,0.131,0.628,0.227,1.055
		c0.302-0.139,0.521-0.21,0.709-0.332c0.851-0.539,1.688-1.102,2.54-1.644c1.062-0.676,2.257-0.807,3.467-0.687
		c2.286,0.229,3.036,1.066,3.032,3.351c-0.002,1.676-0.062,3.35-0.101,5.113c0.218,0.039,0.488,0.126,0.759,0.131
		c1.059,0.018,2.116,0.043,3.174,0.002c1.181-0.049,2.147,0.449,3.062,1.096c0.621,0.438,1.008,1.071,1.022,1.827
		c0.028,1.392-0.013,2.783-0.051,4.175c-0.008,0.282-0.077,0.588-0.208,0.833c-0.987,1.86-1.729,3.884-3.474,5.242
		c-0.107,0.084-0.171,0.223-0.246,0.322c0.592,2.296,0.443,4.602,0.299,6.898c-0.062,0.977-0.577,1.825-1.18,2.587
		c-0.404,0.512-0.996,0.734-1.623,0.864c-1.737,0.361-3.438,0.28-5.104-0.375c-0.437-0.173-0.841-0.481-1.445-0.383
		c0,0.172-0.034,0.356,0.005,0.522c0.979,4.073,1.583,8.21,2.11,12.361c0.46,3.625,1.015,7.235,1.477,10.861
		c0.402,3.146,0.807,6.296,1.082,9.453c0.472,5.413,0.936,10.829,1.226,16.251c0.218,4.079,0.157,8.172,0.212,12.26
		C898.005,236.919,897.939,237.195,897.91,237.445z M871.928,167.85c0.38,0,0.717-0.015,1.051,0.002
		c0.498,0.024,0.812-0.212,1.014-0.646c0.081-0.174,0.229-0.332,0.258-0.512c0.156-0.951,0.528-1.829,0.873-2.718
		c0.188-0.487,0.326-1,0.424-1.515c0.037-0.205-0.039-0.49-0.173-0.65c-0.183-0.22-0.426-0.066-0.633,0.07
		c-0.761,0.499-1.517,1.001-2.29,1.48c-0.691,0.428-1.438,0.775-2.1,1.247c-0.578,0.413-1.088,0.93-1.592,1.438
		c-0.226,0.228-0.178,0.544,0.044,0.779c0.16,0.174,0.355,0.319,0.551,0.454C870.145,167.84,871.049,167.902,871.928,167.85z
		 M884.018,167.834c-1.21-0.162-2.296-0.309-3.386-0.443c-0.081-0.011-0.173,0.064-0.259,0.103
		c-0.025,0.041-0.073,0.081-0.074,0.122c-0.025,1.771-0.055,3.541-0.059,5.312c0,0.163,0.125,0.37,0.256,0.484
		c0.557,0.483,1.836,0.477,2.252-0.066c0.584-0.761,1.145-1.58,1.312-2.532C884.228,169.878,884.206,168.911,884.018,167.834z
		 M892.019,160.725c1.484,0,2.765,0.002,4.044,0c0.572-0.002,1.146-0.011,1.719-0.011c0.362-0.002,0.664-0.139,0.84-0.453
		c0.396-0.709,0.8-1.415,1.13-2.151c0.124-0.276,0.05-0.636,0.063-0.943c-1.143-0.253-3.464-0.271-4.837-0.038
		c-0.137,0.297-0.342,0.622-0.446,0.979c-0.335,1.133-0.98,1.95-2.146,2.299C892.307,160.427,892.251,160.516,892.019,160.725z
		 M880.176,162.055c2.22,0.515,4.346,0.903,6.55,0.312c0.312-1.009,0.288-1.849-0.573-2.511c-0.227-0.175-0.396-0.426-0.634-0.584
		c-0.229-0.151-0.507-0.307-0.771-0.319c-0.717-0.034-1.437-0.01-2.152,0.019c-0.4,0.016-0.76,0.182-0.98,0.522
		c-0.416,0.646-0.806,1.305-1.194,1.964C880.326,161.614,880.279,161.794,880.176,162.055z M890.306,166.3
		c1.03,1.78,2.075,3,3.168,3.511c0.836,0.389,1.638,0.967,2.718,0.841c0.031-0.425,0.076-0.798,0.08-1.171
		c0.02-1.809-0.012-1.854-1.788-2.36c-1.237-0.352-2.49-0.661-3.546-1.585C890.695,165.828,890.493,166.073,890.306,166.3z
		 M877.089,155.017c-0.438-0.661-0.797-1.221-1.179-1.764c-0.161-0.229-0.34-0.47-0.562-0.63c-0.462-0.337-0.954-0.635-1.447-0.926
		c-0.553-0.325-1.014-0.242-1.365,0.286c-0.604,0.912-0.821,1.901-0.54,2.959C873.054,155.263,875.528,155.303,877.089,155.017z
		 M889.479,155.836c0.826-2.057,1.577-3.92,2.32-5.785c0.086-0.219,0.153-0.457-0.189-0.696c-1.055,0.557-2.144,1.183-2.925,2.144
		c-0.66,0.811-1.015,1.818-0.981,2.909C888.292,154.88,888.842,155.322,889.479,155.836z"/>
	<path fill="#FFFFFF" d="M1067.878,168.899c0.017,0.634,0.229,1.064,0.375,1.502c0.28,0.835,0.363,1.693,0.33,2.562
		c-0.059,1.559-1.148,2.568-2.72,2.558c-0.949-0.007-1.794-0.293-2.507-0.939c-0.527-0.475-1.062-0.94-1.672-1.479
		c-0.211,0.312-0.395,0.525-0.512,0.77c-0.672,1.386-1.351,2.768-1.983,4.168c-2.917,6.452-5.297,13.104-7.396,19.861
		c-0.897,2.894-1.927,5.75-2.407,8.754c-0.434,2.708-0.85,5.418-1.263,8.127c-0.168,1.094-0.334,2.188-0.459,3.286
		c-0.131,1.146-0.269,2.296-0.303,3.448c-0.127,4.183-0.216,8.364-0.312,12.549c-0.025,1.102-0.03,2.203-0.044,3.344
		c-0.817,0.432-1.646,0.203-2.435,0.236c-0.808,0.031-1.618-0.015-2.501-0.025c-0.052-0.412-0.133-0.729-0.127-1.046
		c0.059-2.789,0.131-5.578,0.199-8.368c0.048-1.873,0.13-3.748,0.139-5.623c0.013-2.314,0.216-4.608,0.573-6.895
		c0.44-2.804,0.828-5.613,1.271-8.416c0.449-2.854,1.099-5.658,2.005-8.409c1.593-4.84,3.074-9.719,4.907-14.479
		c1.815-4.717,3.817-9.348,6.116-13.85c0.24-0.468,0.469-0.941,0.723-1.452c-0.151-0.209-0.269-0.415-0.427-0.584
		c-1.187-1.268-1.27-1.293-2.853-0.646c-0.396,0.163-0.762,0.397-1.143,0.602c-0.807,0.427-1.606,0.862-2.417,1.281
		c-0.834,0.434-1.731,0.503-2.659,0.511c-1.212,0.008-2.118-0.53-2.891-1.388c-0.397-0.443-0.643-0.967-0.676-1.562
		c-0.054-0.963-0.044-1.919,0.345-2.838c0.485-1.148,0.885-2.343,1.84-3.293c-0.232-0.284-0.418-0.562-0.65-0.785
		c-1.319-1.265-1.947-2.848-2.095-4.626c-0.126-1.538-0.102-3.081,0.368-4.574c0.455-1.455,1.49-2.394,2.932-2.694
		c1.084-0.229,2.23-0.033,3.186,0.614c0.872,0.59,1.677,1.286,2.508,1.936c0.293,0.229,0.579,0.462,0.944,0.754
		c0.17-0.28,0.296-0.472,0.405-0.671c0.281-0.503,0.536-1.021,0.836-1.516c0.906-1.486,2.276-2.309,3.951-2.646
		c1.104-0.22,2.128,0.236,2.693,1.241c0.326,0.582,0.537,1.229,0.8,1.848c0.09,0.211,0.177,0.422,0.303,0.723
		c0.435-0.284,0.81-0.485,1.131-0.752c0.647-0.538,1.408-0.83,2.194-1.057c1.625-0.466,2.873,0.179,3.413,1.768
		c0.17,0.497,0.312,1.019,0.364,1.539c0.049,0.466-0.045,0.943-0.083,1.515c0.296,0.051,0.562,0.12,0.832,0.14
		c1.812,0.14,3.171,2.354,2.275,4.121c-0.104,0.203-0.187,0.417-0.31,0.699c0.599,0.254,1.121,0.47,1.641,0.698
		c2.318,1.023,2.729,2.424,1.343,4.55c-0.021,0.035-0.019,0.09-0.044,0.217c0.079,0.102,0.17,0.274,0.311,0.387
		c0.979,0.787,1.248,1.921,1.451,3.059c0.151,0.857-0.166,1.62-0.825,2.2c-0.866,0.764-1.849,1.175-3.043,1.007
		c-1.589-0.225-3.067-0.786-4.535-1.397C1068.865,169.28,1068.433,169.118,1067.878,168.899z M1052.903,158.697
		c-0.777-1.68-1.495-2.562-2.998-3.787c-0.12-0.097-0.31-0.11-0.52-0.182c-0.129,0.742,0.023,1.33,0.422,1.831
		C1050.557,157.501,1051.526,158.137,1052.903,158.697z M1059.322,158.295c-0.203,0.153-0.263,0.172-0.272,0.209
		c-0.396,1.247-1.094,2.211-2.415,2.597c-0.043,0.012-0.102,0.053-0.108,0.087c-0.029,0.128-0.068,0.264-0.049,0.389
		c0.009,0.06,0.154,0.153,0.219,0.14c0.502-0.109,0.999-0.241,1.529-0.372c0.218-1.021,0.831-1.728,1.53-2.312
		c-0.078-0.176-0.107-0.267-0.156-0.344C1059.522,158.563,1059.434,158.45,1059.322,158.295z M1067.812,162.957l0.109-0.054
		l-0.116-0.046L1067.812,162.957z"/>
	<path fill="#FFFFFF" d="M1030.789,237.461c-1.044,0.245-3.359,0.27-4.757,0.044c-0.322-0.592-0.249-1.278-0.308-1.933
		c-0.232-2.587-0.419-5.177-0.646-7.765c-0.27-3.066-0.669-6.112-1.452-9.104c-0.911-3.489-1.703-7.01-2.621-10.494
		c-0.761-2.883-1.653-5.724-2.729-8.512c-1.814-4.712-3.572-9.444-5.367-14.162c-0.163-0.434-0.216-0.947-0.666-1.213
		c-0.496,0.472-0.958,0.959-1.469,1.389c-1.62,1.366-3.479,1.549-5.422,0.925c-1.003-0.323-1.512-1.146-1.62-2.192
		c-0.048-0.468-0.081-0.939-0.128-1.502c-0.406,0.035-0.727,0.045-1.039,0.089c-0.907,0.13-1.808,0.256-2.722,0.037
		c-1.754-0.418-2.403-1.166-2.557-2.973c-0.012-0.143-0.057-0.278-0.087-0.425c-0.128-0.081-0.238-0.174-0.366-0.229
		c-1.583-0.69-2.258-2.026-2.48-3.621c-0.099-0.703-0.048-1.439,0.033-2.149c0.07-0.609,0.011-1.108-0.405-1.601
		c-1.489-1.761-1.827-3.866-1.746-6.087c0.048-1.374,0.811-2.343,1.83-3.124c0.321-0.245,0.79-0.32,1.204-0.417
		c0.322-0.073,0.664-0.056,0.961-0.077c0.354-0.352,0.249-0.754,0.245-1.127c-0.02-1.297-0.06-2.597-0.08-3.894
		c-0.006-0.336-0.003-0.677,0.046-1.01c0.267-1.786,2.12-2.747,3.703-1.864c0.574,0.318,1.089,0.793,1.543,1.276
		c1.022,1.096,1.819,2.358,2.535,3.671c0.179,0.327,0.39,0.637,0.606,0.99c0.426-0.184,0.455-0.538,0.563-0.828
		c0.534-1.407,1.248-2.71,2.255-3.831c0.351-0.39,0.766-0.723,1.154-1.078c1.153-1.054,2.525-1.056,3.938-0.793
		c0.531,0.1,1.015,0.354,1.342,0.793c0.667,0.894,1.235,1.834,1.221,3.013c-0.026,1.923-0.048,3.847-0.064,5.77
		c-0.004,0.422-0.135,0.858,0.115,1.285c0.146,0,0.305,0.045,0.426-0.005c1.408-0.588,2.65-0.039,3.845,0.603
		c0.887,0.477,1.724,1.03,2.651,1.444c1.49,0.665,1.964,2.178,1.157,3.616c-0.336,0.6-0.561,1.214-0.728,1.867
		c-0.071,0.277-0.159,0.555-0.265,0.822c-0.384,0.986-1.114,1.59-2.158,1.667c-0.954,0.071-1.921,0.034-2.878-0.018
		c-1.2-0.066-2.396-0.203-3.594-0.296c-0.177-0.017-0.355,0.042-0.656,0.085c0.144,0.338,0.223,0.604,0.359,0.835
		c2.14,3.611,3.875,7.403,5.314,11.347c1.683,4.604,3.477,9.172,5.138,13.784c1.257,3.485,2.194,7.071,3.09,10.662
		c0.685,2.753,1.319,5.517,1.964,8.279c0.635,2.724,0.905,5.503,1.164,8.278s0.457,5.558,0.674,8.34
		C1030.896,236.523,1031.02,237.004,1030.789,237.461z M1010.174,162.364c-0.87,1.52-1.203,3.141-1.073,4.173
		c0.762-0.605,0.788-0.632,0.883-1.187c0.041-0.236,0.049-0.477,0.062-0.715C1010.091,163.878,1010.133,163.122,1010.174,162.364z
		 M998.908,169.365c-0.516-1.104-0.516-1.104-1.248-1.271C997.728,168.766,998.131,169.073,998.908,169.365z M1009.133,170.019
		c-0.382,1.013-0.378,1.013,0,1.483C1009.133,171.037,1009.133,170.529,1009.133,170.019z M1001.79,172.69
		c-0.066,0.046-0.166,0.081-0.191,0.145c-0.022,0.057,0.037,0.146,0.061,0.224c0.088-0.062,0.176-0.122,0.264-0.183
		C1001.878,172.813,1001.833,172.752,1001.79,172.69z"/>
	<path fill="#FFFFFF" d="M1091.438,198.084c0.332,0.396,0.593,0.671,0.816,0.975c0.693,0.948,0.734,2.044,0.128,2.964
		c-0.62,0.938-1.778,1.353-2.92,1.025c-0.658-0.188-1.212-0.561-1.723-1.017c-0.422-0.375-0.815-0.791-1.464-1.121
		c-0.03,0.492-0.038,0.854-0.079,1.21c-0.164,1.401-1.307,2.462-2.711,2.528c-0.934,0.044-1.683-0.311-2.262-1.042
		c-0.351-0.442-0.634-0.947-1.081-1.351c-0.552,0.327-0.756,0.829-1.013,1.27c-2.097,3.583-3.778,7.349-4.929,11.343
		c-1.175,4.086-1.86,8.242-1.859,12.506c0.001,2.882-0.037,5.768-0.062,8.65c-0.005,0.472-0.035,0.942-0.052,1.38
		c-1.13,0.321-3.724,0.337-4.978,0.037c-0.024-0.353-0.08-0.728-0.076-1.101c0.049-3.894,0.022-7.787,0.182-11.678
		c0.163-3.951,0.945-7.815,2.084-11.604c1.318-4.396,3.15-8.567,5.538-12.485c0.7-1.145,1.493-2.232,2.228-3.324
		c-0.091-0.337-0.331-0.389-0.57-0.339c-0.469,0.099-0.929,0.242-1.393,0.357c-0.697,0.175-1.392,0.396-2.103,0.488
		c-1.104,0.146-1.996-0.279-2.528-1.274c-0.527-0.988-0.416-1.964,0.284-2.83c0.71-0.88,1.562-1.562,2.738-1.721
		c0.523-0.069,1.044-0.166,1.562-0.276c0.436-0.091,0.794-0.299,0.971-0.782c-0.443-0.567-1.089-0.807-1.654-1.147
		c-0.328-0.197-0.695-0.337-1.01-0.558c-0.883-0.614-1.273-1.648-1.034-2.651c0.239-1.018,1.032-1.745,2.104-1.911
		c0.331-0.051,0.669-0.049,1.081-0.076c0.057-0.263,0.15-0.529,0.162-0.798c0.021-0.574-0.031-1.154,0.006-1.729
		c0.031-0.476,0.078-0.968,0.241-1.406c0.369-0.991,1.135-1.547,2.187-1.613c0.992-0.066,1.772,0.373,2.302,1.212
		c0.198,0.32,0.329,0.684,0.489,1.023c0.419,0.038,0.439-0.32,0.59-0.521c0.23-0.307,0.4-0.661,0.647-0.951
		c0.688-0.808,1.577-1.084,2.597-0.825c0.971,0.248,1.583,0.908,1.803,1.871c0.115,0.511,0.112,1.048,0.135,1.575
		c0.025,0.621,0.021,1.241,0.03,1.953c0.361-0.035,0.635-0.031,0.894-0.089c1.83-0.41,3.491,1.285,3.006,3.123
		c-0.06,0.227-0.123,0.452-0.182,0.669c0.132,0.146,0.207,0.279,0.32,0.35c1.107,0.667,1.589,1.641,1.426,2.915
		c-0.072,0.566,0.103,0.99,0.477,1.434c0.396,0.468,0.712,1.033,0.933,1.604c0.579,1.512,0.031,2.768-1.431,3.442
		C1092.068,197.863,1091.84,197.933,1091.438,198.084z"/>
	<path fill="#FFFFFF" d="M1419.845,86.011c-0.793,1.597-1.569,3.034-2.229,4.524c-0.65,1.469-1.757,2.388-3.225,2.872
		c-0.563,0.188-0.91,0.483-1.138,0.992c-0.077,0.176-0.178,0.34-0.264,0.512c-0.927,1.854-2.411,2.96-4.454,3.271
		c-0.85,0.125-1.719,0.22-2.573,0.189c-1.3-0.044-2.253-1.037-2.35-2.296c-0.103-1.342,0.736-2.438,2.084-2.679
		c0.519-0.093,1.051-0.11,1.576-0.163c0.625-0.062,1.075-0.375,1.345-0.945c0.145-0.303,0.327-0.595,0.431-0.912
		c0.422-1.309,1.373-2.12,2.619-2.469c1.055-0.293,1.609-0.916,1.963-1.873c0.164-0.446,0.471-0.841,0.658-1.279
		c0.224-0.524,0.394-1.075,0.571-1.619c0.06-0.183,0.056-0.384,0.108-0.564c0.597-2.083,1.58-2.791,3.484-2.74
		c1.104,0.028,2.209-0.012,3.312-0.033c0.383-0.008,0.771-0.024,1.147-0.093c1.028-0.184,1.759-0.721,2.035-1.784
		c0.146-0.557,0.278-1.123,0.504-1.651c0.664-1.562,2.522-2.066,3.841-1.063c0.746,0.568,1.136,1.353,0.979,2.271
		c-0.384,2.264-1.069,4.384-3.061,5.828c-0.875,0.636-1.827,1.077-2.87,1.272c-0.988,0.185-1.999,0.249-3.001,0.351
		C1420.871,85.975,1420.395,85.982,1419.845,86.011z"/>
	<path fill="#FFFFFF" d="M1415.383,144.41c-0.926,0.076-1.854-0.214-2.71-0.644c-0.957-0.481-1.908-0.815-2.988-0.945
		c-1.551-0.188-2.437-1.767-1.962-3.241c0.315-0.992,1.157-1.646,2.257-1.727c1.321-0.1,2.586,0.124,3.771,0.729
		c0.299,0.153,0.583,0.339,0.889,0.479c0.837,0.381,1.287,0.31,1.951-0.345c0.27-0.267,0.541-0.567,0.699-0.903
		c0.455-0.969,1.216-1.649,2.133-2.072c2.028-0.932,2.877-2.724,3.612-4.63c0.121-0.312,0.19-0.646,0.302-0.963
		c0.408-1.171,1.233-1.803,2.479-1.844c0.526-0.021,1.061-0.027,1.582,0.041c1.08,0.139,1.875,0.862,2.113,1.895
		c0.238,1.033-0.026,1.977-0.904,2.547c-0.732,0.479-1.138,1.108-1.52,1.841c-0.772,1.496-1.605,2.965-2.925,4.068
		c-0.438,0.365-0.903,0.714-1.4,0.99c-0.561,0.309-1.022,0.669-1.376,1.222c-0.519,0.812-1.193,1.496-1.948,2.106
		C1418.269,143.96,1416.96,144.459,1415.383,144.41z"/>
	<path fill="#FFFFFF" d="M1385.867,38.245c-2.286,0.139-4.126-0.872-5.818-2.198c-1.393-1.092-1.376-3.046,0.073-4.069
		c1.17-0.827,2.403-1.626,3.719-2.173c2.104-0.874,4.369-1.03,6.64-0.955c1.55,0.053,2.67,0.924,3.345,2.183
		c0.719,1.334,0.889,2.771,0.051,4.247c-0.762,1.345-1.911,2.012-3.312,2.286C1389.012,37.868,1387.434,38.024,1385.867,38.245z"/>
	<path fill="#FFFFFF" d="M1343.181,63.057c0.759,0.024,1.534,0.436,1.999,1.317c0.487,0.931,0.407,1.847-0.193,2.708
		c-0.107,0.157-0.24,0.305-0.391,0.42c-1.481,1.138-2.973,2.269-4.719,2.979c-0.393,0.158-0.825,0.271-1.245,0.292
		c-1.05,0.044-1.978-0.596-2.36-1.559c-0.402-1.008-0.119-2.171,0.713-2.868c0.183-0.152,0.385-0.296,0.602-0.39
		c1.287-0.555,2.41-1.37,3.527-2.192C1341.664,63.358,1342.247,63.049,1343.181,63.057z"/>
	<path fill="#FFFFFF" d="M1238.825,119.127c-1.154,0-2.307,0.021-3.46-0.004c-1.846-0.038-3.336-0.841-4.482-2.254
		c-0.291-0.356-0.509-0.827-0.609-1.277c-0.734-3.257,0.517-5.834,2.868-7.978c0.779-0.712,1.823-0.823,2.83-0.924
		c0.522-0.053,1.056-0.023,1.586-0.012c0.494,0.01,0.953-0.065,1.344-0.402c0.661-0.57,1.454-0.689,2.295-0.677
		c1.202,0.021,2.401,0.018,3.542,0.505c0.302,0.13,0.656,0.136,0.987,0.188c1.906,0.309,3.243,1.385,4.072,3.089
		c0.44,0.91,0.784,1.857,0.695,2.909c-0.041,0.479-0.026,0.963,0.004,1.442c0.062,1.009-0.34,1.877-0.806,2.726
		c-0.341,0.622-0.903,0.966-1.55,1.223c-2.483,0.984-5.035,1.596-7.73,1.471c-0.526-0.023-1.058-0.004-1.586-0.004
		C1238.825,119.143,1238.825,119.135,1238.825,119.127z M1235.249,113.863c0.28,0.064,0.464,0.144,0.646,0.144
		c2.203-0.006,4.407,0.02,6.608-0.059c0.749-0.026,1.499-0.286,2.229-0.5c0.562-0.167,0.7-0.42,0.687-0.941
		c-0.02-0.693-0.247-1.05-0.817-1.176c-0.554-0.121-1.118-0.199-1.608-0.284c-0.158,0.106-0.25,0.147-0.312,0.214
		c-0.895,0.934-1.927,1.183-3.139,0.688c-0.968-0.395-1.984-0.215-2.984-0.189c-0.211,0.005-0.473,0.146-0.617,0.31
		C1235.524,112.533,1235.188,113.052,1235.249,113.863z"/>
	<path fill="#FFFFFF" d="M1287.987,158.964c0.817,0,1.635-0.014,2.45,0.007c0.334,0.008,0.726-0.017,0.987,0.143
		c1.257,0.768,2.695,1.292,3.625,2.521c0.382,0.503,0.769,0.973,1.337,1.283c0.521,0.286,0.885,0.74,1.114,1.285
		c0.407,0.976,0.848,1.94,1.18,2.94c0.469,1.411,0.352,2.859-0.01,4.268c-0.276,1.085-1.061,1.763-2.182,1.79
		c-1.63,0.041-3.266-0.008-4.895-0.108c-0.904-0.056-1.798-0.309-2.699-0.445c-1.264-0.193-2.371-0.724-3.416-1.444
		c-0.668-0.462-1.389-0.854-2.111-1.229c-1.343-0.696-2.351-2.169-2.398-3.68c-0.037-1.149,0.006-2.307-0.007-3.458
		c-0.011-0.867,0.341-1.547,0.895-2.206c0.938-1.116,2.134-1.604,3.534-1.668c0.864-0.038,1.73-0.008,2.596-0.008
		C1287.987,158.958,1287.987,158.96,1287.987,158.964z M1293.494,167.976c-0.129-0.276-0.175-0.603-0.36-0.744
		c-0.698-0.535-1.205-1.22-1.708-1.922c-0.466-0.649-1.162-1.092-1.895-1.206c-1.116-0.176-2.271-0.199-3.385,0.045
		c-0.229,1.258-0.18,1.191,0.63,1.82c1.643,1.271,3.479,1.948,5.529,2.114c0.238,0.021,0.475,0.067,0.711,0.063
		C1293.144,168.146,1293.268,168.061,1293.494,167.976z"/>
</g>
<path fill="#FFFFFF" d="M202.353,173.979c-0.049,0.174-0.09,0.348-0.147,0.52c-0.9,2.646-2.157,5.22-3.412,7.792
	c-1.334,2.745-2.72,5.481-4.047,8.23c-0.36,0.75-0.63,1.523-0.865,2.301c-0.572,1.882-1.357,3.725-2.111,5.574
	c-0.226,0.55-0.521,1.028-1.334,1.274c-0.063,0.021-0.091,0.099-0.135,0.151c0.05,0.042,0.09,0.118,0.149,0.124
	c1.077,0.096,4.552,0.061,5.497-0.059c0.092-0.171,0.223-0.362,0.301-0.562c0.673-1.707,1.418-3.401,1.983-5.123
	c0.685-2.089,1.573-4.129,2.595-6.146c1.504-2.965,3.119-5.902,4.374-8.926c0.925-2.229,1.787-4.468,2.626-6.711
	c0.751-2.007,1.414-4.029,2.155-6.037c0.507-1.379,0.48-2.781,0.541-4.181c0.008-0.119-0.035-0.241-0.074-0.361
	c-0.244-0.751-1.05-1.263-2.093-1.332c-1.077-0.07-2.047,0.286-2.416,1.022c-0.366,0.734-0.96,1.365-1.549,2.01
	c-1.298,1.426-2.269,2.968-3.312,4.484c-0.511,0.743-0.986,1.503-1.557,2.225c-1.363,1.715-2.497,3.503-3.537,5.32
	c-1.668,2.924-3.567,5.782-5.608,8.592c-0.964,1.323-1.574,2.699-1.881,4.169c-0.364,1.746-0.85,3.489-1.439,5.206
	c-0.326,0.941-0.979,1.827-1.49,2.735c-0.027,0.045-0.129,0.068-0.228,0.121c-0.291-0.238-0.166-0.523-0.166-0.781
	c-0.01-2.804-0.006-5.607-0.006-8.415c0-4.146-0.021-8.293,0.01-12.439c0.016-2.041,0.13-4.085,0.201-6.128
	c0.017-0.518,0.062-1.033,0.065-1.554c0.021-3.079,0.078-6.156,0.354-9.232c0.571-6.364,0.293-12.739,0.281-19.11
	c-0.004-2.439-0.473-4.865-0.876-7.289c-0.557-3.337-1.615-6.611-2.595-9.897c-0.207-0.685-0.359-1.378-0.558-2.066
	c-0.436-1.522-0.895-3.046-1.325-4.573c-0.146-0.506-0.247-1.02-0.347-1.533c-0.042-0.215,0.013-0.431,0.272-0.587
	c1.195-0.723,1.586-1.657,1.547-2.711c-0.002-0.061,0.021-0.121,0.043-0.178c0.012-0.027,0.047-0.046,0.084-0.077
	c0.264-0.091,0.391,0.068,0.53,0.17c0.481,0.355,0.94,0.731,1.433,1.084c1.181,0.841,2.513,1.534,4.093,1.998
	c0.996,0.292,2.032,0.423,3.106,0.438c0.487,0.007,0.977-0.021,1.463-0.001c1.031,0.038,1.903-0.255,2.755-0.591
	c0.437-0.173,0.749-0.434,0.941-0.751c0.328-0.534,0.582-1.082,0.591-1.677c0.021-1.314-0.064-2.622-0.686-3.886
	c-0.049-0.103-0.008-0.226-0.008-0.403c0.294,0.079,0.484,0.142,0.684,0.188c0.457,0.111,0.906,0.271,1.377,0.314
	c0.876,0.078,1.625,0.321,2.262,0.713c0.656,0.397,1.419,0.623,2.233,0.785c1.282,0.262,3.013-0.23,3.686-1.031
	c0.274-0.327,0.41-0.685,0.292-1.058c-0.276-0.861-0.528-1.73-0.904-2.574c-0.218-0.486-0.645-0.935-1.009-1.386
	c-0.45-0.559-0.964-1.096-1.399-1.662c-0.609-0.785-1.354-1.503-2.266-2.134c-0.909-0.625-1.826-1.246-2.735-1.873
	c-1.043-0.719-2.265-1.275-3.502-1.813c-0.936-0.405-1.89-0.799-2.813-1.22c-1.115-0.508-2.307-0.91-3.541-1.259
	c-1.246-0.351-2.527-0.569-3.88-0.57c-0.305,0-0.61-0.045-0.923-0.066c-0.146-0.137-0.298-0.247-0.398-0.38
	c-0.571-0.757-1.502-1.272-2.481-1.755c-0.521-0.256-1.109-0.37-1.748-0.37c-1.425,0.003-2.843,0-4.264-0.005
	c-0.596-0.001-1.125,0.124-1.648,0.313c-0.626,0.225-1.283,0.408-1.929,0.607c-0.97,0.293-1.946,0.561-2.976,0.758
	c-0.757,0.143-1.445,0.461-2.157,0.706c-0.556,0.191-1.08,0.439-1.661,0.574c-1.16,0.267-2.152,0.715-3.107,1.215
	c-0.535,0.276-1.084,0.527-1.77,0.606c-0.209,0.025-0.418,0.104-0.612,0.171c-1.46,0.52-2.942,1.004-4.357,1.572
	c-0.876,0.352-1.681,0.796-2.452,1.25c-0.841,0.493-1.579,1.071-2.416,1.568c-1.195,0.714-1.887,1.636-2.241,2.647
	c-0.373,1.068-0.432,2.171,0.142,3.244c0.438,0.816,1.786,1.641,3.031,1.736c1.719,0.135,3.448,0.228,5.136-0.179
	c0.065-0.018,0.164,0.023,0.283,0.04c0.01,0.325-0.32,0.552-0.53,0.805c-1.248,1.48-2.441,2.976-3.347,4.571
	c-0.457,0.807-0.708,1.63-0.679,2.499c0.026,0.67,0.42,1.158,1.213,1.534c0.708,0.335,1.441,0.595,2.321,0.626
	c0.798,0.024,1.599,0.106,2.393,0.084c3.469-0.097,6.229-1.105,8.138-3.119c0.699-0.738,1.294-1.525,1.936-2.292
	c0.15-0.182,0.302-0.363,0.516-0.626c0.223,0.28,0.38,0.49,0.556,0.692c0.542,0.628,1.039,1.277,1.653,1.872
	c0.792,0.763,1.955,1.119,3.304,1.193c0.524,0.028,1.049,0.033,1.637,0.05c0.069,0.222,0.125,0.391,0.179,0.562
	c0.26,0.835,0.542,1.667,0.776,2.503c0.623,2.214,1.228,4.435,1.838,6.647c0.117,0.419,0.236,0.837,0.376,1.253
	c1.331,3.87,2,7.807,2.465,11.758c0.156,1.336,0.188,2.681,0.197,4.021c0.024,3.993,0.074,7.988-0.012,11.981
	c-0.053,2.59-0.335,5.175-0.493,7.767c-0.066,1.156-0.069,2.314-0.109,3.474c-0.064,1.919-0.132,3.84-0.195,5.76
	c-0.049,1.495-0.125,2.987-0.127,4.479c-0.013,8.296-0.008,16.59-0.006,24.883c0,0.332,0.021,0.665,0.032,1.002
	c0.887,0.231,1.733,0.111,2.561,0.131c0.843,0.018,1.687,0.004,2.532,0.004c0.839,0,1.678,0,2.523,0
	c0.2-0.224,0.384-0.394,0.524-0.577c1.103-1.466,1.969-3.003,2.761-4.556c0.321-0.629,0.495-1.298,0.675-1.956
	c0.422-1.559,0.841-3.117,1.195-4.684c0.195-0.857,0.626-1.646,1.167-2.42c0.86-1.235,1.698-2.481,2.565-3.717
	c1.485-2.115,2.735-4.303,4.022-6.474c0.27-0.453,0.547-0.901,0.839-1.349c0.078-0.119,0.225-0.222,0.338-0.33
	C202.257,173.952,202.304,173.967,202.353,173.979z M192.452,110.202c-1.161,0.176-2.097,0.045-2.94-0.347
	c-0.547-0.255-1.083-0.531-1.564-0.843c-0.94-0.604-1.774-1.281-2.456-2.036c-0.933-1.036-1.883-2.064-2.783-3.112
	c-0.383-0.443-0.697-0.92-0.979-1.396c-0.603-1.019-1.165-2.042-1.729-3.067c-0.139-0.248-0.227-0.511-0.352-0.798
	c0.913-0.342,1.748-0.659,2.724-0.781c0.167,0.146,0.31,0.261,0.438,0.385c1.364,1.313,2.72,2.63,4.096,3.94
	c0.569,0.543,1.125,1.103,1.785,1.591c1.414,1.044,2.393,2.264,3.194,3.558C192.452,108.206,192.617,109.16,192.452,110.202z
	 M168.614,94.373c0.315,0.825,0.121,1.373-0.815,1.852c-1.637,0.832-3.113,1.799-4.54,2.803c-0.555,0.388-1.185,0.729-1.819,1.06
	c-0.955,0.491-1.936,0.962-2.927,1.421c-0.584,0.272-1.181,0.546-1.823,0.739c-0.81,0.245-1.66,0.43-2.506,0.599
	c-0.546,0.106-1.125,0.126-1.766-0.026c-0.19-0.816,0.097-1.508,0.943-2.08c0.79-0.532,1.573-1.071,2.405-1.57
	c0.563-0.338,1.183-0.644,1.833-0.897c1.072-0.421,2.189-0.792,3.292-1.18c0.235-0.084,0.479-0.172,0.735-0.204
	c0.947-0.123,1.756-0.44,2.46-0.861C165.389,95.247,167.02,94.936,168.614,94.373z M174.384,99.245
	c0.087-0.006,0.173-0.013,0.259-0.019c0.108,0.159,0.232,0.314,0.325,0.479c0.646,1.13,1.259,2.271,1.925,3.396
	c0.427,0.716,0.613,1.455,0.609,2.221c-0.006,1.368,0,2.736-0.002,4.104c0,0.183,0.002,0.364-0.023,0.547
	c-0.047,0.301-0.224,0.451-0.655,0.48c-0.571,0.038-1.148,0.027-1.721,0.048c-0.589,0.021-0.995-0.141-1.301-0.496
	c-0.729-0.854-1.226-1.75-1.217-2.755c0.01-1.094,0.021-2.188,0-3.281c-0.012-0.588,0.159-1.141,0.448-1.688
	c0.349-0.655,0.614-1.329,0.913-1.998C174.097,99.938,174.239,99.592,174.384,99.245z M168.837,100.101
	c-0.063,0.272-0.074,0.447-0.148,0.608c-0.192,0.403-0.46,0.795-0.612,1.206c-0.456,1.214-1.155,2.362-1.902,3.502
	c-0.728,1.11-1.416,2.231-2.198,3.322c-0.606,0.845-1.3,1.661-2.015,2.464c-0.791,0.885-2.049,1.32-3.48,1.534
	c-0.464,0.071-0.957,0.111-1.406-0.031c-0.03-0.085-0.085-0.147-0.066-0.196c0.068-0.176,0.146-0.354,0.255-0.518
	c1.458-2.258,3.154-4.421,5.323-6.402c0.479-0.436,0.929-0.892,1.361-1.348c0.604-0.638,1.189-1.284,1.775-1.932
	c0.687-0.758,1.57-1.393,2.541-1.979C168.385,100.26,168.546,100.219,168.837,100.101z M200.72,103.578
	c-0.647,0.077-1.226-0.022-1.768-0.232c-1.008-0.39-1.971-0.826-2.791-1.39c-1.384-0.949-2.874-1.807-4.393-2.647
	c-0.79-0.438-1.511-0.938-2.232-1.432c-0.276-0.189-0.532-0.416-0.707-0.654c-0.493-0.682-1.019-1.342-1.943-1.961
	c0.346,0.021,0.533,0.003,0.674,0.048c0.638,0.213,1.278,0.423,1.885,0.671c1.179,0.486,2.345,0.983,3.491,1.501
	c0.737,0.333,1.492,0.672,2.141,1.078c1.109,0.695,2.163,1.438,3.209,2.184C199.142,101.352,200.247,102.67,200.72,103.578z
	 M180.35,93.654c-0.263,0.403-0.505,0.725-0.689,1.062c-0.135,0.249-0.352,0.422-0.706,0.505c-0.333,0.077-0.669,0.157-1.016,0.191
	c-0.829,0.08-1.666,0.138-2.499,0.196c-0.308,0.023-0.619,0.036-0.927,0.031c-0.778-0.016-1.019-0.159-1.065-0.71
	c-0.04-0.482-0.016-0.971-0.012-1.455c0.001-0.308,0.236-0.515,0.624-0.643c0.954-0.317,1.904-0.644,3.024-0.544
	c0.306,0.03,0.62,0.022,0.928,0.003c0.86-0.06,1.437,0.187,1.779,0.729C179.933,93.239,180.153,93.435,180.35,93.654z"/>
<path fill="#FFFFFF" d="M114.35,151.578c-0.012,0.447-0.152,0.75-0.249,1.059c-0.187,0.588-0.239,1.191-0.219,1.805
	c0.039,1.098,0.758,1.808,1.793,1.799c0.625-0.004,1.182-0.206,1.652-0.66c0.348-0.335,0.701-0.664,1.103-1.044
	c0.14,0.221,0.26,0.371,0.338,0.543c0.441,0.977,0.89,1.947,1.307,2.936c1.923,4.543,3.491,9.228,4.875,13.986
	c0.591,2.038,1.27,4.051,1.586,6.166c0.285,1.905,0.56,3.813,0.832,5.723c0.112,0.771,0.221,1.54,0.302,2.312
	c0.087,0.809,0.179,1.617,0.201,2.428c0.083,2.946,0.142,5.893,0.206,8.84c0.017,0.775,0.021,1.551,0.028,2.354
	c0.539,0.305,1.083,0.143,1.604,0.166c0.532,0.022,1.066-0.009,1.647-0.018c0.035-0.29,0.088-0.515,0.085-0.736
	c-0.039-1.965-0.086-3.928-0.132-5.894c-0.031-1.318-0.085-2.639-0.092-3.961c-0.007-1.631-0.143-3.245-0.378-4.854
	c-0.289-1.974-0.545-3.954-0.836-5.927c-0.296-2.01-0.723-3.986-1.32-5.924c-1.051-3.405-2.026-6.844-3.235-10.194
	c-1.197-3.322-2.516-6.584-4.031-9.753c-0.158-0.331-0.308-0.664-0.475-1.024c0.1-0.146,0.176-0.291,0.281-0.411
	c0.78-0.893,0.836-0.91,1.88-0.454c0.261,0.115,0.501,0.28,0.752,0.425c0.532,0.301,1.059,0.606,1.593,0.9
	c0.549,0.308,1.141,0.355,1.752,0.361c0.8,0.004,1.396-0.374,1.905-0.979c0.264-0.312,0.424-0.682,0.445-1.1
	c0.036-0.678,0.029-1.353-0.227-1.998c-0.32-0.81-0.583-1.65-1.213-2.319c0.155-0.199,0.274-0.396,0.429-0.554
	c0.87-0.89,1.284-2.005,1.381-3.257c0.084-1.083,0.067-2.17-0.242-3.222c-0.301-1.024-0.982-1.687-1.933-1.898
	c-0.714-0.159-1.471-0.021-2.1,0.433c-0.574,0.416-1.105,0.905-1.652,1.364c-0.193,0.158-0.383,0.324-0.624,0.53
	c-0.112-0.198-0.194-0.333-0.267-0.473c-0.186-0.354-0.354-0.721-0.553-1.068c-0.596-1.046-1.5-1.623-2.603-1.861
	c-0.729-0.152-1.402,0.168-1.774,0.875c-0.216,0.409-0.355,0.865-0.527,1.301c-0.06,0.147-0.116,0.297-0.2,0.509
	c-0.287-0.2-0.533-0.343-0.745-0.528c-0.426-0.38-0.929-0.585-1.446-0.745c-1.07-0.328-1.893,0.125-2.25,1.244
	c-0.111,0.35-0.207,0.716-0.24,1.083c-0.032,0.33,0.028,0.665,0.055,1.068c-0.194,0.035-0.371,0.083-0.548,0.098
	c-1.195,0.097-2.088,1.657-1.5,2.902c0.068,0.145,0.124,0.295,0.204,0.491c-0.395,0.179-0.739,0.332-1.081,0.491
	c-1.529,0.724-1.799,1.708-0.887,3.204c0.017,0.024,0.014,0.064,0.029,0.153c-0.052,0.07-0.112,0.191-0.204,0.272
	c-0.646,0.553-0.823,1.353-0.957,2.152c-0.101,0.604,0.109,1.141,0.544,1.549c0.57,0.539,1.217,0.827,2.005,0.708
	c1.048-0.156,2.021-0.552,2.988-0.982C113.698,151.847,113.983,151.731,114.35,151.578z M124.218,144.394
	c0.513-1.184,0.985-1.806,1.977-2.667c0.08-0.067,0.205-0.077,0.343-0.128c0.084,0.521-0.017,0.937-0.279,1.29
	C125.764,143.551,125.125,143.999,124.218,144.394z M119.987,144.11c0.134,0.106,0.173,0.121,0.181,0.146
	c0.261,0.879,0.721,1.559,1.59,1.828c0.029,0.007,0.067,0.036,0.072,0.062c0.021,0.091,0.044,0.186,0.032,0.272
	c-0.006,0.041-0.103,0.108-0.146,0.101c-0.33-0.079-0.658-0.171-1.008-0.266c-0.144-0.719-0.547-1.214-1.008-1.628
	c0.052-0.124,0.071-0.188,0.104-0.242C119.855,144.299,119.914,144.22,119.987,144.11z M114.391,147.394l-0.072-0.038l0.077-0.032
	L114.391,147.394z"/>
<path fill="#FFFFFF" d="M138.792,199.86c0.688,0.174,2.216,0.188,3.136,0.03c0.213-0.415,0.163-0.9,0.201-1.36
	c0.153-1.822,0.278-3.645,0.427-5.468c0.178-2.159,0.441-4.304,0.958-6.411c0.601-2.455,1.124-4.936,1.727-7.39
	c0.501-2.029,1.092-4.03,1.8-5.994c1.195-3.318,2.354-6.651,3.536-9.974c0.107-0.307,0.144-0.667,0.438-0.854
	c0.327,0.332,0.633,0.677,0.969,0.978c1.067,0.963,2.294,1.09,3.573,0.651c0.661-0.229,0.997-0.806,1.067-1.544
	c0.032-0.329,0.053-0.662,0.084-1.059c0.269,0.024,0.479,0.03,0.686,0.062c0.598,0.092,1.19,0.18,1.794,0.026
	c1.155-0.295,1.583-0.821,1.684-2.095c0.008-0.1,0.037-0.195,0.058-0.298c0.084-0.059,0.157-0.123,0.241-0.163
	c1.042-0.483,1.488-1.426,1.636-2.55c0.063-0.493,0.029-1.014-0.021-1.512c-0.047-0.433-0.008-0.783,0.267-1.13
	c0.981-1.239,1.205-2.723,1.151-4.285c-0.032-0.968-0.535-1.65-1.206-2.199c-0.211-0.174-0.521-0.227-0.793-0.295
	c-0.213-0.05-0.438-0.04-0.633-0.055c-0.232-0.247-0.166-0.53-0.163-0.793c0.013-0.913,0.039-1.829,0.054-2.741
	c0.003-0.237,0.001-0.478-0.03-0.71c-0.178-1.259-1.397-1.938-2.441-1.313c-0.378,0.226-0.717,0.559-1.017,0.898
	c-0.674,0.771-1.198,1.659-1.67,2.586c-0.119,0.229-0.258,0.445-0.4,0.697c-0.281-0.13-0.3-0.38-0.372-0.585
	c-0.352-0.99-0.822-1.908-1.486-2.697c-0.23-0.274-0.505-0.508-0.761-0.76c-0.761-0.74-1.665-0.742-2.597-0.559
	c-0.352,0.068-0.669,0.249-0.884,0.559c-0.44,0.63-0.815,1.293-0.805,2.119c0.019,1.354,0.03,2.712,0.043,4.065
	c0.003,0.297,0.088,0.604-0.077,0.904c-0.095,0-0.2,0.032-0.28-0.003c-0.928-0.413-1.747-0.027-2.533,0.424
	c-0.584,0.335-1.136,0.727-1.749,1.017c-0.982,0.471-1.293,1.534-0.764,2.547c0.222,0.424,0.369,0.855,0.479,1.313
	c0.047,0.197,0.105,0.392,0.174,0.58c0.253,0.696,0.734,1.121,1.422,1.175c0.628,0.05,1.267,0.023,1.897-0.012
	c0.791-0.048,1.578-0.146,2.369-0.209c0.115-0.011,0.231,0.03,0.432,0.061c-0.095,0.236-0.146,0.425-0.237,0.587
	c-1.409,2.543-2.553,5.214-3.503,7.99c-1.106,3.244-2.29,6.46-3.386,9.708c-0.828,2.455-1.445,4.979-2.035,7.509
	c-0.452,1.939-0.87,3.887-1.295,5.83c-0.417,1.917-0.596,3.877-0.768,5.832c-0.17,1.952-0.3,3.913-0.443,5.871
	C138.722,199.199,138.64,199.538,138.792,199.86z M152.38,146.976c0.575,1.07,0.794,2.212,0.708,2.938
	c-0.503-0.428-0.52-0.444-0.583-0.836c-0.025-0.166-0.031-0.336-0.041-0.504C152.435,148.042,152.407,147.509,152.38,146.976z
	 M159.804,151.905c0.341-0.775,0.341-0.775,0.823-0.896C160.583,151.483,160.317,151.701,159.804,151.905z M153.066,152.365
	c0.251,0.715,0.25,0.715,0,1.047C153.066,153.083,153.066,152.727,153.066,152.365z M157.906,154.248
	c0.044,0.032,0.11,0.058,0.127,0.103c0.013,0.04-0.025,0.103-0.041,0.155c-0.058-0.043-0.116-0.086-0.173-0.128
	C157.848,154.334,157.876,154.292,157.906,154.248z"/>
<path fill="#FFFFFF" d="M98.82,172.13c-0.219,0.279-0.391,0.475-0.538,0.688c-0.458,0.668-0.486,1.438-0.084,2.087
	c0.408,0.661,1.17,0.954,1.923,0.723c0.437-0.133,0.8-0.395,1.135-0.716c0.278-0.263,0.538-0.557,0.967-0.789
	c0.02,0.348,0.023,0.602,0.052,0.853c0.106,0.985,0.861,1.732,1.787,1.78c0.613,0.031,1.106-0.218,1.488-0.732
	c0.231-0.312,0.418-0.669,0.714-0.951c0.364,0.231,0.498,0.585,0.668,0.893c1.381,2.523,2.489,5.176,3.247,7.987
	c0.775,2.879,1.228,5.806,1.226,8.809c0,2.029,0.025,4.061,0.042,6.094c0.003,0.33,0.025,0.662,0.035,0.97
	c0.745,0.227,2.453,0.237,3.28,0.026c0.017-0.247,0.053-0.513,0.05-0.774c-0.032-2.742-0.017-5.485-0.119-8.225
	c-0.107-2.781-0.623-5.503-1.374-8.171c-0.869-3.098-2.076-6.035-3.65-8.794c-0.461-0.806-0.982-1.57-1.468-2.342
	c0.059-0.237,0.217-0.272,0.377-0.238c0.308,0.07,0.61,0.172,0.916,0.253c0.459,0.122,0.917,0.279,1.385,0.345
	c0.729,0.103,1.316-0.197,1.667-0.898c0.349-0.695,0.274-1.384-0.188-1.992c-0.469-0.62-1.029-1.102-1.805-1.213
	c-0.347-0.048-0.688-0.115-1.029-0.193c-0.287-0.063-0.524-0.212-0.64-0.552c0.292-0.399,0.718-0.568,1.091-0.81
	c0.216-0.137,0.458-0.236,0.665-0.392c0.582-0.435,0.839-1.161,0.682-1.868c-0.158-0.715-0.68-1.229-1.385-1.346
	c-0.22-0.035-0.441-0.034-0.712-0.054c-0.037-0.185-0.1-0.373-0.107-0.562c-0.014-0.405,0.021-0.812-0.004-1.218
	c-0.021-0.334-0.05-0.682-0.158-0.99c-0.244-0.698-0.748-1.089-1.441-1.136c-0.654-0.049-1.167,0.262-1.516,0.854
	c-0.132,0.227-0.218,0.48-0.324,0.722c-0.275,0.026-0.289-0.228-0.389-0.367c-0.151-0.217-0.264-0.467-0.426-0.672
	c-0.454-0.568-1.04-0.763-1.711-0.579c-0.64,0.174-1.043,0.641-1.188,1.317c-0.077,0.358-0.075,0.736-0.089,1.107
	c-0.017,0.438-0.014,0.875-0.02,1.375c-0.239-0.023-0.418-0.021-0.588-0.062c-1.208-0.287-2.303,0.906-1.981,2.199
	c0.038,0.161,0.081,0.318,0.119,0.471c-0.087,0.104-0.137,0.198-0.211,0.247c-0.731,0.47-1.047,1.155-0.94,2.054
	c0.048,0.398-0.066,0.696-0.313,1.008c-0.262,0.329-0.47,0.729-0.614,1.13c-0.381,1.065-0.021,1.951,0.942,2.426
	C98.405,171.975,98.557,172.023,98.82,172.13z"/>
</svg>
